<?xml version="1.0" standalone="no"?>
<!DOCTYPE svg PUBLIC "-//W3C//DTD SVG 1.1//EN" "http://www.w3.org/Graphics/SVG/1.1/DTD/svg11.dtd" >
<svg xmlns="http://www.w3.org/2000/svg">
<metadata></metadata>
<defs>
<font id="tuitypelightregular" horiz-adv-x="965" >
<font-face units-per-em="2048" ascent="1638" descent="-410" />
<missing-glyph horiz-adv-x="512" />
<glyph horiz-adv-x="0" />
<glyph unicode="&#xd;" horiz-adv-x="1024" />
<glyph unicode=" "  horiz-adv-x="512" />
<glyph unicode="&#x09;" horiz-adv-x="512" />
<glyph unicode="&#xa0;" horiz-adv-x="512" />
<glyph unicode="!" horiz-adv-x="401" d="M303 86q0 -43 -29.5 -72.5t-72.5 -29.5q-44 0 -73.5 29.5t-29.5 72.5t29.5 72.5t73.5 29.5q43 0 72.5 -29.5t29.5 -72.5zM266 420q0 -14 -2.5 -21t-7.5 -12q-6 -5 -17.5 -8.5t-39.5 -3.5t-38.5 3.5t-17.5 8.5q-5 5 -7.5 12t-2.5 21v915q0 14 2.5 21t7.5 12q7 5 17.5 8.5 t38.5 3.5t39.5 -3.5t17.5 -8.5q5 -5 7.5 -12t2.5 -21v-915z" />
<glyph unicode="&#x22;" horiz-adv-x="690" d="M254 954q0 -14 -2.5 -20.5t-7.5 -11.5q-6 -5 -18 -9t-40 -4q-27 0 -38 4t-17 9q-5 5 -7.5 11.5t-2.5 20.5l-10 381q0 14 2 21t8 12t22 8.5t43 3.5q29 0 44.5 -3.5t21.5 -8.5t9 -12t3 -21zM569 954q0 -14 -2.5 -20.5t-7.5 -11.5q-6 -5 -17.5 -9t-39.5 -4t-38.5 4t-17.5 9 q-5 5 -7.5 11.5t-2.5 20.5l-10 381q0 14 2 21t8 12t22 8.5t44 3.5q29 0 44 -3.5t21 -8.5t9.5 -12t3.5 -21z" />
<glyph unicode="#" horiz-adv-x="1178" d="M498 799l-80 -305h244l79 305h-243zM1114 844q-6 -25 -14 -35t-27 -10h-207l-80 -305h181h15q8 0 13 -2q4 -2 7.5 -4.5t5.5 -8t2 -15.5q0 -9 -4 -24q-7 -24 -15 -34.5t-26 -10.5h-205l-96 -362q-7 -23 -20.5 -28t-47.5 -5q-35 0 -46 5.5t-11 14.5q0 10 2.5 19.5t5.5 21.5 l88 334h-244l-96 -362q-6 -23 -20 -28t-48 -5q-35 0 -46 5.5t-11 14.5q0 10 2.5 19.5t5.5 21.5l88 334h-180h-16t-13 2q-4 1 -7.5 4t-5 8.5t-1.5 14.5q0 10 4 25q6 24 14 34.5t27 10.5h205l80 305h-178h-16t-13 2q-8 3 -13 11.5t3 39.5q6 25 14 35t27 10h202l97 363 q6 23 19.5 27.5t47.5 4.5q35 0 46.5 -5.5t11.5 -14.5t-3 -19t-6 -22l-88 -334h244l96 363q6 23 20 27.5t48 4.5q35 0 46 -5.5t11 -14.5t-2.5 -19l-5.5 -22l-88 -334h182h16t13 -2q4 -2 7.5 -4t5 -7.5t1.5 -15.5q0 -9 -4 -24z" />
<glyph unicode="$" horiz-adv-x="1053" d="M817 330q0 50 -15.5 88t-45.5 67t-74.5 50.5t-103.5 37.5v-462q48 6 91.5 21.5t76.5 41.5t52 64.5t19 91.5zM475 1167q-54 -4 -97.5 -21.5t-74.5 -46.5t-48 -67.5t-17 -83.5t17.5 -79.5t49 -60.5t75 -45t95.5 -34v438zM950 354q0 -84 -25 -149t-73 -111t-117 -73.5 t-157 -34.5v-123q0 -19 -8.5 -26t-43.5 -7t-43 7t-8 26v121q-62 3 -115 13.5t-96 25t-75 30t-52 27.5q-26 17 -33.5 25.5t-7.5 17.5q0 19 19 51q12 22 20.5 28.5t18.5 6.5q9 0 18.5 -4t20.5 -10q57 -36 124 -60t158 -29v494l-31 8q-61 16 -120.5 39.5t-106 61.5t-75.5 93.5 t-29 135.5q0 75 25 136t71.5 105.5t114 71.5t151.5 33v109q0 18 8 25t43 7t43.5 -7t8.5 -25v-109q54 -3 94 -11t69 -16q29 -9 52.5 -16.5t40.5 -15.5q28 -14 34 -23.5t6 -15.5t-4 -20.5t-12 -28.5q-9 -20 -17 -27.5t-16 -7.5q-9 0 -17.5 2.5t-16.5 5.5q-4 2 -16.5 7.5 t-29 12.5t-34.5 13t-33 10q-17 5 -41.5 8.5t-58.5 5.5v-465l40 -10q84 -21 145 -52.5t103 -70.5q41 -38 62.5 -89t21.5 -126z" />
<glyph unicode="%" horiz-adv-x="1591" d="M555 1071q0 48 -11 89.5t-34 72.5t-57.5 49t-81.5 18q-45 0 -80 -18t-58 -49t-35 -72.5t-12 -89.5q0 -47 11.5 -88.5t34.5 -73t57.5 -49.5t81.5 -18q45 0 79.5 18t58 49.5t35 73t11.5 88.5zM1405 301q0 48 -11 89.5t-34 72.5t-57.5 49t-81.5 18q-45 0 -80 -18t-58 -49 t-35 -72.5t-12 -89.5q0 -47 11.5 -88.5t34.5 -73t57.5 -49.5t81.5 -18q45 0 79.5 18t57.5 49.5t35 73t12 88.5zM680 1071q0 -75 -23 -135.5t-64 -104t-98 -67t-124 -23.5q-68 0 -125 23.5t-98 66.5t-64 104t-23 136t23 136t64 104t98 66.5t125 23.5q67 0 124 -23t98 -66 t64 -104t23 -137zM1214 1378q0 -6 -4 -16t-10 -23l-692 -1331q-9 -18 -22.5 -23t-47.5 -5q-32 0 -45.5 5.5t-13.5 16.5q0 6 4 16.5t10 22.5l692 1331q10 19 23 24t47 5q32 0 45.5 -6t13.5 -17zM1530 301q0 -75 -23 -135.5t-64 -104t-98 -67t-124 -23.5q-68 0 -125 23.5 t-98 66.5t-64 104t-23 136t23 136t64 104t98 66.5t125 23.5q67 0 124 -23t98 -66t64 -104t23 -137z" />
<glyph unicode="&#x26;" horiz-adv-x="1247" d="M895 700h-334q-82 0 -140.5 -26t-95.5 -69.5t-54 -101t-17 -120.5q0 -141 82 -207.5t231 -66.5q161 0 244.5 90t83.5 278v223zM1217 793q0 -8 -2 -24.5t-5 -27.5t-7 -21t-9 -13q-5 -4 -9.5 -5.5t-15.5 -1.5h-133v-233q0 -120 -34 -211t-96.5 -152.5t-151.5 -92.5 t-199 -31q-98 0 -182 24.5t-145 74.5t-95.5 125.5t-34.5 178.5q0 57 13 111.5t40.5 103.5t71 89t105.5 69q-84 37 -129 115.5t-45 187.5q0 81 30 145t80 107.5t115 66.5t135 23q48 0 85 -4.5t65 -11t46 -13t27 -10.5q31 -12 38 -21t7 -18q0 -13 -12 -43q-6 -14 -14 -26.5 t-21 -12.5q-15 0 -29 7t-32 14q-13 4 -27 8.5t-31.5 8t-41 5.5t-54.5 2q-45 0 -87 -15.5t-74 -46.5t-51 -76.5t-19 -105.5q0 -56 21.5 -97.5t60.5 -69t93.5 -41t119.5 -13.5h604q16 0 22 -6q7 -7 7 -22z" />
<glyph unicode="'" horiz-adv-x="375" d="M254 954q0 -14 -2.5 -20.5t-7.5 -11.5q-6 -5 -18 -9t-40 -4q-27 0 -38 4t-17 9q-5 5 -7.5 11.5t-2.5 20.5l-10 381q0 14 2 21t8 12t22 8.5t43 3.5q29 0 44.5 -3.5t21.5 -8.5t9 -12t3 -21z" />
<glyph unicode="(" horiz-adv-x="639" d="M598 -313q0 -23 -18 -54q-11 -20 -22 -29.5t-19 -9.5q-10 0 -17 3t-16 8q-83 40 -157 120t-130 192.5t-88.5 256t-32.5 311.5t32.5 311t88.5 255.5t130 192t157 120.5q9 5 16 7.5t17 2.5q8 0 19 -9.5t22 -29.5q18 -30 18 -53q0 -6 -3.5 -12t-14.5 -13 q-71 -41 -131 -110.5t-104 -167t-68.5 -221.5t-24.5 -273t24.5 -273t68.5 -222t104 -168t131 -111q11 -6 14.5 -12t3.5 -12z" />
<glyph unicode=")" horiz-adv-x="639" d="M541 485q0 -168 -32.5 -311.5t-88.5 -256t-130 -192.5t-157 -120q-9 -5 -16 -8t-17 -3q-8 0 -19 9.5t-22 29.5q-18 31 -18 54q0 6 3.5 12t14.5 12q71 41 131 111t104 168t68.5 222t24.5 273t-24.5 273t-68.5 221.5t-104 167t-131 110.5q-11 7 -14.5 13t-3.5 12 q0 23 18 53q11 20 22 29.5t19 9.5q10 0 17 -2.5t16 -7.5q83 -41 157 -120.5t130 -192t88.5 -255.5t32.5 -311z" />
<glyph unicode="*" horiz-adv-x="842" d="M772 1081q0 -14 -6 -21.5t-23 -12.5l-239 -68l160 -197q12 -15 12 -26t-8.5 -21.5t-30.5 -25.5q-31 -25 -53 -25q-20 0 -37 29l-125 198l-127 -198q-17 -29 -37 -29q-11 0 -24.5 6t-28.5 19q-22 15 -30.5 25.5t-8.5 21.5t12 26l160 197l-240 68q-17 5 -22.5 12.5 t-5.5 21.5q0 5 2 17t8 30q15 50 43 50q9 0 17.5 -3t21.5 -8l205 -86l-17 248q-2 14 1.5 21t8.5 12q7 5 18.5 8.5t39.5 3.5t40.5 -3.5t18.5 -8.5q5 -5 8.5 -12t1.5 -21l-14 -248l207 86q12 5 21 8t18 3q28 0 43 -50q6 -18 8 -30t2 -17z" />
<glyph unicode="+" d="M899 633q0 -28 -3.5 -37t-8.5 -14t-12 -8t-21 -3h-307v-327q0 -14 -2.5 -21t-7.5 -12t-16.5 -8.5t-39.5 -3.5t-38 3.5t-15 8.5t-7.5 12t-2.5 21v327h-307q-14 0 -21 3t-12 8t-8.5 14t-3.5 37t3.5 38t8.5 15t12 7.5t21 2.5h307v332q0 14 2.5 21t7.5 12t15 8.5t38 3.5 t39.5 -3.5t16.5 -8.5t7.5 -12t2.5 -21v-332h307q14 0 21 -2.5t12 -7.5t8.5 -15t3.5 -38z" />
<glyph unicode="," horiz-adv-x="381" d="M287 199q0 -14 -5 -27.5t-10 -30.5l-98 -311q-4 -12 -9.5 -19t-14 -10.5t-21.5 -4.5t-31 -1q-28 0 -37.5 7.5t-9.5 17.5q0 8 2.5 18.5t5.5 26.5l72 319q6 25 23.5 34t60.5 9q42 0 57 -8t15 -20z" />
<glyph unicode="-" horiz-adv-x="715" d="M622.5 427q-4.5 -25 -12.5 -38q-6 -14 -16.5 -18t-30.5 -4h-434q-14 0 -21 1t-10 3q-6 5 -8 12.5t-2 24.5q0 24 4 49.5t12 38.5q7 14 17.5 18t30.5 4h434q14 0 20.5 -1t9.5 -3q7 -5 9 -12.5t2 -24.5q0 -25 -4.5 -50z" />
<glyph unicode="." horiz-adv-x="381" d="M293 86q0 -43 -29.5 -72.5t-73.5 -29.5q-43 0 -72.5 29.5t-29.5 72.5t29.5 72.5t72.5 29.5q44 0 73.5 -29.5t29.5 -72.5z" />
<glyph unicode="/" horiz-adv-x="602" d="M592 1348q0 -8 -3.5 -20t-6.5 -21l-449 -1278q-8 -22 -22.5 -25.5t-44.5 -3.5q-36 0 -46 7t-10 18q0 8 3.5 19.5t6.5 21.5l449 1277q8 22 22.5 25.5t45.5 3.5q35 0 45 -6.5t10 -17.5z" />
<glyph unicode="0" d="M758 631q0 123 -18 222t-52.5 169.5t-86 108.5t-118.5 38t-118.5 -38t-86.5 -108.5t-53 -169.5t-18 -222t18 -221.5t53 -167t86.5 -105.5t118.5 -37t118.5 37t86 105.5t52.5 167t18 221.5zM903 631q0 -161 -31.5 -282.5t-87.5 -203.5t-133 -123.5t-168 -41.5t-168.5 41.5 t-133.5 123.5t-88 203.5t-32 282.5q0 160 32 283.5t88 206.5t133.5 126t168.5 43t168 -43t133 -126t87.5 -206.5t31.5 -283.5z" />
<glyph unicode="1" d="M598 37q0 -14 -2.5 -21t-7.5 -12q-6 -5 -18 -8.5t-40 -3.5q-27 0 -38 3.5t-17 8.5q-5 5 -7.5 12t-2.5 21v1050l-236 -206q-9 -10 -18.5 -16.5t-22.5 -6.5q-12 0 -21.5 8t-19.5 21q-8 11 -13 21t-5 20q0 9 5.5 19t21.5 24l329 291q17 15 32 21.5t34 6.5q27 0 37 -10 t10 -39v-1204z" />
<glyph unicode="2" d="M811 92q0 -15 -2 -30t-4 -23q-6 -26 -17 -33q-9 -6 -28 -6h-643q-27 0 -37 10q-6 6 -10 18t-4 35q0 25 5.5 42t20.5 34l174 178q109 112 182 199t116.5 159.5t62 135.5t18.5 127q0 56 -17 98.5t-47 71.5t-70.5 44t-88.5 15q-39 0 -69 -6t-55 -18t-47.5 -30.5t-47.5 -43.5 q-14 -14 -25 -25.5t-26 -11.5q-14 0 -27.5 10t-24.5 21q-9 9 -16.5 21.5t-7.5 21.5q0 11 8 23.5t31 35.5q15 16 42.5 37.5t66.5 41t89.5 33t112.5 13.5q75 0 141 -21t115 -65t77.5 -111.5t28.5 -160.5q0 -78 -25.5 -153.5t-66.5 -145t-91.5 -132t-100.5 -116.5 q-29 -32 -65.5 -69.5t-71.5 -73.5t-65 -66t-46 -47h524q11 0 16.5 -2.5t8.5 -5.5q3 -5 4.5 -10t1.5 -19z" />
<glyph unicode="3" d="M797 399q0 -91 -27.5 -160.5t-73.5 -122t-105.5 -88t-123.5 -57.5t-128 -31.5t-118 -9.5q-43 0 -66.5 2t-35.5 9q-13 8 -17 20t-4 35t5 38t24 23q14 5 41 3.5t59 -1.5t76 5.5t91 19t93 37.5t82.5 60.5t59 87t22.5 118.5q0 58 -17.5 105t-53 80.5t-88.5 52t-123 18.5h-54 q-24 0 -28 4q-5 3 -5.5 8.5t-0.5 18.5q0 20 3 41.5t11 34.5q5 9 12 12.5t23 3.5h32q60 0 111 13t87.5 40.5t57.5 70t21 101.5q0 46 -17 80t-46 56t-68 33t-84 11t-79 -7.5t-58 -16.5q-20 -8 -40.5 -18t-43.5 -27q-17 -13 -32.5 -25t-29.5 -12q-17 0 -26 10t-17 21 q-8 9 -13 19t-5 20q0 11 10 24.5t33 30.5q27 18 57.5 36t68.5 32.5t85.5 23t109.5 8.5q67 0 127.5 -17.5t106 -53.5t72 -89.5t26.5 -125.5q0 -57 -14.5 -103t-40 -83t-59.5 -65.5t-72 -50.5q45 -14 82.5 -38.5t65.5 -62t43.5 -88t15.5 -114.5z" />
<glyph unicode="4" d="M604 1049l-385 -598h385v598zM907 422q0 -8 -1.5 -23t-4.5 -26t-7 -21.5t-9 -13.5t-9.5 -4.5t-15.5 -1.5h-123v-357q0 -14 -2.5 -20.5t-7.5 -11.5q-6 -5 -17.5 -9t-39.5 -4t-38.5 4t-17.5 9q-5 5 -7.5 11.5t-2.5 20.5v357h-508q-22 0 -28 6q-5 3 -8 10.5t-3 26.5 q0 15 4.5 31t14.5 30l532 815q16 23 34 31t38 8q15 0 28.5 -2.5t18.5 -7.5q10 -10 10 -39v-790h142q16 0 22 -7q6 -6 6 -22z" />
<glyph unicode="5" d="M811 410q0 -93 -27 -165t-73 -125.5t-107 -89.5t-128 -58.5t-137 -32t-134 -9.5q-35 0 -57.5 2t-34.5 9q-13 8 -17 20t-4 35t5 38t24 23q14 5 35.5 3.5t58.5 -1.5q39 0 88 5.5t99 19t97.5 37.5t84.5 61.5t59.5 90t22.5 122.5t-23.5 124.5t-74 91.5t-130 56t-192.5 19h-27 q-28 0 -38.5 3.5t-16.5 8.5q-5 5 -7.5 12t-2.5 21l22 477q0 16 3 28.5t9 18.5q7 7 19 11t41 4h522q11 0 16.5 -2.5t8.5 -5.5q3 -5 4.5 -10t1.5 -19q0 -16 -2 -31.5t-4 -23.5q-3 -14 -7.5 -22t-9.5 -11q-9 -6 -28 -6h-455l-14 -334q158 0 260.5 -32t162.5 -86.5t83.5 -126 t23.5 -150.5z" />
<glyph unicode="6" d="M756 408q0 64 -17 121t-51.5 100t-85.5 67.5t-119 24.5q-65 0 -115.5 -25.5t-85 -68.5t-53 -99.5t-18.5 -119.5q0 -62 17.5 -119.5t52 -101t85.5 -69.5t117 -26q65 0 116 26t86 69.5t53 101t18 119.5zM895 416q0 -97 -31.5 -177t-86.5 -137.5t-130 -89.5t-162 -32 q-88 0 -162.5 30.5t-129 89t-85 143.5t-30.5 193q0 114 28 219.5t70.5 197.5t94 169t99 135.5t83.5 95.5t49 50q10 10 18.5 16.5t18.5 11t24 6.5t35 2q19 0 29 -0.5t15.5 -1.5t7.5 -2.5t5 -3.5q9 -5 9 -16q0 -6 -5.5 -15t-23.5 -26q-39 -35 -87 -84t-98 -115t-99 -151 t-89 -191q48 45 112.5 73t145.5 28q69 0 130.5 -22.5t111.5 -66.5q62 -54 97.5 -137.5t35.5 -191.5z" />
<glyph unicode="7" d="M838 1210q0 -21 -4.5 -36t-10.5 -33l-395 -1164q-3 -9 -6.5 -17.5t-9.5 -14.5q-7 -6 -20.5 -10.5t-39.5 -4.5q-31 0 -42.5 3t-16.5 8t-5.5 9t-0.5 7q0 6 2.5 16t5.5 19l401 1149h-620q-11 0 -16.5 2.5t-8.5 5.5q-3 5 -4.5 10t-1.5 19q0 15 2 30t4 23q6 27 17 33q9 6 28 6 h692q27 0 37 -10q5 -7 9 -17t4 -33z" />
<glyph unicode="8" d="M756 356q0 57 -19 105.5t-54.5 84t-86.5 55.5t-115 20t-114.5 -20t-86 -55.5t-54.5 -84t-19 -105.5t19 -106t54.5 -84.5t86 -55.5t114.5 -20t115 20t86.5 55.5t54.5 84.5t19 106zM723 956q0 48 -16.5 89t-48 71t-76.5 47t-101 17t-100.5 -17t-76 -47t-48 -71t-16.5 -89 t16.5 -88.5t48 -70.5t76 -47t100.5 -17t101 17t76.5 47t48 70.5t16.5 88.5zM895 356q0 -84 -31.5 -153.5t-87 -119t-131.5 -76.5t-164 -27t-163.5 27t-131 76.5t-87 119t-31.5 153.5q0 107 50.5 191t155.5 137q-86 51 -124.5 125t-38.5 162q0 72 28.5 131t78 100.5 t117.5 64.5t146 23t146 -23t118 -64.5t78.5 -100.5t28.5 -131q0 -88 -38.5 -162t-125.5 -125q105 -53 156 -137t51 -191z" />
<glyph unicode="9" d="M752 862q0 62 -18 119.5t-52.5 101t-85.5 69.5t-117 26q-65 0 -116 -26t-85.5 -69.5t-52.5 -101t-18 -119.5q0 -65 17 -121.5t51.5 -99.5t85 -67.5t118.5 -24.5q64 0 115 25.5t86 68t53.5 99.5t18.5 120zM887 834q0 -114 -28 -219.5t-70.5 -197.5t-94 -169.5t-99 -135.5 t-83.5 -95.5t-49 -49.5q-11 -10 -19.5 -17t-18 -11.5t-23.5 -6.5t-35 -2q-20 0 -31 0.5t-17 1.5t-8.5 2.5t-5.5 4.5q-8 5 -8 16q0 6 5 15t24 26q38 34 87.5 83.5t101 115.5t100.5 151t87 191q-48 -45 -112 -73t-146 -28q-69 0 -130.5 22.5t-110.5 65.5q-62 54 -97.5 138 t-35.5 192q0 97 31.5 177t86.5 137.5t129.5 89.5t161.5 32q88 0 163 -31t129.5 -89.5t85 -143t30.5 -192.5z" />
<glyph unicode=":" horiz-adv-x="381" d="M293 86q0 -43 -29.5 -72.5t-73.5 -29.5q-43 0 -72.5 29.5t-29.5 72.5t29.5 72.5t72.5 29.5q44 0 73.5 -29.5t29.5 -72.5zM293 791q0 -44 -29.5 -73.5t-73.5 -29.5q-43 0 -72.5 29.5t-29.5 73.5q0 43 29.5 72.5t72.5 29.5q44 0 73.5 -29.5t29.5 -72.5z" />
<glyph unicode=";" horiz-adv-x="381" d="M279.5 717.5q-29.5 -29.5 -72.5 -29.5q-21 0 -40 8t-33 22t-22 32.5t-8 40.5q0 21 8 40t22 32.5t33 21.5t40 8q43 0 72.5 -29.5t29.5 -72.5q0 -44 -29.5 -73.5zM282 171.5q-5 -13.5 -10 -30.5l-98 -311q-4 -12 -9.5 -19t-14 -10.5t-21.5 -4.5t-31 -1q-28 0 -37.5 7.5 t-9.5 17.5q0 8 2.5 18.5t5.5 26.5l72 319q6 25 23.5 34t60.5 9q42 0 57 -8t15 -20q0 -14 -5 -27.5z" />
<glyph unicode="&#x3c;" d="M901 297q0 -41 -8.5 -52.5t-22.5 -11.5q-9 0 -15.5 1.5t-23.5 9.5l-727 303q-26 11 -33.5 31t-7.5 55q0 37 7.5 57t33.5 31l727 307q17 8 23.5 9t15.5 1q14 0 22.5 -11t8.5 -52q0 -19 -1.5 -31.5t-5 -20.5t-10.5 -13t-18 -9l-643 -268l643 -262q11 -5 18 -10t10.5 -13 t5 -20t1.5 -31z" />
<glyph unicode="=" d="M899 473q0 -28 -3.5 -37t-8.5 -14t-12 -7.5t-21 -2.5h-743q-14 0 -21 2.5t-12 7.5t-8.5 14t-3.5 37t3.5 38t8.5 15t12 8t21 3h743q14 0 21 -3t12 -8t8.5 -15t3.5 -38zM899 797q0 -28 -3.5 -37.5t-8.5 -14.5t-12 -7.5t-21 -2.5h-743q-14 0 -21 2.5t-12 7.5t-8.5 14.5 t-3.5 37.5t3.5 38t8.5 15t12 7.5t21 2.5h743q14 0 21 -2.5t12 -7.5t8.5 -15t3.5 -38z" />
<glyph unicode="&#x3e;" d="M901 633q0 -35 -7.5 -55t-33.5 -31l-727 -303q-17 -8 -23.5 -9.5t-15.5 -1.5q-14 0 -22.5 11.5t-8.5 52.5q0 19 1.5 31t5.5 20t10.5 13t17.5 10l643 262l-643 268q-21 9 -28 22.5t-7 51.5q0 41 8.5 52t22.5 11q9 0 15.5 -1t23.5 -9l727 -307q26 -11 33.5 -31t7.5 -57z " />
<glyph unicode="?" horiz-adv-x="885" d="M459 86q0 -43 -29.5 -72.5t-73.5 -29.5q-43 0 -72.5 29.5t-29.5 72.5t29.5 72.5t72.5 29.5q44 0 73.5 -29.5t29.5 -72.5zM743 1030q0 -82 -19.5 -144.5t-59.5 -110t-100.5 -83t-141.5 -63.5v-209q0 -14 -2.5 -21t-7.5 -12q-7 -5 -18.5 -8.5t-39.5 -3.5t-38.5 3.5 t-16.5 8.5q-5 5 -7.5 12t-2.5 21v260q0 21 12 33q8 8 57 20q69 18 116.5 45.5t77 64t42 82t12.5 99.5q0 47 -16 90.5t-48 76.5t-79.5 53t-110.5 20q-55 0 -92 -8t-63 -17q-19 -6 -33 -13t-27 -7q-15 0 -24 9.5t-17 31.5q-5 14 -7.5 24.5t-2.5 18.5q0 9 8 20.5t39 22.5 q27 10 51 16.5t49 10.5t53.5 5.5t63.5 1.5q93 0 166 -26t123.5 -72.5t77 -110.5t26.5 -141z" />
<glyph unicode="@" horiz-adv-x="1591" d="M1020 694q-16 9 -32.5 17t-37 13t-45.5 8t-59 3q-47 0 -85.5 -13t-69 -35.5t-55 -52.5t-42.5 -65q-13 -23 -22.5 -51t-16 -56.5t-9.5 -55t-3 -46.5q0 -32 7.5 -64t26.5 -57.5t51.5 -41t82.5 -15.5t93.5 28t79 73t60.5 103t37 118zM1493 584q0 -88 -19 -161.5t-59 -152.5 q-28 -53 -66 -92.5t-81 -66t-88.5 -39.5t-87.5 -13q-50 0 -81 10.5t-49 27.5t-25 38.5t-9 42.5q-28 -28 -56.5 -50t-61 -37.5t-69.5 -23.5t-82 -8q-64 0 -112 23.5t-80.5 63t-49 92t-16.5 110.5q0 37 3.5 70t11.5 65.5t20.5 65t30.5 67.5q23 46 60.5 89.5t88.5 77 t114.5 53.5t139.5 20q58 0 104.5 -8t81 -18.5t56 -21.5t29.5 -17q11 -8 15 -19t-1 -33l-88 -434q-3 -15 -4.5 -25t-3.5 -18t-2 -13v-9q0 -21 7.5 -33.5t18 -18.5t22.5 -8t21 -2q46 0 89 31.5t76 86.5t53 129t20 159q0 106 -37 194.5t-106.5 152.5t-169 99t-224.5 35 q-151 0 -263 -53.5t-185.5 -140t-109.5 -195t-36 -219.5q0 -135 41 -247.5t119 -193.5t190.5 -126t256.5 -44q78 0 162 16t190 54q40 14 64.5 27t41.5 22q11 6 18 8t13 2q8 0 18.5 -5.5t24.5 -28.5q11 -17 15 -28t4 -19q0 -7 -3 -14.5t-16 -16.5q-12 -10 -35.5 -22.5 t-54.5 -26.5q-85 -39 -195.5 -67t-246.5 -28q-131 -1 -237 29t-188.5 82t-142.5 122.5t-98.5 153t-57 172t-18.5 179.5q0 95 23 186.5t67 173.5t107.5 150.5t144.5 118.5t178.5 78t208.5 28q158 0 282 -48t209.5 -130.5t130 -193.5t44.5 -236z" />
<glyph unicode="A" horiz-adv-x="1108" d="M547 1219l-228 -703h457zM1098 18q0 -9 -14.5 -17.5t-57.5 -8.5q-29 0 -45 3.5t-23 8.5q-10 8 -20 37l-121 352h-541l-118 -350q-9 -28 -21 -37q-6 -5 -20 -8.5t-43 -3.5q-37 0 -50.5 8.5t-13.5 17.5q0 7 1.5 15t6.5 22l447 1286q4 12 8.5 20t13.5 13t24 7.5t40 2.5 t40.5 -2.5t25 -7.5t14 -13t8.5 -20l451 -1288q5 -14 6.5 -22t1.5 -15z" />
<glyph unicode="B" horiz-adv-x="1190" d="M938 397q0 54 -14 104t-53 88.5t-107.5 61.5t-177.5 23h-281v-545h316q84 0 144 20.5t98.5 56.5t56.5 85t18 106zM872 1040q0 101 -66 152t-194 51h-307v-440h291q83 0 136.5 18t84.5 49.5t43 75t12 94.5zM1094 385q0 -85 -31 -156t-88 -122t-138.5 -79t-183.5 -28h-417 q-29 0 -41.5 4t-18.5 10q-12 13 -12 43v1258q0 31 12 43q6 6 18.5 10t41.5 4h382q201 0 302.5 -82t101.5 -233q0 -64 -13 -112.5t-36.5 -86t-56 -65t-72.5 -48.5q48 -14 93.5 -40t80 -68.5t55.5 -104.5t21 -147z" />
<glyph unicode="C" horiz-adv-x="1104" d="M1069 90q0 -14 -9.5 -22t-29.5 -19q-12 -7 -42 -20t-75.5 -26t-105 -22.5t-131.5 -9.5q-119 0 -224 47t-183.5 137.5t-124.5 223.5t-46 305t46.5 305.5t126.5 225t186.5 139t226.5 47.5q64 0 114 -6t90 -15.5t71 -22t57 -24.5q21 -11 31 -19t10 -22q0 -8 -5 -23t-16 -34 q-11 -20 -20.5 -31.5t-22.5 -11.5q-15 0 -38 13t-54 26q-32 12 -83.5 24.5t-133.5 12.5q-99 0 -178 -40t-134 -115t-84.5 -183.5t-29.5 -245.5t32.5 -244.5t90 -182t136.5 -114t171 -39.5q63 0 116.5 9t96.5 26q42 16 65.5 29.5t39.5 13.5q14 0 23 -9.5t20 -29.5 q11 -18 15.5 -31.5t4.5 -21.5z" />
<glyph unicode="D" horiz-adv-x="1309" d="M1051 690q0 131 -27 234t-82 174t-138 108t-194 37h-301v-1114h314q106 0 186.5 38.5t134 111t80.5 176.5t27 235zM1210 690q0 -167 -41.5 -296t-119 -216.5t-187 -132.5t-244.5 -45h-382q-29 0 -41.5 4t-18.5 10q-12 13 -12 43v1258q0 31 12 43q6 6 18.5 10t41.5 4h387 q133 0 241.5 -43.5t185.5 -129.5t118.5 -213.5t41.5 -295.5z" />
<glyph unicode="E" horiz-adv-x="1018" d="M983 94q0 -15 -2 -31t-4 -24q-5 -26 -16 -33q-5 -3 -11.5 -4.5t-17.5 -1.5h-696q-29 0 -41.5 4t-18.5 10q-12 13 -12 43v1258q0 31 12 43q6 6 18.5 10t41.5 4h706q11 0 16.5 -2.5t8.5 -5.5q3 -5 4.5 -10t1.5 -19q0 -15 -2 -31t-4 -24q-6 -25 -17 -33q-9 -6 -28 -6h-613 v-428h541q11 0 16 -2.5t8 -5.5q4 -5 5.5 -10t1.5 -19q0 -15 -2.5 -31t-4.5 -24q-5 -26 -16 -33q-9 -6 -29 -6h-520v-551h643q11 0 16.5 -2.5t8.5 -5.5q3 -5 4.5 -10t1.5 -19z" />
<glyph unicode="F" horiz-adv-x="963" d="M952 1335q0 -15 -2 -31t-4 -24q-6 -26 -16 -33q-9 -6 -29 -6h-592v-428h520q11 0 16.5 -2.5t8.5 -5.5q3 -5 4.5 -10t1.5 -19q0 -15 -2 -31t-4 -24q-5 -26 -16 -33q-5 -3 -11.5 -4.5t-17.5 -1.5h-500v-645q0 -14 -3 -21t-9 -12t-19 -8.5t-42 -3.5q-28 0 -42 3.5t-20 8.5 q-10 7 -10 33v1278q0 31 12 43q6 6 18.5 10t41.5 4h686q11 0 16 -2.5t8 -5.5q3 -5 4.5 -10t1.5 -19z" />
<glyph unicode="G" horiz-adv-x="1257" d="M1135 117q0 -32 -12 -48.5t-44 -31.5q-15 -7 -44.5 -18.5t-76 -22t-111 -18t-147.5 -7.5q-131 0 -241.5 47t-190.5 138t-125 224.5t-45 305.5t46 305.5t127.5 224.5t192.5 138t241 47q64 0 117.5 -6t96 -15.5t75.5 -21t57 -23.5q21 -11 31 -19t10 -22q0 -8 -4 -23.5 t-15 -35.5t-20.5 -30.5t-22.5 -10.5q-15 0 -38 11t-54 22l-36 12t-49.5 13.5t-65.5 11t-85 4.5q-108 0 -191 -40t-139 -116t-85 -184.5t-29 -245.5q0 -138 34.5 -246t95.5 -182.5t145 -114t182 -39.5q100 0 165 12.5t109 30.5v416h-266q-11 0 -16.5 2.5t-8.5 5.5 q-3 5 -4.5 10t-1.5 19q0 15 2 31t4 24q3 14 7.5 22t9.5 11q9 6 28 6h320q29 0 41 -4t18 -10q13 -13 13 -43v-516z" />
<glyph unicode="H" horiz-adv-x="1305" d="M1141 37q0 -14 -3 -21t-10 -12q-6 -5 -19 -8.5t-42 -3.5q-28 0 -41.5 3.5t-19.5 8.5q-7 5 -9 12t-2 21v643h-686v-643q0 -14 -3 -21t-9 -12t-19 -8.5t-42 -3.5q-28 0 -42 3.5t-20 8.5q-10 7 -10 33v1298q0 14 2 21t8 12t20 8.5t42 3.5q29 0 42 -3.5t19 -8.5t9 -12t3 -21 v-526h686v526q0 14 2 21t9 12q6 5 19.5 8.5t41.5 3.5q29 0 42 -3.5t19 -8.5q7 -5 10 -12t3 -21v-1298z" />
<glyph unicode="I" horiz-adv-x="473" d="M309 37q0 -14 -3 -21t-9 -12t-19 -8.5t-42 -3.5q-28 0 -42 3.5t-20 8.5q-10 7 -10 33v1298q0 14 2 21t8 12t20 8.5t42 3.5q29 0 42 -3.5t19 -8.5t9 -12t3 -21v-1298z" />
<glyph unicode="J" horiz-adv-x="907" d="M754 432q0 -112 -25 -203.5t-88 -154.5q-45 -45 -113.5 -74t-171.5 -29q-70 0 -124 10t-93 23.5t-63.5 28t-34.5 22.5q-12 10 -16.5 17.5t-4.5 13.5q0 5 2 16t19 37t26 32.5t17 6.5q6 0 12.5 -2t16.5 -8q6 -5 15.5 -11t23.5 -14q8 -5 23.5 -12.5t39 -15.5t55 -13.5 t72.5 -5.5q83 0 135 26t81 74t39.5 115.5t10.5 149.5v874q0 14 3 21t10 12q6 5 18.5 8.5t40.5 3.5q29 0 42 -3.5t19 -8.5q7 -5 10 -12t3 -21v-903z" />
<glyph unicode="K" horiz-adv-x="1120" d="M1120 18q0 -11 -8 -16q-6 -5 -27 -7.5t-59 -2.5q-45 0 -68 8t-40 25l-609 649v-637q0 -14 -3 -21t-9 -12t-19 -8.5t-42 -3.5q-28 0 -42 3.5t-20 8.5q-10 7 -10 33v1298q0 14 2 21t8 12t20 8.5t42 3.5q29 0 42 -3.5t19 -8.5t9 -12t3 -21v-577l572 588q19 19 43.5 26.5 t68.5 7.5q29 0 44.5 -1.5t23.5 -4.5q10 -5 10 -16q0 -8 -5 -17.5t-17 -21.5l-588 -594l641 -674q11 -11 14.5 -18.5t3.5 -14.5z" />
<glyph unicode="L" d="M954 94q0 -15 -2 -31t-4 -24q-5 -26 -16 -33q-9 -6 -29 -6h-667q-29 0 -41.5 4t-18.5 10q-12 13 -12 43v1278q0 14 2 21t8 12t20 8.5t42 3.5q29 0 42 -3.5t19 -8.5t9 -12t3 -21v-1204h615q11 0 16 -2.5t8 -5.5q3 -5 4.5 -10t1.5 -19z" />
<glyph unicode="M" horiz-adv-x="1485" d="M1321 37q0 -14 -3 -21t-9 -12q-7 -5 -19 -8.5t-41 -3.5q-28 0 -40.5 3.5t-18.5 8.5q-10 7 -10 33v1083l-336 -577q-10 -16 -19.5 -26t-17.5 -15q-5 -3 -20 -6.5t-46 -3.5t-45.5 3.5t-19.5 6.5q-8 5 -18 15t-19 26l-336 534v-1040q0 -14 -3 -21t-9 -12t-18.5 -8.5 t-41.5 -3.5q-27 0 -40 3.5t-19 8.5q-10 7 -10 33v1214l-41 60q-8 12 -13.5 21t-5.5 20q0 12 19 20t65 8q47 0 71 -6.5t38 -27.5l453 -705l421 709q11 17 27.5 23.5t48.5 6.5q31 0 44 -3.5t20 -8.5q6 -5 9 -12t3 -21v-1298z" />
<glyph unicode="N" horiz-adv-x="1239" d="M1075 37q0 -14 -3 -21t-9 -12t-20.5 -8.5t-43.5 -3.5q-32 0 -47.5 9.5t-27.5 29.5l-629 1040v-1034q0 -14 -3 -21t-9 -12q-7 -5 -19 -8.5t-41 -3.5q-28 0 -39.5 3.5t-17.5 8.5q-10 7 -10 33v1218l-35 56q-8 12 -13.5 21t-5.5 20q0 12 15 20t61 8t66.5 -6.5t34.5 -27.5 l657 -1088v1077q0 14 2 21t8 12t19 8.5t41 3.5q29 0 40 -3.5t17 -8.5t9 -12t3 -21v-1298z" />
<glyph unicode="O" horiz-adv-x="1354" d="M1096 684q0 136 -28 245.5t-82 186t-131.5 117.5t-176.5 41q-100 0 -178 -41t-132 -117.5t-82 -186t-28 -245.5t28 -244.5t82 -184.5t132 -116.5t178 -40.5q99 0 176.5 40.5t131.5 116.5t82 184.5t28 244.5zM1255 684q0 -172 -43 -305t-120 -223.5t-183 -137.5t-231 -47 q-126 0 -232.5 47t-183.5 137.5t-120.5 223.5t-43.5 305t43.5 305.5t120.5 225t183.5 139t232.5 47.5q125 0 231 -47.5t183 -139t120 -225t43 -305.5z" />
<glyph unicode="P" horiz-adv-x="1096" d="M874 999q0 125 -83.5 186.5t-241.5 61.5h-244v-524q47 -3 107 -4.5t129 -1.5q83 0 145.5 19.5t104 56t62.5 89t21 117.5zM1030 1001q0 -84 -26.5 -158.5t-84.5 -130t-149 -88t-221 -32.5q-68 0 -129.5 2t-114.5 4v-561q0 -14 -3 -21t-9 -12t-18.5 -8.5t-41.5 -3.5 q-27 0 -40 3.5t-19 8.5q-10 7 -10 33v1278q0 31 12 43q6 6 18.5 10t41.5 4h321q230 0 351.5 -93.5t121.5 -277.5z" />
<glyph unicode="Q" horiz-adv-x="1354" d="M1096 684q0 136 -28 245.5t-82 186t-131.5 117.5t-176.5 41q-100 0 -178 -41t-132 -117.5t-82 -186t-28 -245.5t28 -244.5t82 -184.5t132 -116.5t178 -40.5q99 0 176.5 40.5t131.5 116.5t82 184.5t28 244.5zM1255 684q0 -134 -27 -245t-76.5 -196.5t-119 -145.5 t-155.5 -91l294 -242q16 -12 20.5 -20t4.5 -14q0 -10 -5.5 -15t-14.5 -8q-10 -3 -25.5 -4.5t-46.5 -1.5q-45 0 -73 7t-48 26l-264 239q-6 -2 -18 -2h-23q-126 0 -232.5 47t-183.5 137.5t-120.5 223.5t-43.5 305t43.5 305.5t120.5 225t183.5 139t232.5 47.5q125 0 231 -47.5 t183 -139t120 -225t43 -305.5z" />
<glyph unicode="R" horiz-adv-x="1139" d="M866 989q0 123 -72.5 190.5t-232.5 67.5h-256v-522q45 -2 104 -5t119 -3q91 0 155 18.5t104.5 53t59.5 85t19 115.5zM1108 23q0 -7 -2 -11.5t-10 -9.5q-7 -3 -23.5 -6.5t-54.5 -3.5q-23 0 -37.5 1.5t-24.5 5.5t-16.5 11t-13.5 17l-371 565q-78 0 -138.5 1.5t-111.5 4.5 v-561q0 -14 -3 -21t-9 -12t-18.5 -8.5t-41.5 -3.5q-27 0 -40 3.5t-19 8.5q-10 7 -10 33v1278q0 31 12 43q6 6 18.5 10t41.5 4h333q118 0 203.5 -24.5t141 -72t82 -116.5t26.5 -158q0 -70 -16 -130.5t-52.5 -110.5t-96 -88.5t-146.5 -63.5l387 -561q6 -9 8 -14t2 -10z" />
<glyph unicode="S" horiz-adv-x="1057" d="M983 377q0 -101 -31.5 -177t-92.5 -127t-149 -76.5t-202 -25.5q-75 0 -138.5 11t-113.5 27t-87 34t-60 33q-29 18 -37.5 28t-8.5 19q0 11 6.5 25.5t18.5 35.5q11 20 19.5 28.5t17.5 8.5q6 0 14.5 -2.5t22.5 -11.5q37 -23 73.5 -42t77.5 -32t88 -20t105 -7q64 0 123 13.5 t103 42.5t70.5 75.5t26.5 112.5q0 57 -17 98.5t-52 73t-89.5 55.5t-129.5 46l-99 28q-68 20 -132.5 47t-115 68t-81.5 101.5t-31 148.5t29.5 159t86 121.5t138.5 77.5t186 27q83 0 138 -10.5t94 -20.5q32 -9 57 -18t45 -19q31 -14 37 -24.5t6 -16.5q0 -8 -4 -24t-12 -31 q-11 -22 -19.5 -30.5t-17.5 -8.5t-19 3.5t-18 6.5q-5 2 -18.5 8.5t-31.5 13.5t-38 14t-37 11q-28 7 -65.5 13t-96.5 6q-73 0 -128.5 -18t-93 -50t-56.5 -76.5t-19 -97.5t21.5 -91.5t59.5 -67t91.5 -49.5t118.5 -40l113 -32q83 -25 150 -56t114 -78q45 -45 67.5 -102.5 t22.5 -138.5z" />
<glyph unicode="T" horiz-adv-x="1057" d="M1047 1337q0 -9 -2 -26t-5 -29q-6 -23 -16 -29q-9 -6 -29 -6h-391v-1210q0 -14 -3 -21t-9 -12t-19.5 -8.5t-42.5 -3.5q-27 0 -41 3.5t-20 8.5q-10 7 -10 33v1210h-418q-11 0 -16.5 2.5t-8.5 5.5q-3 4 -4.5 9.5t-1.5 17.5q0 9 1.5 26t4.5 29q3 11 7.5 18.5t9.5 10.5 q9 6 28 6h955q11 0 16 -2.5t8 -5.5t5 -8.5t2 -18.5z" />
<glyph unicode="U" horiz-adv-x="1286" d="M1133 422q0 -98 -26 -181t-84.5 -143t-152 -93.5t-227.5 -33.5t-227.5 33.5t-151.5 93.5t-84 143t-26 181v913q0 14 2 21t8 12t19.5 8.5t41.5 3.5q29 0 42.5 -3.5t19.5 -8.5t9 -12t3 -21v-915q0 -154 84.5 -235t259.5 -81t259.5 81t84.5 235v915q0 14 2 21t8 12 q7 5 20.5 8.5t41.5 3.5q29 0 42 -3.5t19 -8.5t9.5 -12t3.5 -21v-913z" />
<glyph unicode="V" horiz-adv-x="1108" d="M1098 1352q0 -7 -1.5 -14t-6.5 -21l-447 -1286q-4 -12 -8.5 -20t-13.5 -13t-24 -7.5t-40 -2.5q-26 0 -41.5 2.5t-24.5 7.5t-13.5 13t-8.5 20l-451 1288q-5 14 -6.5 21.5t-1.5 13.5q0 9 13.5 18.5t54.5 9.5q31 0 47 -3.5t22 -8.5q12 -8 21 -37l391 -1143l389 1141 q9 28 21 37q6 5 20 8.5t43 3.5q37 0 51.5 -9.5t14.5 -18.5z" />
<glyph unicode="W" horiz-adv-x="1575" d="M1565 1352q0 -7 -2 -16.5t-7 -26.5l-342 -1280q-3 -12 -7.5 -20t-13.5 -13t-24.5 -7.5t-40.5 -2.5t-40.5 2.5t-25 7.5t-14.5 13t-8 20l-247 886l-248 -886q-3 -12 -7.5 -20t-14 -13t-25 -7.5t-39.5 -2.5q-26 0 -41.5 2.5t-25 7.5t-14 13t-7.5 20l-353 1280q-3 12 -5.5 23 t-2.5 18q0 12 13.5 21t54.5 9q31 0 45 -3.5t20 -8.5q15 -10 21 -37l301 -1136l264 950l-43 155q-5 19 -7.5 30t-2.5 18q0 12 13 22t54 10q31 0 45.5 -3.5t20.5 -8.5t11.5 -14.5t10.5 -28.5l299 -1130l285 1138q6 27 21 37q6 5 20 7.5t43 2.5q37 0 51.5 -7t14.5 -21z" />
<glyph unicode="X" horiz-adv-x="1065" d="M1044 18q0 -11 -10 -18q-6 -3 -21 -5.5t-44 -2.5q-35 0 -55 5.5t-31 22.5l-355 562l-360 -562q-5 -8 -11.5 -13.5t-15.5 -8.5t-21 -4.5t-30 -1.5q-25 0 -39.5 2.5t-19.5 5.5q-6 3 -8.5 8t-2.5 8q0 5 1.5 11.5t11.5 21.5l420 647l-390 613q-11 17 -15.5 26t-4.5 19 q0 11 10 18q6 3 20.5 5.5t43.5 2.5q35 0 53 -5.5t29 -22.5l338 -533l344 533q10 16 25 22t50 6q25 0 39 -2.5t19 -5.5q6 -3 8 -8t2 -8q0 -5 -1.5 -11.5t-10.5 -21.5l-400 -616l412 -644q11 -17 15.5 -26t4.5 -19z" />
<glyph unicode="Y" horiz-adv-x="1059" d="M1049 1356q0 -5 -1.5 -11.5t-11.5 -21.5l-438 -733v-553q0 -14 -3 -21t-9 -12t-19.5 -8.5t-42.5 -3.5q-28 0 -41.5 3.5t-19.5 8.5q-10 7 -10 33v553l-420 719q-11 17 -17 26t-6 19q0 11 10 18q7 3 20 5.5t42 2.5q35 0 51 -5.5t27 -22.5l372 -631l373 631q11 17 26 22.5 t50 5.5q25 0 38.5 -2.5t18.5 -5.5q7 -3 9 -8t2 -8z" />
<glyph unicode="Z" horiz-adv-x="958" d="M938 94q0 -15 -2 -31t-4 -24q-6 -26 -17 -33q-9 -6 -28 -6h-815q-14 0 -23 3.5t-14 8.5q-10 10 -10 54q0 29 6.5 47t21.5 43l697 1085h-684q-11 0 -16.5 2.5t-8.5 5.5q-3 5 -4.5 10t-1.5 19q0 15 2 31t4 24q5 26 16 33q9 6 29 6h784q14 0 23 -3.5t14 -8.5t8 -17.5 t3 -35.5q0 -29 -7 -47.5t-22 -42.5l-696 -1086h714q11 0 16.5 -2.5t8.5 -5.5q3 -5 4.5 -10t1.5 -19z" />
<glyph unicode="[" horiz-adv-x="565" d="M524 -336q0 -25 -2.5 -34t-7.5 -15q-8 -8 -31 -8h-247q-29 0 -41.5 4t-18.5 10q-12 12 -12 43v1651q0 31 12 43q6 6 18.5 10t41.5 4h247q23 0 31 -8q5 -6 7.5 -15t2.5 -34t-2.5 -34t-7.5 -15q-5 -5 -11.5 -7t-19.5 -2h-186v-1536h186q23 0 31 -8q5 -6 7.5 -15t2.5 -34z " />
<glyph unicode="\" horiz-adv-x="602" d="M592 25q0 -11 -10 -18t-45 -7q-31 0 -45.5 3.5t-22.5 25.5l-449 1278q-3 9 -6.5 21t-3.5 20q0 11 10 17.5t46 6.5q30 0 44.5 -3.5t22.5 -25.5l449 -1277q3 -10 6.5 -21.5t3.5 -19.5z" />
<glyph unicode="]" horiz-adv-x="565" d="M401 -354q0 -13 -0.5 -18.5t-5.5 -10.5q-1 -1 -3.5 -2.5t-9 -3t-18.5 -3t-32 -1.5h-258q-10 0 -16 -0.5t-9 4.5q-2 3 -5 13t-3 36q0 25 3 35t5 12q3 5 9 4.5t16 -0.5h194v1557h-194q-10 0 -16 -0.5t-9 4.5q-2 2 -5 12t-3 35q0 26 3 36t5 13q3 5 9 4.5t16 -0.5h258 q20 0 32 -1.5t18.5 -3t9 -3t3.5 -2.5q5 -5 5.5 -10.5t0.5 -18.5v-1687z" />
<glyph unicode="^" horiz-adv-x="948" d="M815 573q0 -9 -10.5 -16.5t-48.5 -7.5t-52.5 6.5t-21.5 28.5l-205 524l-209 -524q-5 -11 -9.5 -18t-12.5 -10.5t-20 -5t-31 -1.5q-39 0 -49.5 7.5t-10.5 16.5q0 10 3 18.5t9 22.5l250 617q11 26 30.5 32.5t47.5 6.5t47.5 -6.5t30.5 -32.5l250 -617q6 -14 9 -22.5t3 -18.5 z" />
<glyph unicode="_" horiz-adv-x="1024" d="M0 -340v102h1024v-102h-1024z" />
<glyph unicode="`" horiz-adv-x="1024" d="M674 1034q0 -11 -10.5 -16.5t-42.5 -5.5q-25 0 -36.5 2.5t-19.5 7.5q-8 6 -15 14.5t-13 16.5l-148 200q-20 28 -30.5 43.5t-10.5 26.5q0 14 15 21.5t53 7.5t64 -7t40 -32l135 -234q8 -14 13.5 -25.5t5.5 -19.5z" />
<glyph unicode="a" horiz-adv-x="891" d="M633 461l-227 -23q-106 -11 -158.5 -53.5t-52.5 -130.5q0 -44 12.5 -75.5t34 -51.5t50.5 -29.5t62 -9.5q34 0 81.5 10t91.5 40.5t75 86t31 146.5v90zM795 31q0 -13 -13.5 -21.5t-25.5 -13.5q-13 -5 -25.5 -7.5t-28.5 -2.5q-11 0 -17.5 4.5t-12.5 13.5q-6 11 -11 22.5 t-10 26.5q-5 16 -8 26t-6 25q-60 -66 -131.5 -95t-165.5 -29q-55 0 -106 15t-90 47t-62 82.5t-23 121.5q0 73 21.5 125.5t62.5 88.5t101 56t137 27l252 22v31q0 47 -12.5 85t-39.5 65t-68.5 42t-98.5 15q-76 0 -132.5 -19t-101.5 -45q-11 -6 -17.5 -9t-19.5 -3 q-11 0 -20.5 11t-16.5 28q-8 15 -10 24t-2 17q0 9 9 18.5t34 22.5q29 15 58.5 27t63.5 20.5t73.5 13t89.5 4.5q179 0 264 -92q40 -42 60 -104t20 -158v-389q0 -40 7.5 -68t12.5 -41q4 -8 6.5 -16t2.5 -14z" />
<glyph unicode="b" horiz-adv-x="1018" d="M793 455q0 67 -15 129t-47.5 109.5t-84 75.5t-124.5 28q-70 0 -120.5 -31t-83.5 -80t-48.5 -110t-15.5 -121q0 -72 15.5 -137.5t48.5 -114.5t83 -78t119 -29q72 0 123.5 29t84.5 78.5t49 114.5t16 137zM934 461q0 -111 -28 -200t-79 -151.5t-122 -96t-158 -33.5 q-58 0 -102.5 11t-79.5 30.5t-62 46.5t-49 59v-90q0 -14 -2.5 -21t-7.5 -12t-15.5 -8.5t-38.5 -3.5q-27 0 -35.5 3.5t-13.5 8.5t-7.5 12t-2.5 21v1280q0 29 12 41q5 5 16.5 8t26.5 8q16 3 26 4.5t19 1.5q19 0 25 -6q5 -5 6.5 -10.5t1.5 -17.5v-578q48 72 122 108.5t167 36.5 t164 -33t119.5 -93t73 -143t24.5 -183z" />
<glyph unicode="c" horiz-adv-x="786" d="M752 86q0 -11 -9.5 -20.5t-40.5 -26.5q-41 -23 -95 -41t-130 -18q-81 0 -152.5 27.5t-125 85t-84.5 145.5t-31 208q0 102 29 188t81.5 148t127 96.5t165.5 34.5q34 0 60.5 -3t48.5 -7.5t40 -10.5t36 -13q23 -9 37 -17t21.5 -15t10 -12.5t2.5 -11.5q0 -9 -4.5 -22 t-9.5 -27q-8 -15 -16.5 -27t-24.5 -12q-12 0 -25.5 6.5t-31.5 16.5q-15 7 -30.5 13t-32.5 11t-38 8t-47 3q-59 0 -107 -27t-82.5 -73.5t-53.5 -110t-19 -136.5q0 -75 18 -138t51 -108t81 -70.5t108 -25.5q50 0 82 9.5t60 23.5q21 11 37.5 21t31.5 10q16 0 24.5 -11.5 t16.5 -25.5q8 -11 14.5 -22.5t6.5 -22.5z" />
<glyph unicode="d" horiz-adv-x="1018" d="M764 455q0 60 -15.5 121t-48.5 110t-83.5 80t-120.5 31q-73 0 -124.5 -28t-84 -75.5t-47.5 -109.5t-15 -129q0 -72 16 -137t49 -114.5t84.5 -78.5t123.5 -29q69 0 119 29t83 78t48.5 114.5t15.5 137.5zM887 37q0 -14 -2.5 -21t-7.5 -12t-13.5 -8.5t-36.5 -3.5 q-27 0 -37.5 3.5t-15.5 8.5t-7.5 12t-2.5 21v90q-22 -32 -49 -59t-62 -46.5t-79.5 -30.5t-102.5 -11q-87 0 -158 33t-122 93.5t-79 146t-28 191.5q0 105 25.5 191t74 148t120.5 96t165 34t165 -34.5t120 -102.5v541q0 29 12 41q5 5 16 8t27 8q15 3 25.5 4.5t19.5 1.5 q17 0 25 -6q5 -5 6.5 -10.5t1.5 -17.5v-1309z" />
<glyph unicode="e" horiz-adv-x="930" d="M707 522q-3 66 -20.5 118.5t-48 89t-73 56t-94.5 19.5q-106 0 -168.5 -74.5t-81.5 -208.5h486zM852 469q0 -55 -70 -55h-561q4 -70 26.5 -126.5t59 -96t85 -61t106.5 -21.5q53 0 86.5 5.5t68.5 16.5q26 9 51.5 22t40.5 13q13 0 22 -9.5t17 -25.5q8 -15 13.5 -26.5 t5.5 -20.5q0 -11 -7 -20.5t-38 -26.5q-44 -22 -108.5 -39.5t-155.5 -17.5q-92 0 -167.5 33t-129.5 94t-83.5 147.5t-29.5 194.5q0 106 29 192t80.5 146.5t123.5 93t158 32.5q89 0 159 -30.5t118.5 -88t74 -140t25.5 -185.5z" />
<glyph unicode="f" horiz-adv-x="606" d="M705 1311q0 -8 -1.5 -17.5t-9.5 -29.5q-9 -22 -17 -28.5t-18 -6.5q-11 0 -27 5.5t-32 10.5q-19 6 -45.5 12.5t-58.5 6.5q-58 0 -93.5 -19t-55.5 -51t-27 -73t-7 -85v-143h250q17 0 23 -6t6 -23q0 -8 -1.5 -22t-4.5 -25t-7.5 -20.5t-9.5 -12.5t-9 -4.5t-15 -1.5h-232v-741 q0 -14 -2.5 -21t-7.5 -12q-6 -5 -17.5 -8.5t-39.5 -3.5t-38.5 3.5t-17.5 8.5q-5 5 -7.5 12t-2.5 21v741h-131q-16 0 -22 6q-7 7 -7 23q0 8 2 22t5 25q3 9 7 19.5t9 13.5t9.5 4.5t15.5 1.5h112v158q0 72 18 132.5t54.5 104t93 68t133.5 24.5q56 0 98 -8t74 -20 q34 -13 44 -22.5t10 -18.5z" />
<glyph unicode="g" horiz-adv-x="895" d="M737 -145q0 35 -12.5 60.5t-35.5 42.5t-54.5 28t-69.5 18l-176 33q-3 1 -10.5 2t-15.5 2.5t-16.5 2.5t-12.5 3q-26 -12 -51.5 -28.5t-45.5 -38.5t-32 -49.5t-12 -59.5q0 -46 23 -79t61.5 -54t88 -31t103.5 -10q51 0 99.5 8.5t86 27.5t60 49t22.5 73zM672 608 q0 42 -14.5 77.5t-43 61t-70 40t-95.5 14.5q-55 0 -97.5 -14t-72 -39.5t-45 -61t-15.5 -78.5q0 -42 15 -77t44 -60t71.5 -39t96.5 -14q53 0 95 14t71 39.5t44.5 60.5t15.5 76zM899 903q0 -16 -16 -26q-19 -10 -38 -19t-34 -20t-33 -24t-35 -30q26 -35 42 -79t16 -97 q0 -62 -25.5 -115t-71.5 -91.5t-110.5 -60.5t-142.5 -22q-25 0 -53 4t-50 9q-28 -10 -51 -32.5t-23 -53.5q0 -17 7 -31t24 -25.5t45.5 -21t71.5 -16.5l143 -25q81 -14 140.5 -35.5t98.5 -52.5t58 -73t19 -97q0 -66 -29 -117t-83.5 -86.5t-132.5 -53.5t-175 -18 q-98 0 -172.5 20t-124.5 54.5t-75.5 81t-25.5 100.5q0 86 44.5 141t125.5 95q-45 25 -67.5 59t-22.5 74q0 38 24.5 77.5t78.5 63.5q-34 18 -62.5 42.5t-49.5 55t-32.5 68t-11.5 82.5q0 62 24.5 115.5t70.5 92.5t112 61t149 22q70 0 123 -13.5t97 -39.5q12 17 29 34.5 t35.5 34t37 29.5t33.5 21l20 10t19 4q9 0 18.5 -6t20.5 -23q20 -31 20 -47z" />
<glyph unicode="h" horiz-adv-x="999" d="M874 37q0 -14 -2.5 -21t-7.5 -12q-6 -5 -17.5 -8.5t-39.5 -3.5t-38.5 3.5t-16.5 8.5q-5 5 -8 12t-3 21v522q0 122 -53.5 181t-163.5 59q-54 0 -101 -22.5t-82.5 -60t-56 -87t-20.5 -103.5v-489q0 -14 -2.5 -21t-7.5 -12q-6 -5 -18 -8.5t-39 -3.5q-28 0 -38.5 3.5 t-17.5 8.5q-5 5 -7.5 12t-2.5 21v1280q0 29 12 41q5 5 16.5 8t26.5 8q16 3 26 4.5t19 1.5q19 0 25 -6q5 -5 6.5 -10.5t1.5 -17.5v-578q42 63 118 104t175 41q82 0 142 -24.5t99 -68.5t57.5 -104.5t18.5 -133.5v-545z" />
<glyph unicode="i" horiz-adv-x="395" d="M264 37q0 -14 -2.5 -21t-7.5 -12q-6 -5 -18 -8.5t-39 -3.5q-28 0 -38.5 3.5t-17.5 8.5q-5 5 -7.5 12t-2.5 21v805q0 15 3 24.5t9 16.5q5 5 16.5 8t26.5 8q16 3 26 4.5t19 1.5q19 0 25 -6q5 -5 6.5 -10.5t1.5 -18.5v-833zM287 1229q0 -18 -7 -34.5t-19 -29t-28 -19.5 t-34 -7t-34 7t-28 19t-19 28.5t-7 35.5q0 18 7 35t18.5 29.5t27 20t33.5 7.5t34 -7t28.5 -19.5t20 -29.5t7.5 -36z" />
<glyph unicode="j" horiz-adv-x="395" d="M264 -41q0 -44 -2 -77.5t-7 -60.5t-12.5 -50t-19.5 -47q-28 -57 -89 -93.5t-144 -36.5q-37 0 -63.5 3t-44.5 7.5t-29.5 9.5t-18.5 9q-8 5 -13 10t-5 15q0 16 8 39q5 14 13 28.5t24 14.5q12 0 22.5 -3.5t24.5 -7.5q12 -3 29 -5.5t38 -2.5q11 0 26 2t31 8t32 17t28 29 q19 26 29 68t10 116v891q0 15 3 24.5t9 16.5q5 5 16.5 8t26.5 8q16 3 26 4.5t19 1.5q19 0 25 -6q5 -5 6.5 -10.5t1.5 -18.5v-911zM287 1229q0 -18 -7 -34.5t-19 -29t-28 -19.5t-34 -7t-34 7t-28 19t-19 28.5t-7 35.5q0 18 7 35t18.5 29.5t27 20t33.5 7.5t34 -7t28.5 -19.5 t20 -29.5t7.5 -36z" />
<glyph unicode="k" horiz-adv-x="872" d="M872 18q0 -9 -10 -16q-4 -2 -9 -3.5t-14 -2.5t-23 -1.5t-36 -0.5q-40 0 -58 8.5t-32 22.5l-426 440v-428q0 -14 -2.5 -21t-7.5 -12q-6 -5 -18 -8.5t-39 -3.5q-28 0 -38.5 3.5t-17.5 8.5q-5 5 -7.5 12t-2.5 21v1280q0 29 12 41q5 5 16.5 8t26.5 8q16 3 26 4.5t19 1.5 q19 0 25 -6q5 -5 6.5 -10.5t1.5 -17.5v-809l379 335q8 7 15 12.5t16.5 9t24 5.5t36.5 2q34 0 46.5 -2.5t17.5 -5.5q8 -5 8 -14q0 -7 -4.5 -16t-20.5 -23l-381 -338l447 -447q15 -15 19.5 -22.5t4.5 -14.5z" />
<glyph unicode="l" horiz-adv-x="395" d="M264 37q0 -14 -2.5 -21t-7.5 -12q-6 -5 -18 -8.5t-39 -3.5q-28 0 -38.5 3.5t-17.5 8.5q-5 5 -7.5 12t-2.5 21v1280q0 29 12 41q5 5 16.5 8t26.5 8q16 3 26 4.5t19 1.5q19 0 25 -6q5 -5 6.5 -10.5t1.5 -17.5v-1309z" />
<glyph unicode="m" horiz-adv-x="1511" d="M1386 37q0 -14 -2.5 -21t-7.5 -12q-6 -5 -17.5 -8.5t-39.5 -3.5t-38.5 3.5t-16.5 8.5q-5 5 -8 12t-3 21v532q0 55 -10 97.5t-32.5 72t-58.5 45t-89 15.5q-49 0 -92.5 -23t-75.5 -60.5t-51 -85t-19 -95.5v-498q0 -14 -2.5 -21t-7.5 -12q-6 -5 -17.5 -8.5t-39.5 -3.5 t-38.5 3.5t-17.5 8.5q-5 5 -7.5 12t-2.5 21v532q0 55 -10 97.5t-32.5 72t-59 45t-88.5 15.5q-51 0 -94.5 -23t-75.5 -60.5t-50 -85t-18 -95.5v-498q0 -14 -2.5 -21t-7.5 -12q-6 -5 -18 -8.5t-39 -3.5q-28 0 -38.5 3.5t-17.5 8.5q-5 5 -7.5 12t-2.5 21v805q0 15 3 23.5 t9 15.5q5 5 16.5 9t26.5 9q16 3 26 4.5t19 1.5q19 0 25 -6q5 -5 6.5 -10.5t1.5 -18.5v-98q40 62 108.5 101.5t157.5 39.5q104 0 168.5 -44.5t96.5 -123.5q51 82 129 125t166 43q81 0 137 -24.5t91.5 -67t51.5 -101t16 -126.5v-557z" />
<glyph unicode="n" horiz-adv-x="999" d="M874 37q0 -14 -2.5 -21t-7.5 -12q-6 -5 -17.5 -8.5t-39.5 -3.5t-38.5 3.5t-16.5 8.5q-5 5 -8 12t-3 21v522q0 122 -53.5 181t-163.5 59q-54 0 -101 -22.5t-82.5 -60t-56 -87t-20.5 -103.5v-489q0 -14 -2.5 -21t-7.5 -12q-6 -5 -18 -8.5t-39 -3.5q-28 0 -38.5 3.5 t-17.5 8.5q-5 5 -7.5 12t-2.5 21v805q0 15 3 24.5t9 16.5q5 5 16.5 8t26.5 8q16 3 26 4.5t19 1.5q19 0 25 -6q5 -5 6.5 -10.5t1.5 -18.5v-102q42 63 118 104t175 41q82 0 142 -24.5t99 -68.5t57.5 -104.5t18.5 -133.5v-545z" />
<glyph unicode="o" horiz-adv-x="997" d="M776 446q0 72 -18 136t-53 112t-87 76.5t-120 28.5t-119.5 -28.5t-86.5 -76.5t-53 -112t-18 -136q0 -71 18 -135t53 -112t86.5 -76.5t119.5 -28.5t120 28.5t87 76.5t53 112t18 135zM913 446q0 -106 -31 -192t-86.5 -147t-131.5 -94t-166 -33q-89 0 -165 33t-131.5 94 t-86.5 147t-31 192t31 192.5t86.5 147.5t131.5 94t165 33q90 0 166 -33t131.5 -94t86.5 -147.5t31 -192.5z" />
<glyph unicode="p" horiz-adv-x="1018" d="M793 455q0 67 -15 129t-47.5 109.5t-84 75.5t-124.5 28q-70 0 -120.5 -31t-83.5 -80t-48.5 -110t-15.5 -121q0 -72 15.5 -137.5t48.5 -114.5t83 -78t119 -29q72 0 123.5 29t84.5 78.5t49 114.5t16 137zM934 461q0 -111 -28 -200t-79 -151.5t-122 -96t-158 -33.5 q-55 0 -97.5 9.5t-76.5 26.5t-60.5 41.5t-48.5 53.5v-459q0 -14 -2.5 -21t-7.5 -12q-6 -5 -18 -8.5t-39 -3.5q-28 0 -38.5 3.5t-17.5 8.5q-5 5 -7.5 12t-2.5 21v1190q0 15 3 24.5t9 16.5q5 5 16.5 8t26.5 8q16 3 26 4.5t19 1.5q19 0 25 -6q5 -5 6.5 -10.5t1.5 -18.5v-102 q48 72 122 108.5t167 36.5t164 -33t119.5 -93t73 -143t24.5 -183z" />
<glyph unicode="q" horiz-adv-x="1018" d="M764 455q0 60 -15.5 121t-48.5 110t-83.5 80t-120.5 31q-73 0 -124.5 -28t-84 -75.5t-47.5 -109.5t-15 -129q0 -72 16 -137t49 -114.5t84.5 -78.5t123.5 -29q69 0 119 29t83 78t48.5 114.5t15.5 137.5zM887 -348q0 -14 -2.5 -21t-7.5 -12q-7 -5 -18.5 -8.5t-39.5 -3.5 t-38.5 3.5t-16.5 8.5q-5 5 -7.5 12t-2.5 21v459q-23 -29 -49.5 -53.5t-61 -41.5t-77.5 -26.5t-97 -9.5q-87 0 -158 33t-121.5 93.5t-78 146t-27.5 191.5q0 105 25.5 191t74 148t120.5 96t165 34q97 0 169 -34.5t116 -96.5v74q0 14 2.5 21t7.5 12q6 5 16.5 8.5t38.5 3.5 t39.5 -3.5t18.5 -8.5q5 -5 7.5 -12t2.5 -21v-1204z" />
<glyph unicode="r" horiz-adv-x="657" d="M657 844q0 -10 -3 -23.5t-9 -27.5q-8 -17 -17 -29t-22 -12q-11 0 -23 5.5t-24 10.5t-30.5 9.5t-47.5 4.5q-43 0 -82 -26t-69 -71t-48 -105.5t-18 -128.5v-414q0 -14 -2.5 -21t-7.5 -12q-6 -5 -18 -8.5t-39 -3.5q-28 0 -38.5 3.5t-17.5 8.5q-5 5 -7.5 12t-2.5 21v805 q0 15 3 24.5t9 16.5q5 5 16.5 8t26.5 8q16 3 26 4.5t19 1.5q19 0 25 -6q5 -5 6.5 -10.5t1.5 -18.5v-122q2 5 11 18.5t23.5 31t35 36.5t47 35t59 26t70.5 10q28 0 53.5 -5.5t46.5 -14.5q22 -10 34.5 -19.5t12.5 -21.5z" />
<glyph unicode="s" horiz-adv-x="776" d="M729 248q0 -64 -24.5 -113.5t-69 -84t-107 -52.5t-139.5 -18q-61 0 -109 7.5t-85 17.5t-62.5 21t-40.5 19q-28 14 -36.5 24t-8.5 19t2 17.5t10 23.5q10 17 19 28t24 11q16 0 35 -9.5t37 -17.5q12 -5 32 -12.5t47 -15.5t60.5 -13.5t71.5 -5.5q40 0 77.5 6.5t66 23t46 43.5 t17.5 69q0 35 -12 60.5t-36 43.5t-59.5 30.5t-83.5 22.5l-79 17q-53 10 -100 28t-83 46.5t-57 69t-21 97.5q0 61 23 109.5t65 82.5t101 52t131 18t128.5 -10.5t113.5 -32.5q29 -11 40 -19.5t11 -19.5q0 -8 -2 -18.5t-8 -26.5q-5 -11 -12.5 -23.5t-24.5 -12.5q-16 0 -35 8 t-47 16q-25 8 -69 18.5t-103 10.5q-40 0 -73.5 -8.5t-58 -26t-38 -43.5t-13.5 -61q0 -32 14 -54.5t38.5 -39t57.5 -27.5t71 -19l86 -18q60 -13 110 -31t86 -47t56 -72.5t20 -107.5z" />
<glyph unicode="t" horiz-adv-x="637" d="M627 61q0 -15 -14 -25t-29 -18q-23 -12 -65 -25t-105 -13q-59 0 -102.5 16t-67.5 39q-34 31 -49 80.5t-15 130.5v532h-131q-16 0 -22 6q-7 7 -7 23q0 8 2 22t5 25q3 9 7 19.5t9 13.5t9.5 4.5t15.5 1.5h112v231q0 29 13 41q5 5 16 8.5t27 8.5q15 3 25 4.5t20 1.5 q8 0 14.5 -1.5t9.5 -4.5q5 -5 6.5 -11t1.5 -18v-260h248q17 0 23 -6t6 -23q0 -8 -1.5 -22t-4.5 -25t-7.5 -20.5t-9.5 -12.5t-9 -4.5t-15 -1.5h-230v-547q0 -63 29 -99t86 -36q42 0 68 9t43 18q14 8 21 11t15 3t17 -6.5t20 -26.5q10 -17 12.5 -25t2.5 -18z" />
<glyph unicode="u" horiz-adv-x="999" d="M868 37q0 -14 -2.5 -21t-7.5 -12t-13 -8.5t-36 -3.5t-38 3.5t-15 8.5t-8 12t-3 21v98q-54 -77 -130.5 -116t-172.5 -39q-82 0 -142 24.5t-99 68.5t-57.5 104.5t-18.5 133.5v545q0 14 2.5 21t7.5 12q6 5 18 8.5t40 3.5q27 0 38 -3.5t17 -8.5q5 -5 7.5 -12t2.5 -21v-522 q0 -122 54 -181t163 -59q54 0 101 22.5t82.5 60t56 87t20.5 103.5v489q0 14 2.5 21t7.5 12q7 5 18.5 8.5t39.5 3.5t38.5 -3.5t16.5 -8.5q5 -5 7.5 -12t2.5 -21v-819z" />
<glyph unicode="v" horiz-adv-x="827" d="M817 872q0 -6 -4 -18.5t-12 -32.5l-309 -798q-8 -22 -27.5 -27.5t-50.5 -5.5t-48.5 5t-25.5 25l-320 818q-3 6 -6.5 17t-3.5 17q0 13 13 21t51 8q32 0 46.5 -3.5t20.5 -8.5q7 -5 13 -18t14 -33l248 -676l256 690q9 27 22 37q6 5 18 8.5t44 3.5q38 0 49.5 -8t11.5 -21z " />
<glyph unicode="w" horiz-adv-x="1260" d="M1249 872q0 -6 -1.5 -13t-6.5 -21l-287 -815q-8 -22 -26 -27.5t-49 -5.5t-49.5 5.5t-26.5 27.5l-178 524l-193 -524q-8 -22 -26.5 -27.5t-49.5 -5.5t-49 5.5t-26 27.5l-254 788q-5 15 -11 35t-6 26q0 13 10.5 21t49.5 8q32 0 45.5 -3.5t19.5 -8.5t12.5 -18t12.5 -33 l207 -688l202 552l-34 103q-5 15 -12 35.5t-7 31.5q0 13 10.5 21t48.5 8q32 0 47 -3.5t21 -8.5t12 -18t13 -33l217 -682l223 696q10 29 20 37q7 5 18 8.5t42 3.5q38 0 49.5 -8t11.5 -21z" />
<glyph unicode="x" horiz-adv-x="819" d="M799 18q0 -12 -14.5 -19t-51.5 -7t-54.5 7t-31.5 26l-239 342l-246 -349q-11 -14 -27 -20t-53 -6t-49.5 7.5t-12.5 18.5q0 10 5 18.5t14 20.5l295 404l-266 375q-8 11 -13.5 19t-5.5 19t13 19t49 8q40 0 56 -6t26 -18l219 -316l223 316q9 12 24.5 18t53.5 6q35 0 48 -6.5 t13 -17.5q0 -10 -6.5 -19.5t-15.5 -21.5l-267 -369l295 -410q13 -17 16 -24.5t3 -14.5z" />
<glyph unicode="y" horiz-adv-x="877" d="M867.5 851.5q-4.5 -12.5 -7.5 -22.5l-530 -1200q-5 -11 -10 -17.5t-13 -10.5t-20.5 -5.5t-32.5 -1.5q-35 0 -48 6.5t-13 20.5q0 6 3.5 15t8.5 20l184 414l-364 759l-10 20t-5 21q0 14 17 22.5t55 8.5q35 0 49 -5t21 -19l303 -654l280 641q10 20 26 28.5t56 8.5 q55 0 55 -31q0 -6 -4.5 -18.5z" />
<glyph unicode="z" horiz-adv-x="768" d="M737 86q0 -8 -1.5 -22t-4.5 -25t-7 -20.5t-9 -12.5t-9.5 -4.5t-15.5 -1.5h-612q-27 0 -35 8q-5 5 -8.5 16.5t-3.5 34.5q0 25 5 37t19 29l498 653h-473q-17 0 -23 6t-6 23q0 8 1.5 22t4.5 25q3 9 7.5 19.5t9.5 13.5t9 4.5t15 1.5h572q26 0 35 -8q5 -5 8.5 -16.5t3.5 -34.5 q0 -25 -4 -37t-11 -21l-501 -661h508q16 0 22 -6q6 -8 6 -23z" />
<glyph unicode="{" horiz-adv-x="645" d="M621 -332q0 -25 -3 -33t-8 -14q-5 -5 -11.5 -7.5t-18.5 -2.5h-93q-60 0 -107.5 21t-80.5 58t-50.5 87t-17.5 108v240q0 50 -4 89.5t-14.5 72t-28 58t-45.5 46.5q-15 11 -34.5 18.5t-34.5 10.5q-17 3 -23 10.5t-8 20.5q-2 9 -2 16v16v17q0 8 2 16q3 12 8.5 20t22.5 11 q15 3 34.5 10t34.5 18q28 22 45.5 47.5t28 58t14.5 72t4 89.5v239q0 58 17.5 108.5t50.5 87.5t80.5 58t107.5 21h93q12 0 18.5 -2.5t11.5 -7.5q5 -7 8 -15t3 -33q0 -24 -2.5 -32t-8.5 -15q-5 -5 -11.5 -7.5t-18.5 -2.5h-54q-43 0 -70 -14.5t-42.5 -38.5t-21 -56t-5.5 -67 v-264q0 -55 -7 -103t-26.5 -88.5t-54 -72.5t-88.5 -54q54 -22 88.5 -54t54 -72.5t26.5 -88.5t7 -102v-264q0 -36 5.5 -68t21 -56t42.5 -38t70 -14h54q12 0 18.5 -3t11.5 -8q6 -6 8.5 -14t2.5 -33z" />
<glyph unicode="|" horiz-adv-x="395" d="M264 -270q0 -14 -2.5 -21t-7.5 -12q-6 -5 -18 -8.5t-39 -3.5q-28 0 -38.5 3.5t-17.5 8.5q-5 5 -7.5 12t-2.5 21v1605q0 14 2.5 21t7.5 12q7 5 17.5 8.5t38.5 3.5q27 0 39 -3.5t18 -8.5q5 -5 7.5 -12t2.5 -21v-1605z" />
<glyph unicode="}" horiz-adv-x="645" d="M608 483v-16q0 -7 -2 -16q-2 -13 -8 -20.5t-23 -10.5q-15 -3 -34.5 -10.5t-34.5 -18.5q-28 -21 -45.5 -46.5t-28 -58t-14.5 -72t-4 -89.5v-240q0 -58 -17.5 -108t-50.5 -87t-80.5 -58t-107.5 -21h-92q-13 0 -19.5 2.5t-11.5 7.5q-5 6 -7.5 14t-2.5 33t2 33t8 14 q5 5 11.5 8t19.5 3h53q43 0 70 14t42.5 38t21 56t5.5 68v264q0 54 7 102t26.5 88.5t54 72.5t88.5 54q-54 22 -88.5 54t-54 72.5t-26.5 88.5t-7 103v264q0 35 -5.5 67t-21 56t-42.5 38.5t-70 14.5h-53q-13 0 -19.5 2.5t-11.5 7.5q-6 7 -8 15t-2 32q0 25 2.5 33t7.5 15 q5 5 11.5 7.5t19.5 2.5h92q60 0 107.5 -21t80.5 -58t50.5 -87.5t17.5 -108.5v-239q0 -50 4 -89.5t14.5 -72t28 -58t45.5 -47.5q15 -11 34.5 -18t34.5 -10q17 -3 22.5 -11t8.5 -20q2 -8 2 -16v-17z" />
<glyph unicode="~" horiz-adv-x="938" d="M850 877q0 -46 -15 -93t-42 -85.5t-65.5 -62.5t-86.5 -24q-31 0 -55.5 6.5t-47.5 17t-45.5 25t-48.5 29.5q-17 11 -33.5 22.5t-34 20.5t-35.5 15t-38 6q-29 0 -47.5 -12.5t-30.5 -32t-20 -43.5t-15 -48q-3 -11 -12.5 -18.5t-40.5 -7.5q-32 0 -44.5 7.5t-12.5 23.5 q0 46 15 93t43 85t66.5 62t86.5 24q31 0 56 -5.5t47 -15t43 -23t44 -28.5q37 -26 71 -48t75 -22q28 0 46.5 12t31 31.5t20 44t14.5 48.5q3 11 13 18.5t41 7.5q32 0 44.5 -7.5t12.5 -22.5z" />
<glyph unicode="&#xa1;" horiz-adv-x="401" d="M268 29q0 -14 -2.5 -21t-7.5 -12q-6 -5 -16.5 -8.5t-38.5 -3.5t-39.5 3.5t-18.5 8.5q-5 5 -7.5 12t-2.5 21v915q0 14 2.5 21t7.5 12q7 5 18.5 8.5t39.5 3.5t38.5 -3.5t16.5 -8.5q5 -5 7.5 -12t2.5 -21v-915zM303 1278q0 -43 -29.5 -72.5t-72.5 -29.5q-44 0 -73.5 29.5 t-29.5 72.5t29.5 72.5t73.5 29.5q43 0 72.5 -29.5t29.5 -72.5z" />
<glyph unicode="&#xa2;" horiz-adv-x="786" d="M416 1008q-45 -14 -81 -45t-61.5 -75t-39 -99t-13.5 -117q0 -65 13.5 -120.5t38.5 -99t61.5 -73t81.5 -41.5v670zM752 311q0 -11 -9.5 -20.5t-40.5 -26.5q-35 -18 -79.5 -35t-104.5 -22v-158q0 -18 -8 -26.5t-43 -8.5t-43 8.5t-8 26.5v160q-70 9 -130.5 41.5t-105.5 90 t-70.5 140t-25.5 191.5q0 91 23.5 169.5t66.5 139t104.5 100t137.5 52.5v155q0 19 8 27t43 8t43 -8t8 -27v-149q54 -3 88.5 -13t65.5 -22q23 -9 37 -17t21.5 -14.5t10 -12.5t2.5 -11q0 -10 -4.5 -23t-9.5 -27q-8 -15 -16.5 -26.5t-24.5 -11.5q-12 0 -25.5 6.5t-31.5 15.5 q-25 11 -51.5 20.5t-61.5 12.5v-684q32 3 56.5 11t46.5 19q21 11 37.5 21t31.5 10q16 0 24.5 -11.5t16.5 -25.5q8 -11 14.5 -22.5t6.5 -22.5z" />
<glyph unicode="&#xa3;" horiz-adv-x="1087" d="M1047 1243q0 -9 -2.5 -19.5t-10.5 -27.5q-8 -15 -17.5 -27t-23.5 -12t-27.5 7.5t-31.5 15.5q-12 5 -28 11.5t-36.5 12t-47 9.5t-60.5 4q-51 0 -90 -15t-68.5 -39t-51 -55.5t-36.5 -65t-24.5 -66t-16.5 -58.5l-41 -168h402q12 0 17.5 -1.5t8.5 -5.5q5 -5 2 -24 q-2 -7 -4.5 -17.5t-6.5 -21.5t-8.5 -20.5t-8.5 -14.5q-8 -8 -18.5 -11t-29.5 -3h-380l-117 -502h633q11 0 16 -2.5t8 -5.5q3 -5 4.5 -10t1.5 -19q0 -15 -2 -30t-4 -23q-5 -26 -16 -33q-9 -6 -29 -6h-821q-17 0 -24 7t-7 20q0 11 1.5 22.5t6.5 30.5q7 22 17 35.5t33 13.5h45 l116 502h-86q-12 0 -17.5 1.5t-8.5 4.5q-5 5 -2 25q3 14 11 38t17 35q8 8 18.5 11.5t28.5 3.5h66l41 174q24 100 60 177.5t89 130.5t125 80t168 27q42 0 78.5 -6t66.5 -15t53 -19t38 -19q18 -11 24.5 -19.5t6.5 -17.5z" />
<glyph unicode="&#xa4;" horiz-adv-x="1196" d="M938 692q0 73 -26.5 139t-73 115.5t-108.5 79t-132 29.5q-71 0 -132.5 -29.5t-108 -79t-73 -115.5t-26.5 -139t26.5 -138.5t73 -115t108 -79t132.5 -29.5q70 0 132 29.5t108.5 79t73 115t26.5 138.5zM1106 240q0 -7 -7 -18t-24 -29q-15 -16 -23 -21.5t-16 -5.5t-13 3 t-13 11l-131 127q-59 -48 -129.5 -74t-151.5 -26q-80 0 -151 26t-130 74l-131 -127q-8 -8 -13 -11t-13 -3t-16 5.5t-23 21.5q-17 18 -24 29t-7 18q0 6 4 11.5t15 16.5l124 123q-48 63 -75 139.5t-27 161.5t27 161.5t75 139.5l-124 123q-11 11 -15 17t-4 12t7 17t24 30 q15 15 23 21t16 6t13 -3.5t13 -11.5l131 -127q59 48 130 74.5t151 26.5q81 0 151.5 -26.5t129.5 -74.5l131 127q8 8 13 11.5t13 3.5t16 -6t23 -21q17 -19 24 -30t7 -17t-4 -12t-15 -17l-124 -123q48 -63 75 -139.5t27 -161.5t-27 -161.5t-75 -139.5l124 -123 q11 -11 15 -16.5t4 -11.5z" />
<glyph unicode="&#xa5;" horiz-adv-x="1055" d="M1047 1245q0 -5 -1.5 -11t-11.5 -22l-336 -518h187q15 0 20.5 -5t5.5 -11q0 -9 -1.5 -16.5t-4.5 -16.5t-6.5 -16t-9.5 -17q-8 -11 -19 -14.5t-28 -3.5h-207l-39 -59v-117h289q15 0 20.5 -5t5.5 -12q0 -9 -1.5 -16t-4.5 -16q-5 -17 -16 -33q-14 -19 -47 -19h-246v-280 q0 -14 -3 -21t-9 -12q-7 -5 -20 -8.5t-42 -3.5q-28 0 -41.5 3.5t-19.5 8.5q-10 7 -10 33v280h-283q-16 0 -21.5 5.5t-5.5 11.5q0 9 1.5 16t4.5 17q4 11 7.5 17t9.5 15q8 11 19 15t28 4h240v117l-37 59h-246q-16 0 -21.5 5t-5.5 11q0 10 1.5 17t4.5 16q4 11 7.5 17.5 t9.5 15.5q8 11 19 14.5t28 3.5h139l-319 504q-11 17 -17 26.5t-6 18.5q0 11 10 19q7 3 20 5.5t42 2.5q35 0 51 -6t27 -23l372 -575l373 575q11 17 26 23t50 6q25 0 38.5 -2.5t18.5 -5.5q6 -4 8.5 -9t2.5 -8z" />
<glyph unicode="&#xa6;" horiz-adv-x="395" d="M264 -270q0 -14 -2.5 -21t-7.5 -12q-6 -5 -18 -8.5t-39 -3.5q-28 0 -38.5 3.5t-17.5 8.5q-5 5 -7.5 12t-2.5 21v647q0 14 2.5 21t7.5 12q7 5 17.5 8.5t38.5 3.5q27 0 39 -3.5t18 -8.5q5 -5 7.5 -12t2.5 -21v-647zM264 678q0 -14 -2.5 -21t-7.5 -12q-6 -5 -18 -8.5 t-39 -3.5q-28 0 -38.5 3.5t-17.5 8.5q-5 5 -7.5 12t-2.5 21v657q0 14 2.5 21t7.5 12q7 5 17.5 8.5t38.5 3.5q27 0 39 -3.5t18 -8.5q5 -5 7.5 -12t2.5 -21v-657z" />
<glyph unicode="&#xa7;" horiz-adv-x="885" d="M684 645q0 74 -59.5 115t-186.5 59q-45 0 -85 -10t-70 -30t-48 -51.5t-18 -74.5q0 -54 28.5 -88t73 -54t98.5 -29.5t105 -14.5q30 5 59 17.5t52 34t37 53t14 73.5zM823 156q0 -69 -26 -124.5t-75 -95.5t-119.5 -61.5t-158.5 -21.5q-67 0 -121 9t-96.5 21.5t-74 27 t-52.5 26.5t-30 20t-9 16t1.5 17.5t11.5 29.5q18 41 39 41q6 0 15 -1.5t32 -12.5q8 -4 32.5 -15.5t60.5 -24t82.5 -22.5t98.5 -10q44 0 87.5 8t78.5 27.5t56.5 52.5t21.5 82q0 41 -14 72.5t-42 55.5t-70 42t-97 33l-123 33q-55 15 -101.5 36t-80.5 51t-53 70t-19 91 q0 35 6.5 68.5t25 64t52 58.5t86.5 52q-42 22 -74 46.5t-53.5 53.5t-32 64t-10.5 80q0 64 24.5 116.5t71 90t114 58t154.5 20.5q72 0 132.5 -12.5t113.5 -32.5q23 -9 36.5 -16t20.5 -12.5t9 -10t2 -8.5q0 -8 -1 -17t-7 -24q-16 -43 -37 -43q-7 0 -12.5 1.5t-16.5 6.5 q-18 8 -46 17.5t-62.5 17.5t-74 13t-79.5 5q-41 0 -78.5 -10.5t-66.5 -31.5t-46.5 -52.5t-17.5 -73.5q0 -38 17 -65.5t46 -48t68 -34.5t84 -24l106 -24q61 -14 114 -31t92.5 -45t62 -71.5t22.5 -110.5q0 -90 -40.5 -151.5t-133.5 -104.5q47 -23 80 -47t54 -54t30.5 -66.5 t9.5 -84.5z" />
<glyph unicode="&#xa8;" horiz-adv-x="1024" d="M467 1118q0 -40 -26 -67t-68 -27q-19 0 -36 7t-29.5 20t-19.5 30t-7 37q0 42 27 69t65 27q40 0 67 -27t27 -69zM745 1118q0 -40 -26 -67t-68 -27q-19 0 -36 7t-29.5 20t-19.5 30t-7 37q0 42 27 69t65 27q41 0 67.5 -27t26.5 -69z" />
<glyph unicode="&#xa9;" horiz-adv-x="1696" d="M1112 1012q0 -19 -12 -43q-11 -22 -21.5 -30.5t-19.5 -8.5q-14 0 -29.5 7t-32.5 13q-12 5 -47.5 15t-89.5 10q-43 0 -81.5 -14.5t-68 -46.5t-46.5 -83.5t-17 -125.5q0 -73 19.5 -124.5t51 -84t71.5 -47.5t81 -15q51 0 82.5 6t48.5 13q13 5 28 11.5t26 6.5q15 0 22 -9.5 t15 -23.5q8 -15 13 -27t5 -24q0 -9 -5.5 -16t-19.5 -15t-32.5 -14.5t-38.5 -11.5q-18 -5 -34.5 -8.5t-34.5 -6t-39.5 -3.5t-49.5 -1q-77 0 -142.5 26t-113.5 75.5t-75 122t-27 165.5q0 95 27 168.5t75 123.5t114.5 76t145.5 26q33 0 59 -2t48 -6t42 -10t40 -13 q41 -16 52 -26t11 -25zM1454 700q0 124 -46.5 235.5t-127.5 196.5t-192 135t-240 50q-87 0 -165.5 -23t-145.5 -64t-121.5 -98t-93 -125.5t-59.5 -146.5t-21 -160t21 -159.5t60 -146t94 -125t122 -97.5t145.5 -63.5t163.5 -22.5q129 0 240 49.5t192 134t127.5 196 t46.5 234.5zM1583 700q0 -101 -26.5 -194.5t-74.5 -175t-115.5 -148t-149 -114t-175 -73.5t-194.5 -26t-194.5 26t-175.5 73.5t-149 114t-115 148t-74.5 175t-26.5 194.5t26.5 194.5t74.5 175t115 149t149 115t175.5 74t194.5 26.5t194.5 -26.5t175 -74.5t149 -115 t115.5 -149t74.5 -175.5t26.5 -193.5z" />
<glyph unicode="&#xaa;" horiz-adv-x="711" d="M451 1006l-129 -13q-109 -9 -109 -88q0 -21 6.5 -35.5t17.5 -24t25 -14t29 -4.5q19 0 46.5 6t52.5 22t43 44t18 72v35zM575 608q0 -9 -1.5 -16t-4.5 -17q-5 -16 -16 -32q-8 -11 -19 -15t-28 -4h-363q-15 0 -20.5 5t-5.5 12q0 9 1.5 16t4.5 16q5 17 16 33q8 11 19 15t28 4 h363q15 0 20.5 -5.5t5.5 -11.5zM571 774q0 -8 -9 -14.5t-23 -11.5q-13 -5 -24 -7t-19 -2q-9 0 -16.5 6.5t-13 17t-9.5 24t-6 26.5q-39 -45 -82.5 -61.5t-89.5 -16.5q-31 0 -61.5 9t-54.5 28t-39 49t-15 72q0 37 8.5 64.5t23.5 47t36 32.5t46 22t52 12t55 6l121 10v9 q0 49 -33 75.5t-88 26.5q-37 0 -73 -11t-67 -28q-5 -3 -11 -4.5t-11 -1.5q-6 0 -13 6.5t-12.5 16t-9.5 21t-4 20.5q0 11 8 18t27 16q18 9 36.5 16t39 12t44.5 8t54 3q105 0 160 -56t55 -165v-215q0 -20 3.5 -34t8.5 -25q3 -8 4.5 -11.5t1.5 -9.5z" />
<glyph unicode="&#xab;" horiz-adv-x="954" d="M465 201q0 -20 -2 -32t-5.5 -18t-9 -8t-12.5 -2q-11 0 -20 8.5t-25 26.5l-219 283q-14 18 -20.5 32t-6.5 37t6.5 37t20.5 33l219 283q16 18 25 26t20 8q7 0 12.5 -2t9 -8t5.5 -17.5t2 -31.5q0 -19 -0.5 -33t-3 -25t-7 -20.5t-12.5 -19.5l-161 -230l161 -229 q8 -11 12.5 -20.5t7 -20.5t3 -24.5t0.5 -32.5zM780 201q0 -20 -2 -32t-5.5 -18t-8.5 -8t-12 -2q-11 0 -20.5 8.5t-24.5 26.5l-220 283q-14 18 -20 32t-6 37t6 37t20 33l220 283q15 18 24.5 26t20.5 8q7 0 12 -2t8.5 -8t5.5 -17.5t2 -31.5q0 -19 -0.5 -33t-3 -25t-7 -20.5 t-11.5 -19.5l-162 -230l162 -229q7 -11 11.5 -20.5t7 -20.5t3 -24.5t0.5 -32.5z" />
<glyph unicode="&#xac;" d="M899 449q0 -11 -0.5 -17t-5.5 -12q-2 -2 -12 -5t-41 -3q-37 0 -48.5 4.5t-13.5 7.5q-3 3 -4.5 9t-1.5 20v276h-668q-12 0 -17.5 0.5t-10.5 5.5q-2 2 -6 14t-4 50q0 32 3 42.5t5 12.5q6 5 11.5 5.5t16.5 0.5h760q11 0 17 -0.5t12 -5.5q2 -2 5 -12.5t3 -42.5v-350z" />
<glyph unicode="&#xad;" horiz-adv-x="715" d="M622.5 427q-4.5 -25 -12.5 -38q-6 -14 -16.5 -18t-30.5 -4h-434q-14 0 -21 1t-10 3q-6 5 -8 12.5t-2 24.5q0 24 4 49.5t12 38.5q7 14 17.5 18t30.5 4h434q14 0 20.5 -1t9.5 -3q7 -5 9 -12.5t2 -24.5q0 -25 -4.5 -50z" />
<glyph unicode="&#xae;" horiz-adv-x="1696" d="M1004 856q0 48 -35.5 81.5t-112.5 33.5h-164v-244q34 0 77.5 -1t74.5 -1q44 0 74.5 10t49.5 27t27.5 41t8.5 53zM1188 362q0 -6 -2 -9.5t-8 -8.5q-7 -5 -24 -7.5t-46 -2.5q-34 0 -49 7t-23 19l-166 258h-178v-247q0 -13 -3 -18.5t-9 -8.5q-9 -5 -19 -7.5t-34 -2.5 q-25 0 -37 2.5t-17 7.5q-6 6 -8 10t-2 17v663q0 14 3.5 20t8.5 11q7 6 19.5 8t34.5 2h229q65 0 117 -13.5t88.5 -41t56 -70.5t19.5 -102q0 -62 -33 -114.5t-107 -84.5l168 -246q10 -14 15.5 -23.5t5.5 -17.5zM1454 700q0 124 -46.5 235.5t-127.5 196.5t-192 135t-240 50 q-87 0 -165.5 -23t-145.5 -64t-121.5 -98t-93 -125.5t-59.5 -146.5t-21 -160t21 -159.5t60 -146t94 -125t122 -97.5t145.5 -63.5t163.5 -22.5q129 0 240 49.5t192 134t127.5 196t46.5 234.5zM1583 700q0 -101 -26.5 -194.5t-74.5 -175t-115.5 -148t-149 -114t-175 -73.5 t-194.5 -26t-194.5 26t-175.5 73.5t-149 114t-115 148t-74.5 175t-26.5 194.5t26.5 194.5t74.5 175t115 149t149 115t175.5 74t194.5 26.5t194.5 -26.5t175 -74.5t149 -115t115.5 -149t74.5 -175.5t26.5 -193.5z" />
<glyph unicode="&#xaf;" horiz-adv-x="1024" d="M729 1107q-4 -21 -12 -34q-5 -8 -11.5 -10t-23.5 -2h-363q-9 0 -14 1t-8 3q-6 5 -7 9.5t-1 17.5q0 24 4 47.5t10 31.5t13.5 10.5t21.5 2.5h364q15 0 23 -4q6 -5 7 -11.5t1 -15.5q0 -25 -4 -46z" />
<glyph unicode="&#xb0;" horiz-adv-x="868" d="M598 1102q0 34 -12.5 65.5t-35 55t-52.5 37.5t-64 14q-35 0 -64.5 -14t-52 -37.5t-35 -55t-12.5 -65.5q0 -35 12.5 -66t35 -54.5t52 -37.5t64.5 -14q34 0 64 14t52.5 37.5t35 54.5t12.5 66zM715 1102q0 -58 -22.5 -109t-60.5 -89.5t-89 -60.5t-109 -22q-57 0 -108 22 t-89.5 60.5t-60.5 89.5t-22 109q0 57 22 108t60.5 89.5t89.5 60.5t108 22q58 0 109 -22t89 -60.5t60.5 -89.5t22.5 -108z" />
<glyph unicode="&#xb1;" d="M899 61q0 -27 -3.5 -36.5t-8.5 -14.5t-12 -7.5t-21 -2.5h-743q-14 0 -21 2.5t-12 7.5t-8.5 14.5t-3.5 36.5q0 28 3.5 38.5t8.5 15.5t12 7.5t21 2.5h743q14 0 21 -2.5t12 -7.5t8.5 -15.5t3.5 -38.5zM899 694q0 -28 -3.5 -37t-8.5 -14t-12 -7.5t-21 -2.5h-307v-328 q0 -14 -2.5 -21t-7.5 -12t-16.5 -8.5t-39.5 -3.5t-38 3.5t-15 8.5t-7.5 12t-2.5 21v328h-307q-14 0 -21 2.5t-12 7.5t-8.5 14t-3.5 37t3.5 38.5t8.5 15.5t12 7.5t21 2.5h307v332q0 14 2.5 20.5t7.5 11.5t15 9t38 4t39.5 -4t16.5 -9t7.5 -11.5t2.5 -20.5v-332h307 q14 0 21 -2.5t12 -7.5t8.5 -15.5t3.5 -38.5z" />
<glyph unicode="&#xb2;" horiz-adv-x="623" d="M552 715q0 -13 -2 -27t-10 -26q-6 -11 -15 -14t-22 -3h-379q-28 0 -35.5 14t-7.5 35q0 14 0.5 26t10.5 21l135 138q53 54 89.5 97t59.5 79t33 68t10 65q0 54 -32 83t-78 29q-39 0 -63.5 -13t-43.5 -27q-12 -13 -27 -25t-26 -12t-20.5 6t-18.5 14q-8 8 -15.5 17t-7.5 18 q0 24 29 53q11 11 29 23t43 22.5t56 17.5t67 7q47 0 88.5 -13t73 -39.5t49.5 -67.5t18 -97q0 -46 -14.5 -88.5t-38 -80.5t-53 -72t-58.5 -64q-16 -17 -36.5 -36.5t-40 -37.5t-36.5 -33.5t-26 -23.5h281q6 0 13.5 -2t12.5 -7q8 -8 8 -24z" />
<glyph unicode="&#xb3;" horiz-adv-x="623" d="M501 787.5q-17 -42.5 -45.5 -73.5t-65 -52t-76 -34t-78 -18.5t-70.5 -5.5q-20 0 -39.5 1t-30.5 7q-12 8 -15 17.5t-3 23.5q0 31 11 42.5t36 11.5h51q25 0 62.5 7.5t72.5 27t59.5 53t24.5 84.5q0 56 -34.5 92.5t-110.5 36.5h-19q-15 0 -21.5 0.5t-14.5 5.5q-7 5 -9 12 t-2 18q0 10 2 23.5t9 24.5q6 11 14.5 13.5t17.5 2.5h19q66 0 105.5 25.5t39.5 80.5q0 45 -31 65.5t-77 20.5q-42 0 -77 -14.5t-63 -34.5q-8 -6 -13.5 -9t-14.5 -3q-13 0 -22 9.5t-15 17.5q-6 6 -10.5 13t-4.5 15q0 24 37 49q14 9 31 19.5t39.5 19t53 14t71.5 5.5 q40 0 78 -11t67 -33t46.5 -55t17.5 -77q0 -56 -25 -94.5t-82 -67.5q121 -58 121 -178q0 -55 -17 -97.5z" />
<glyph unicode="&#xb4;" horiz-adv-x="1024" d="M674 1323q0 -11 -10.5 -26.5t-30.5 -43.5l-148 -200q-6 -8 -13 -16.5t-15 -14.5q-8 -5 -19.5 -7.5t-36.5 -2.5q-32 0 -42.5 5.5t-10.5 16.5q0 8 5.5 19.5t13.5 25.5l135 234q14 25 40 32t64 7t53 -7.5t15 -21.5z" />
<glyph unicode="&#xb6;" horiz-adv-x="1182" d="M1018 -295q0 -14 -2.5 -21t-7.5 -12q-7 -5 -16.5 -8.5t-37.5 -3.5q-27 0 -36 3.5t-15 8.5q-5 5 -7.5 12t-2.5 21v1579h-264v-1579q0 -14 -3 -21t-8 -12q-6 -5 -14.5 -8.5t-36.5 -3.5t-36.5 3t-14.5 9q-5 5 -7.5 12t-2.5 21v741q-101 8 -178 48t-129.5 103t-79.5 145.5 t-27 175.5q0 113 35 203t99 152.5t154 96t200 33.5h370q28 0 39.5 -3.5t18.5 -8.5q5 -5 7.5 -12t2.5 -21v-1653z" />
<glyph unicode="&#xb7;" horiz-adv-x="381" d="M293 631q0 -44 -29.5 -73.5t-73.5 -29.5q-43 0 -72.5 29.5t-29.5 73.5q0 43 29.5 72.5t72.5 29.5q44 0 73.5 -29.5t29.5 -72.5z" />
<glyph unicode="&#xb8;" horiz-adv-x="1024" d="M623 -90q0 -14 -4.5 -28t-10.5 -29l-90 -224q-5 -12 -9.5 -19t-12 -10.5t-19.5 -4.5t-31 -1q-27 0 -35 8t-8 17q0 8 3 19t6 26l55 232q6 24 23.5 33.5t60.5 9.5q42 0 57 -8.5t15 -20.5z" />
<glyph unicode="&#xb9;" horiz-adv-x="623" d="M420 672q0 -15 -8 -23q-5 -3 -18 -5.5t-29 -2.5q-15 0 -28.5 2.5t-18.5 5.5q-6 5 -7 10t-1 13v559l-103 -88q-15 -14 -21.5 -17.5t-14.5 -3.5q-11 0 -17.5 6.5t-17.5 22.5q-10 12 -13.5 22t-3.5 15q0 8 4.5 15t18.5 18l199 159q23 21 43 21t28 -6.5t8 -26.5v-696z" />
<glyph unicode="&#xba;" horiz-adv-x="725" d="M510 1012q0 38 -10 72t-29 59.5t-46.5 40t-62.5 14.5q-34 0 -61 -14.5t-46 -40t-29.5 -59.5t-10.5 -72t10 -71.5t29 -59t46 -40t62 -14.5q34 0 61.5 14.5t46.5 39.5t29.5 58.5t10.5 72.5zM596 608q0 -9 -1.5 -16t-4.5 -17q-3 -9 -6.5 -16t-10.5 -16q-8 -11 -19 -15 t-28 -4h-379q-15 0 -20.5 5t-5.5 12q0 9 1.5 16t4.5 16q5 17 16 33q8 11 19 15t28 4h379q16 0 21.5 -5.5t5.5 -11.5zM623 1012q0 -62 -20 -113t-55 -87.5t-83 -56.5t-103 -20q-54 0 -101.5 20t-83 56.5t-55.5 87.5t-20 113q0 63 20 114.5t55 87.5t82.5 56t102.5 20 t102.5 -20t82.5 -56t55.5 -87.5t20.5 -114.5z" />
<glyph unicode="&#xbb;" horiz-adv-x="954" d="M494 528q0 -23 -6.5 -37t-20.5 -32l-219 -283q-16 -18 -25 -26.5t-20 -8.5q-7 0 -12.5 2t-9 8t-5.5 18t-2 32q0 19 0.5 32.5t3 24.5t7 20.5t12.5 20.5l161 229l-161 230q-8 10 -12.5 19.5t-7 20.5t-3 25t-0.5 33q0 20 2 31.5t5.5 17.5t9 8t12.5 2q11 0 20 -8t25 -26 l219 -283q14 -19 20.5 -33t6.5 -37zM809 528q0 -23 -6.5 -37t-20.5 -32l-219 -283q-15 -18 -24.5 -26.5t-20.5 -8.5q-7 0 -12.5 2t-9 8t-5.5 18t-2 32q0 19 1 32.5t3 24.5t6.5 20.5t12.5 20.5l162 229l-162 230q-15 21 -19 40.5t-4 57.5q0 20 2 31.5t5.5 17.5t9 8t12.5 2 q11 0 20.5 -8t24.5 -26l219 -283q14 -19 20.5 -33t6.5 -37z" />
<glyph unicode="&#xbc;" horiz-adv-x="1591" d="M1120 1378q0 -6 -4 -16t-10 -23l-692 -1331q-10 -18 -23 -23t-47 -5q-32 0 -45.5 5.5t-13.5 16.5q0 6 4 16.5t10 22.5l692 1331q10 19 23 24t47 5q32 0 45.5 -6t13.5 -17zM340 672q0 -15 -8 -23q-5 -3 -18 -5.5t-29 -2.5q-15 0 -28.5 2.5t-18.5 5.5q-6 5 -7 10t-1 13v559 l-103 -88q-15 -14 -21.5 -17.5t-14.5 -3.5q-11 0 -17.5 6.5t-17.5 22.5q-10 12 -13.5 22t-3.5 15q0 8 4.5 15t18.5 18l199 159q23 21 43 21t28 -6.5t8 -26.5v-696zM1243 569l-229 -313h229v313zM1464 236q0 -14 -3.5 -30t-8.5 -24q-5 -12 -14 -15t-21 -3h-61v-176 q0 -15 -9 -23q-5 -3 -19 -5.5t-30 -2.5q-15 0 -28.5 2.5t-18.5 5.5q-6 5 -7 10t-1 13v176h-336q-17 0 -25 6.5t-8 26.5q0 11 2 23t9 22l366 487q11 14 27.5 20.5t25.5 6.5q26 0 39 -9t13 -32v-459h84q12 0 18 -4t6 -16z" />
<glyph unicode="&#xbd;" horiz-adv-x="1591" d="M1120 1378q0 -6 -4 -16t-10 -23l-692 -1331q-10 -18 -23 -23t-47 -5q-32 0 -45.5 5.5t-13.5 16.5q0 6 4 16.5t10 22.5l692 1331q10 19 23 24t47 5q32 0 45.5 -6t13.5 -17zM344 672q0 -15 -8 -23q-5 -3 -18 -5.5t-29 -2.5q-15 0 -28.5 2.5t-18.5 5.5q-6 5 -7 10t-1 13v559 l-103 -88q-15 -14 -21.5 -17.5t-14.5 -3.5q-11 0 -17.5 6.5t-17.5 22.5q-10 12 -13.5 22t-3.5 15q0 8 4.5 15t18.5 18l199 159q23 21 43 21t28 -6.5t8 -26.5v-696zM1427 70q0 -13 -2 -27t-10 -26q-6 -11 -15 -14t-22 -3h-379q-28 0 -35.5 14t-7.5 35q0 14 0.5 26t10.5 21 l135 138q53 54 89.5 97t59.5 79t33 68t10 65q0 54 -32 83t-78 29q-39 0 -63.5 -13t-43.5 -27q-12 -13 -27 -25t-26 -12t-20.5 6t-18.5 14q-8 8 -15.5 17t-7.5 18q0 24 29 53q11 11 29 23t43 22.5t56 17.5t67 7q47 0 88.5 -13t73 -39.5t49.5 -67.5t18 -97q0 -46 -14.5 -88.5 t-38 -80.5t-53 -72t-58.5 -64q-16 -17 -36.5 -36.5t-40 -37.5t-36.5 -33.5t-26 -23.5h281q6 0 13.5 -2t12.5 -7q8 -8 8 -24z" />
<glyph unicode="&#xbe;" horiz-adv-x="1591" d="M1212 1378q0 -6 -4 -16t-10 -23l-692 -1331q-10 -18 -23 -23t-47 -5q-32 0 -45.5 5.5t-13.5 16.5q0 6 4 16.5t10 22.5l692 1331q10 19 23 24t47 5q32 0 45.5 -6t13.5 -17zM501 787.5q-17 -42.5 -45.5 -73.5t-65 -52t-76 -34t-78 -18.5t-70.5 -5.5q-20 0 -39.5 1t-30.5 7 q-12 8 -15 17.5t-3 23.5q0 31 11 42.5t36 11.5h51q25 0 62.5 7.5t72.5 27t59.5 53t24.5 84.5q0 56 -34.5 92.5t-110.5 36.5h-19q-15 0 -21.5 0.5t-14.5 5.5q-7 5 -9 12t-2 18q0 10 2 23.5t9 24.5q6 11 14.5 13.5t17.5 2.5h19q66 0 105.5 25.5t39.5 80.5q0 45 -31 65.5 t-77 20.5q-42 0 -77 -14.5t-63 -34.5q-8 -6 -13.5 -9t-14.5 -3q-13 0 -22 9.5t-15 17.5q-6 6 -10.5 13t-4.5 15q0 24 37 49q14 9 31 19.5t39.5 19t53 14t71.5 5.5q40 0 78 -11t67 -33t46.5 -55t17.5 -77q0 -56 -25 -94.5t-82 -67.5q121 -58 121 -178q0 -55 -17 -97.5z M1325 569l-229 -313h229v313zM1546 236q0 -14 -3.5 -30t-8.5 -24q-5 -12 -14 -15t-21 -3h-61v-176q0 -15 -9 -23q-5 -3 -19 -5.5t-30 -2.5q-15 0 -28.5 2.5t-18.5 5.5q-6 5 -7 10t-1 13v176h-336q-17 0 -25 6.5t-8 26.5q0 11 2 23t9 22l366 487q11 14 27.5 20.5t25.5 6.5 q26 0 39 -9t13 -32v-459h84q12 0 18 -4t6 -16z" />
<glyph unicode="&#xbf;" horiz-adv-x="885" d="M799 61q0 -9 -8 -20.5t-39 -22.5q-27 -10 -51 -16.5t-49 -10.5t-53.5 -5.5t-63.5 -1.5q-93 0 -166 26t-124 72.5t-77.5 110.5t-26.5 141q0 82 20 144.5t60 110t100.5 82.5t141.5 64v209q0 14 2.5 21t7.5 12q6 5 18 8.5t39 3.5q28 0 39 -3.5t17 -8.5q5 -5 7.5 -12t2.5 -21 v-260q0 -21 -12 -33q-8 -8 -58 -20q-69 -18 -116 -45.5t-76.5 -64t-42 -82t-12.5 -99.5q0 -47 16 -90.5t48 -76.5t79 -53t110 -20q56 0 93 8t63 17q19 6 33 13t27 7q15 0 23.5 -9.5t16.5 -31.5q11 -28 11 -43zM631 1278q0 -43 -29.5 -72.5t-73.5 -29.5q-43 0 -72.5 29.5 t-29.5 72.5t29.5 72.5t72.5 29.5q44 0 73.5 -29.5t29.5 -72.5z" />
<glyph unicode="&#xc0;" horiz-adv-x="1108" d="M547 1219l-228 -703h457zM1098 18q0 -9 -14.5 -17.5t-57.5 -8.5q-29 0 -45 3.5t-23 8.5q-10 8 -20 37l-121 352h-541l-118 -350q-9 -28 -21 -37q-6 -5 -20 -8.5t-43 -3.5q-37 0 -50.5 8.5t-13.5 17.5q0 7 1.5 15t6.5 22l447 1286q4 12 8.5 20t13.5 13t24 7.5t40 2.5 t40.5 -2.5t25 -7.5t14 -13t8.5 -20l451 -1288q5 -14 6.5 -22t1.5 -15zM624 1485q0 -11 -10.5 -16.5t-42.5 -5.5q-25 0 -36.5 2.5t-19.5 7.5q-8 6 -15 14.5t-13 16.5l-148 200q-20 28 -30.5 43.5t-10.5 26.5q0 14 15 21.5t53 7.5t64 -7t40 -32l135 -234q8 -14 13.5 -25.5 t5.5 -19.5z" />
<glyph unicode="&#xc1;" horiz-adv-x="1108" d="M547 1219l-228 -703h457zM1098 18q0 -9 -14.5 -17.5t-57.5 -8.5q-29 0 -45 3.5t-23 8.5q-10 8 -20 37l-121 352h-541l-118 -350q-9 -28 -21 -37q-6 -5 -20 -8.5t-43 -3.5q-37 0 -50.5 8.5t-13.5 17.5q0 7 1.5 15t6.5 22l447 1286q4 12 8.5 20t13.5 13t24 7.5t40 2.5 t40.5 -2.5t25 -7.5t14 -13t8.5 -20l451 -1288q5 -14 6.5 -22t1.5 -15zM817 1774q0 -11 -10.5 -26.5t-30.5 -43.5l-148 -200q-6 -8 -13 -16.5t-15 -14.5q-8 -5 -19.5 -7.5t-36.5 -2.5q-32 0 -42.5 5.5t-10.5 16.5q0 8 5.5 19.5t13.5 25.5l135 234q14 25 40 32t64 7t53 -7.5 t15 -21.5z" />
<glyph unicode="&#xc2;" horiz-adv-x="1108" d="M547 1219l-228 -703h457zM1098 18q0 -9 -14.5 -17.5t-57.5 -8.5q-29 0 -45 3.5t-23 8.5q-10 8 -20 37l-121 352h-541l-118 -350q-9 -28 -21 -37q-6 -5 -20 -8.5t-43 -3.5q-37 0 -50.5 8.5t-13.5 17.5q0 7 1.5 15t6.5 22l447 1286q4 12 8.5 20t13.5 13t24 7.5t40 2.5 t40.5 -2.5t25 -7.5t14 -13t8.5 -20l451 -1288q5 -14 6.5 -22t1.5 -15zM852 1485q0 -12 -13 -17t-48 -5q-31 0 -47 5.5t-31 22.5l-160 181l-160 -181q-15 -17 -31 -22.5t-47 -5.5q-35 0 -48 5t-13 17q0 8 6 18t25 31l180 217q12 14 21 24t19 16t21.5 9t26.5 3t26.5 -3t21 -9 t19 -16t21.5 -24l180 -217q19 -21 25 -31t6 -18z" />
<glyph unicode="&#xc3;" horiz-adv-x="1108" d="M547 1219l-228 -703h457zM1098 18q0 -9 -14.5 -17.5t-57.5 -8.5q-29 0 -45 3.5t-23 8.5q-10 8 -20 37l-121 352h-541l-118 -350q-9 -28 -21 -37q-6 -5 -20 -8.5t-43 -3.5q-37 0 -50.5 8.5t-13.5 17.5q0 7 1.5 15t6.5 22l447 1286q4 12 8.5 20t13.5 13t24 7.5t40 2.5 t40.5 -2.5t25 -7.5t14 -13t8.5 -20l451 -1288q5 -14 6.5 -22t1.5 -15zM848 1643q-20 -81 -61.5 -122.5t-110.5 -41.5q-35 0 -65 12t-58 27q-26 14 -53.5 28.5t-59.5 14.5q-18 0 -31.5 -9t-21.5 -20q-6 -9 -11 -19.5t-12 -21.5q-5 -8 -10 -10t-16 -2h-49q-6 0 -11 1t-8 5 t-3.5 13t3.5 24q20 81 61.5 122.5t110.5 41.5q38 0 67.5 -12.5t55.5 -26.5t54 -28.5t59 -14.5q18 0 31.5 8t21.5 21q6 9 11 19.5t12 21.5q5 8 10 10t16 2h49q6 0 11 -1t8 -5t3.5 -13t-3.5 -24z" />
<glyph unicode="&#xc4;" horiz-adv-x="1108" d="M547 1219l-228 -703h457zM1098 18q0 -9 -14.5 -17.5t-57.5 -8.5q-29 0 -45 3.5t-23 8.5q-10 8 -20 37l-121 352h-541l-118 -350q-9 -28 -21 -37q-6 -5 -20 -8.5t-43 -3.5q-37 0 -50.5 8.5t-13.5 17.5q0 7 1.5 15t6.5 22l447 1286q4 12 8.5 20t13.5 13t24 7.5t40 2.5 t40.5 -2.5t25 -7.5t14 -13t8.5 -20l451 -1288q5 -14 6.5 -22t1.5 -15zM514 1569q0 -40 -26 -67t-68 -27q-19 0 -36 7t-29.5 20t-19.5 30t-7 37q0 42 27 69t65 27q40 0 67 -27t27 -69zM792 1569q0 -40 -26 -67t-68 -27q-19 0 -36 7t-29.5 20t-19.5 30t-7 37q0 42 27 69t65 27 q41 0 67.5 -27t26.5 -69z" />
<glyph unicode="&#xc5;" horiz-adv-x="1108" d="M547 1219l-228 -703h457zM1098 18q0 -9 -14.5 -17.5t-57.5 -8.5q-29 0 -45 3.5t-23 8.5q-10 8 -20 37l-121 352h-541l-118 -350q-9 -28 -21 -37q-6 -5 -20 -8.5t-43 -3.5q-37 0 -50.5 8.5t-13.5 17.5q0 7 1.5 15t6.5 22l447 1286q4 12 8.5 20t13.5 13t24 7.5t40 2.5 t40.5 -2.5t25 -7.5t14 -13t8.5 -20l451 -1288q5 -14 6.5 -22t1.5 -15zM651 1651q0 19 -8 37t-21.5 31.5t-31.5 21.5t-37 8t-37 -8t-31.5 -21.5t-21.5 -31.5t-8 -37t8 -37t21.5 -31.5t31.5 -21.5t37 -8t37 8t31.5 21.5t21.5 31.5t8 37zM741 1651q0 -39 -15 -73.5t-40.5 -60 t-59.5 -40t-73 -14.5t-73.5 14.5t-60 40t-40 60t-14.5 73.5t14.5 73.5t40 60t60 40.5t73.5 15t73 -15t59.5 -40.5t40.5 -60t15 -73.5z" />
<glyph unicode="&#xc6;" horiz-adv-x="1739" d="M885 1264l-422 -707h422v707zM1704 94q0 -15 -2 -31t-4 -24q-6 -26 -17 -33q-9 -6 -28 -6h-697q-29 0 -41 4t-18 10q-12 13 -12 43v377h-496l-233 -393q-8 -12 -15.5 -22t-13.5 -15t-20.5 -8.5t-43.5 -3.5q-37 0 -50 7.5t-13 18.5q0 7 2.5 15.5t11.5 25.5l772 1278 q10 17 23 26t45 9h809q11 0 16 -2.5t9 -5.5q3 -5 4.5 -10t1.5 -19q0 -15 -2 -31t-4 -24q-7 -27 -17 -33q-9 -6 -29 -6h-612v-428h541q11 0 16 -2.5t8 -5.5q3 -5 5 -10t2 -19q0 -15 -2.5 -31t-4.5 -24q-5 -26 -16 -33q-9 -6 -29 -6h-520v-551h643q11 0 16.5 -2.5t8.5 -5.5 q3 -5 4.5 -10t1.5 -19z" />
<glyph unicode="&#xc7;" horiz-adv-x="1104" d="M1069 90q0 -14 -9.5 -22t-29.5 -19q-12 -7 -42 -20t-75.5 -26t-105 -22.5t-131.5 -9.5q-119 0 -224 47t-183.5 137.5t-124.5 223.5t-46 305t46.5 305.5t126.5 225t186.5 139t226.5 47.5q64 0 114 -6t90 -15.5t71 -22t57 -24.5q21 -11 31 -19t10 -22q0 -8 -5 -23t-16 -34 q-11 -20 -20.5 -31.5t-22.5 -11.5q-15 0 -38 13t-54 26q-32 12 -83.5 24.5t-133.5 12.5q-99 0 -178 -40t-134 -115t-84.5 -183.5t-29.5 -245.5t32.5 -244.5t90 -182t136.5 -114t171 -39.5q63 0 116.5 9t96.5 26q42 16 65.5 29.5t39.5 13.5q14 0 23 -9.5t20 -29.5 q11 -18 15.5 -31.5t4.5 -21.5zM725 -90q0 -14 -4.5 -28t-10.5 -29l-90 -224q-5 -12 -9.5 -19t-12 -10.5t-19.5 -4.5t-31 -1q-27 0 -35 8t-8 17q0 8 3 19t6 26l55 232q6 24 23.5 33.5t60.5 9.5q42 0 57 -8.5t15 -20.5z" />
<glyph unicode="&#xc8;" horiz-adv-x="1018" d="M983 94q0 -15 -2 -31t-4 -24q-5 -26 -16 -33q-5 -3 -11.5 -4.5t-17.5 -1.5h-696q-29 0 -41.5 4t-18.5 10q-12 13 -12 43v1258q0 31 12 43q6 6 18.5 10t41.5 4h706q11 0 16.5 -2.5t8.5 -5.5q3 -5 4.5 -10t1.5 -19q0 -15 -2 -31t-4 -24q-6 -25 -17 -33q-9 -6 -28 -6h-613 v-428h541q11 0 16 -2.5t8 -5.5q4 -5 5.5 -10t1.5 -19q0 -15 -2.5 -31t-4.5 -24q-5 -26 -16 -33q-9 -6 -29 -6h-520v-551h643q11 0 16.5 -2.5t8.5 -5.5q3 -5 4.5 -10t1.5 -19zM684 1485q0 -11 -10.5 -16.5t-42.5 -5.5q-25 0 -36.5 2.5t-19.5 7.5q-8 6 -15 14.5t-13 16.5 l-148 200q-20 28 -30.5 43.5t-10.5 26.5q0 14 15 21.5t53 7.5t64 -7t40 -32l135 -234q8 -14 13.5 -25.5t5.5 -19.5z" />
<glyph unicode="&#xc9;" horiz-adv-x="1018" d="M983 94q0 -15 -2 -31t-4 -24q-5 -26 -16 -33q-5 -3 -11.5 -4.5t-17.5 -1.5h-696q-29 0 -41.5 4t-18.5 10q-12 13 -12 43v1258q0 31 12 43q6 6 18.5 10t41.5 4h706q11 0 16.5 -2.5t8.5 -5.5q3 -5 4.5 -10t1.5 -19q0 -15 -2 -31t-4 -24q-6 -25 -17 -33q-9 -6 -28 -6h-613 v-428h541q11 0 16 -2.5t8 -5.5q4 -5 5.5 -10t1.5 -19q0 -15 -2.5 -31t-4.5 -24q-5 -26 -16 -33q-9 -6 -29 -6h-520v-551h643q11 0 16.5 -2.5t8.5 -5.5q3 -5 4.5 -10t1.5 -19zM838 1774q0 -11 -10.5 -26.5t-30.5 -43.5l-148 -200q-6 -8 -13 -16.5t-15 -14.5q-8 -5 -19.5 -7.5 t-36.5 -2.5q-32 0 -42.5 5.5t-10.5 16.5q0 8 5.5 19.5t13.5 25.5l135 234q14 25 40 32t64 7t53 -7.5t15 -21.5z" />
<glyph unicode="&#xca;" horiz-adv-x="1018" d="M983 94q0 -15 -2 -31t-4 -24q-5 -26 -16 -33q-5 -3 -11.5 -4.5t-17.5 -1.5h-696q-29 0 -41.5 4t-18.5 10q-12 13 -12 43v1258q0 31 12 43q6 6 18.5 10t41.5 4h706q11 0 16.5 -2.5t8.5 -5.5q3 -5 4.5 -10t1.5 -19q0 -15 -2 -31t-4 -24q-6 -25 -17 -33q-9 -6 -28 -6h-613 v-428h541q11 0 16 -2.5t8 -5.5q4 -5 5.5 -10t1.5 -19q0 -15 -2.5 -31t-4.5 -24q-5 -26 -16 -33q-9 -6 -29 -6h-520v-551h643q11 0 16.5 -2.5t8.5 -5.5q3 -5 4.5 -10t1.5 -19zM883 1485q0 -12 -13 -17t-48 -5q-31 0 -47 5.5t-31 22.5l-160 181l-160 -181q-15 -17 -31 -22.5 t-47 -5.5q-35 0 -48 5t-13 17q0 8 6 18t25 31l180 217q12 14 21 24t19 16t21.5 9t26.5 3t26.5 -3t21 -9t19 -16t21.5 -24l180 -217q19 -21 25 -31t6 -18z" />
<glyph unicode="&#xcb;" horiz-adv-x="1018" d="M983 94q0 -15 -2 -31t-4 -24q-5 -26 -16 -33q-5 -3 -11.5 -4.5t-17.5 -1.5h-696q-29 0 -41.5 4t-18.5 10q-12 13 -12 43v1258q0 31 12 43q6 6 18.5 10t41.5 4h706q11 0 16.5 -2.5t8.5 -5.5q3 -5 4.5 -10t1.5 -19q0 -15 -2 -31t-4 -24q-6 -25 -17 -33q-9 -6 -28 -6h-613 v-428h541q11 0 16 -2.5t8 -5.5q4 -5 5.5 -10t1.5 -19q0 -15 -2.5 -31t-4.5 -24q-5 -26 -16 -33q-9 -6 -29 -6h-520v-551h643q11 0 16.5 -2.5t8.5 -5.5q3 -5 4.5 -10t1.5 -19zM539 1569q0 -40 -26 -67t-68 -27q-19 0 -36 7t-29.5 20t-19.5 30t-7 37q0 42 27 69t65 27 q40 0 67 -27t27 -69zM817 1569q0 -40 -26 -67t-68 -27q-19 0 -36 7t-29.5 20t-19.5 30t-7 37q0 42 27 69t65 27q41 0 67.5 -27t26.5 -69z" />
<glyph unicode="&#xcc;" horiz-adv-x="473" d="M309 37q0 -14 -3 -21t-9 -12t-19 -8.5t-42 -3.5q-28 0 -42 3.5t-20 8.5q-10 7 -10 33v1298q0 14 2 21t8 12t20 8.5t42 3.5q29 0 42 -3.5t19 -8.5t9 -12t3 -21v-1298zM313 1485q0 -11 -10.5 -16.5t-42.5 -5.5q-25 0 -36.5 2.5t-19.5 7.5q-8 6 -15 14.5t-13 16.5l-148 200 q-20 28 -30.5 43.5t-10.5 26.5q0 14 15 21.5t53 7.5t64 -7t40 -32l135 -234q8 -14 13.5 -25.5t5.5 -19.5z" />
<glyph unicode="&#xcd;" horiz-adv-x="473" d="M309 37q0 -14 -3 -21t-9 -12t-19 -8.5t-42 -3.5q-28 0 -42 3.5t-20 8.5q-10 7 -10 33v1298q0 14 2 21t8 12t20 8.5t42 3.5q29 0 42 -3.5t19 -8.5t9 -12t3 -21v-1298zM489 1774q0 -11 -10.5 -26.5t-30.5 -43.5l-148 -200q-6 -8 -13 -16.5t-15 -14.5q-8 -5 -19.5 -7.5 t-36.5 -2.5q-32 0 -42.5 5.5t-10.5 16.5q0 8 5.5 19.5t13.5 25.5l135 234q14 25 40 32t64 7t53 -7.5t15 -21.5z" />
<glyph unicode="&#xce;" horiz-adv-x="473" d="M309 37q0 -14 -3 -21t-9 -12t-19 -8.5t-42 -3.5q-28 0 -42 3.5t-20 8.5q-10 7 -10 33v1298q0 14 2 21t8 12t20 8.5t42 3.5q29 0 42 -3.5t19 -8.5t9 -12t3 -21v-1298zM538 1485q0 -12 -13 -17t-48 -5q-31 0 -47 5.5t-31 22.5l-160 181l-160 -181q-15 -17 -31 -22.5 t-47 -5.5q-35 0 -48 5t-13 17q0 8 6 18t25 31l180 217q12 14 21 24t19 16t21.5 9t26.5 3t26.5 -3t21 -9t19 -16t21.5 -24l180 -217q19 -21 25 -31t6 -18z" />
<glyph unicode="&#xcf;" horiz-adv-x="473" d="M309 37q0 -14 -3 -21t-9 -12t-19 -8.5t-42 -3.5q-28 0 -42 3.5t-20 8.5q-10 7 -10 33v1298q0 14 2 21t8 12t20 8.5t42 3.5q29 0 42 -3.5t19 -8.5t9 -12t3 -21v-1298zM192 1569q0 -40 -26 -67t-68 -27q-19 0 -36 7t-29.5 20t-19.5 30t-7 37q0 42 27 69t65 27q40 0 67 -27 t27 -69zM470 1569q0 -40 -26 -67t-68 -27q-19 0 -36 7t-29.5 20t-19.5 30t-7 37q0 42 27 69t65 27q41 0 67.5 -27t26.5 -69z" />
<glyph unicode="&#xd0;" horiz-adv-x="1309" d="M1051 690q0 131 -27 234t-82 174t-138 108t-194 37h-301v-471h254q15 0 23 -8q6 -6 6 -23q0 -14 -1 -24t-3 -21q-3 -15 -8.5 -27.5t-10.5 -15.5t-9 -5.5t-15 -2.5h-236v-516h314q106 0 186.5 38.5t134 111t80.5 176.5t27 235zM1210 690q0 -167 -41.5 -296t-119 -216.5 t-187 -132.5t-244.5 -45h-382q-29 0 -41.5 4t-18.5 10q-12 13 -12 43v588h-115q-8 0 -13.5 2.5t-8.5 5.5q-7 7 -7 23q0 14 0.5 24.5t4.5 22.5q3 15 8 26.5t10 14.5t9.5 5.5t15.5 2.5h96v543q0 31 12 43q6 6 18.5 10t41.5 4h387q133 0 241.5 -43.5t185.5 -129.5t118.5 -213.5 t41.5 -295.5z" />
<glyph unicode="&#xd1;" horiz-adv-x="1239" d="M1075 37q0 -14 -3 -21t-9 -12t-20.5 -8.5t-43.5 -3.5q-32 0 -47.5 9.5t-27.5 29.5l-629 1040v-1034q0 -14 -3 -21t-9 -12q-7 -5 -19 -8.5t-41 -3.5q-28 0 -39.5 3.5t-17.5 8.5q-10 7 -10 33v1218l-35 56q-8 12 -13.5 21t-5.5 20q0 12 15 20t61 8t66.5 -6.5t34.5 -27.5 l657 -1088v1077q0 14 2 21t8 12t19 8.5t41 3.5q29 0 40 -3.5t17 -8.5t9 -12t3 -21v-1298zM922 1643q-20 -81 -61.5 -122.5t-110.5 -41.5q-35 0 -65 12t-58 27q-26 14 -53.5 28.5t-59.5 14.5q-18 0 -31.5 -9t-21.5 -20q-6 -9 -11 -19.5t-12 -21.5q-5 -8 -10 -10t-16 -2h-49 q-6 0 -11 1t-8 5t-3.5 13t3.5 24q20 81 61.5 122.5t110.5 41.5q38 0 67.5 -12.5t55.5 -26.5t54 -28.5t59 -14.5q18 0 31.5 8t21.5 21q6 9 11 19.5t12 21.5q5 8 10 10t16 2h49q6 0 11 -1t8 -5t3.5 -13t-3.5 -24z" />
<glyph unicode="&#xd2;" horiz-adv-x="1354" d="M1096 684q0 136 -28 245.5t-82 186t-131.5 117.5t-176.5 41q-100 0 -178 -41t-132 -117.5t-82 -186t-28 -245.5t28 -244.5t82 -184.5t132 -116.5t178 -40.5q99 0 176.5 40.5t131.5 116.5t82 184.5t28 244.5zM1255 684q0 -172 -43 -305t-120 -223.5t-183 -137.5t-231 -47 q-126 0 -232.5 47t-183.5 137.5t-120.5 223.5t-43.5 305t43.5 305.5t120.5 225t183.5 139t232.5 47.5q125 0 231 -47.5t183 -139t120 -225t43 -305.5zM797 1485q0 -11 -10.5 -16.5t-42.5 -5.5q-25 0 -36.5 2.5t-19.5 7.5q-8 6 -15 14.5t-13 16.5l-148 200q-20 28 -30.5 43.5 t-10.5 26.5q0 14 15 21.5t53 7.5t64 -7t40 -32l135 -234q8 -14 13.5 -25.5t5.5 -19.5z" />
<glyph unicode="&#xd3;" horiz-adv-x="1354" d="M1096 684q0 136 -28 245.5t-82 186t-131.5 117.5t-176.5 41q-100 0 -178 -41t-132 -117.5t-82 -186t-28 -245.5t28 -244.5t82 -184.5t132 -116.5t178 -40.5q99 0 176.5 40.5t131.5 116.5t82 184.5t28 244.5zM1255 684q0 -172 -43 -305t-120 -223.5t-183 -137.5t-231 -47 q-126 0 -232.5 47t-183.5 137.5t-120.5 223.5t-43.5 305t43.5 305.5t120.5 225t183.5 139t232.5 47.5q125 0 231 -47.5t183 -139t120 -225t43 -305.5zM920 1774q0 -11 -10.5 -26.5t-30.5 -43.5l-148 -200q-6 -8 -13 -16.5t-15 -14.5q-8 -5 -19.5 -7.5t-36.5 -2.5 q-32 0 -42.5 5.5t-10.5 16.5q0 8 5.5 19.5t13.5 25.5l135 234q14 25 40 32t64 7t53 -7.5t15 -21.5z" />
<glyph unicode="&#xd4;" horiz-adv-x="1354" d="M1096 684q0 136 -28 245.5t-82 186t-131.5 117.5t-176.5 41q-100 0 -178 -41t-132 -117.5t-82 -186t-28 -245.5t28 -244.5t82 -184.5t132 -116.5t178 -40.5q99 0 176.5 40.5t131.5 116.5t82 184.5t28 244.5zM1255 684q0 -172 -43 -305t-120 -223.5t-183 -137.5t-231 -47 q-126 0 -232.5 47t-183.5 137.5t-120.5 223.5t-43.5 305t43.5 305.5t120.5 225t183.5 139t232.5 47.5q125 0 231 -47.5t183 -139t120 -225t43 -305.5zM985 1485q0 -12 -13 -17t-48 -5q-31 0 -47 5.5t-31 22.5l-160 181l-160 -181q-15 -17 -31 -22.5t-47 -5.5q-35 0 -48 5 t-13 17q0 8 6 18t25 31l180 217q12 14 21 24t19 16t21.5 9t26.5 3t26.5 -3t21 -9t19 -16t21.5 -24l180 -217q19 -21 25 -31t6 -18z" />
<glyph unicode="&#xd5;" horiz-adv-x="1354" d="M1096 684q0 136 -28 245.5t-82 186t-131.5 117.5t-176.5 41q-100 0 -178 -41t-132 -117.5t-82 -186t-28 -245.5t28 -244.5t82 -184.5t132 -116.5t178 -40.5q99 0 176.5 40.5t131.5 116.5t82 184.5t28 244.5zM1255 684q0 -172 -43 -305t-120 -223.5t-183 -137.5t-231 -47 q-126 0 -232.5 47t-183.5 137.5t-120.5 223.5t-43.5 305t43.5 305.5t120.5 225t183.5 139t232.5 47.5q125 0 231 -47.5t183 -139t120 -225t43 -305.5zM985 1643q-20 -81 -61.5 -122.5t-110.5 -41.5q-35 0 -65 12t-58 27q-26 14 -53.5 28.5t-59.5 14.5q-18 0 -31.5 -9 t-21.5 -20q-6 -9 -11 -19.5t-12 -21.5q-5 -8 -10 -10t-16 -2h-49q-6 0 -11 1t-8 5t-3.5 13t3.5 24q20 81 61.5 122.5t110.5 41.5q38 0 67.5 -12.5t55.5 -26.5t54 -28.5t59 -14.5q18 0 31.5 8t21.5 21q6 9 11 19.5t12 21.5q5 8 10 10t16 2h49q6 0 11 -1t8 -5t3.5 -13 t-3.5 -24z" />
<glyph unicode="&#xd6;" horiz-adv-x="1354" d="M1096 684q0 136 -28 245.5t-82 186t-131.5 117.5t-176.5 41q-100 0 -178 -41t-132 -117.5t-82 -186t-28 -245.5t28 -244.5t82 -184.5t132 -116.5t178 -40.5q99 0 176.5 40.5t131.5 116.5t82 184.5t28 244.5zM1255 684q0 -172 -43 -305t-120 -223.5t-183 -137.5t-231 -47 q-126 0 -232.5 47t-183.5 137.5t-120.5 223.5t-43.5 305t43.5 305.5t120.5 225t183.5 139t232.5 47.5q125 0 231 -47.5t183 -139t120 -225t43 -305.5zM641 1569q0 -40 -26 -67t-68 -27q-19 0 -36 7t-29.5 20t-19.5 30t-7 37q0 42 27 69t65 27q40 0 67 -27t27 -69zM919 1569 q0 -40 -26 -67t-68 -27q-19 0 -36 7t-29.5 20t-19.5 30t-7 37q0 42 27 69t65 27q41 0 67.5 -27t26.5 -69z" />
<glyph unicode="&#xd7;" d="M793 383q0 -9 -6 -19.5t-23 -27.5q-19 -19 -28 -23t-17 -4t-14 3t-17 14l-205 219l-207 -219q-11 -11 -16.5 -14t-13.5 -3t-17.5 4t-27.5 23q-17 17 -23 27.5t-6 19.5q0 8 3.5 14t12.5 17l209 223l-209 221q-9 11 -12.5 17t-3.5 14q0 9 6 19.5t23 27.5q18 19 27.5 23 t17.5 4t13.5 -3t16.5 -14l207 -219l205 219q11 11 17 14t14 3t17 -4t28 -23q17 -17 23 -27.5t6 -19.5q0 -8 -4 -14t-13 -17l-209 -221l209 -223q9 -11 13 -17t4 -14z" />
<glyph unicode="&#xd8;" horiz-adv-x="1354" d="M1096 684q0 106 -18 196.5t-52 161.5l-637 -813q53 -63 125.5 -97t163.5 -34q99 0 176.5 40.5t131.5 116.5t82 184.5t28 244.5zM965 1145q-53 62 -124.5 95.5t-162.5 33.5q-100 0 -178 -41t-132 -117.5t-82 -186t-28 -245.5q0 -214 68 -356zM1278 1378q0 -9 -3 -14 t-9 -14l-140 -181q62 -89 95.5 -209.5t33.5 -275.5q0 -172 -43 -305t-120 -223.5t-183 -137.5t-231 -47q-112 0 -207 36t-170 108l-94 -121q-11 -13 -25.5 -18t-48.5 -5q-31 0 -44 7t-13 16t3 14l9 15l139 178q-62 88 -95.5 209t-33.5 274q0 172 43.5 305.5t120.5 225 t183.5 139t232.5 47.5q109 0 204 -36.5t171 -109.5l94 123q9 13 25.5 18t50.5 5q29 0 42 -6.5t13 -16.5z" />
<glyph unicode="&#xd9;" horiz-adv-x="1286" d="M1133 422q0 -98 -26 -181t-84.5 -143t-152 -93.5t-227.5 -33.5t-227.5 33.5t-151.5 93.5t-84 143t-26 181v913q0 14 2 21t8 12t19.5 8.5t41.5 3.5q29 0 42.5 -3.5t19.5 -8.5t9 -12t3 -21v-915q0 -154 84.5 -235t259.5 -81t259.5 81t84.5 235v915q0 14 2 21t8 12 q7 5 20.5 8.5t41.5 3.5q29 0 42 -3.5t19 -8.5t9.5 -12t3.5 -21v-913zM735 1485q0 -11 -10.5 -16.5t-42.5 -5.5q-25 0 -36.5 2.5t-19.5 7.5q-8 6 -15 14.5t-13 16.5l-148 200q-20 28 -30.5 43.5t-10.5 26.5q0 14 15 21.5t53 7.5t64 -7t40 -32l135 -234q8 -14 13.5 -25.5 t5.5 -19.5z" />
<glyph unicode="&#xda;" horiz-adv-x="1286" d="M1133 422q0 -98 -26 -181t-84.5 -143t-152 -93.5t-227.5 -33.5t-227.5 33.5t-151.5 93.5t-84 143t-26 181v913q0 14 2 21t8 12t19.5 8.5t41.5 3.5q29 0 42.5 -3.5t19.5 -8.5t9 -12t3 -21v-915q0 -154 84.5 -235t259.5 -81t259.5 81t84.5 235v915q0 14 2 21t8 12 q7 5 20.5 8.5t41.5 3.5q29 0 42 -3.5t19 -8.5t9.5 -12t3.5 -21v-913zM899 1774q0 -11 -10.5 -26.5t-30.5 -43.5l-148 -200q-6 -8 -13 -16.5t-15 -14.5q-8 -5 -19.5 -7.5t-36.5 -2.5q-32 0 -42.5 5.5t-10.5 16.5q0 8 5.5 19.5t13.5 25.5l135 234q14 25 40 32t64 7t53 -7.5 t15 -21.5z" />
<glyph unicode="&#xdb;" horiz-adv-x="1286" d="M1133 422q0 -98 -26 -181t-84.5 -143t-152 -93.5t-227.5 -33.5t-227.5 33.5t-151.5 93.5t-84 143t-26 181v913q0 14 2 21t8 12t19.5 8.5t41.5 3.5q29 0 42.5 -3.5t19.5 -8.5t9 -12t3 -21v-915q0 -154 84.5 -235t259.5 -81t259.5 81t84.5 235v915q0 14 2 21t8 12 q7 5 20.5 8.5t41.5 3.5q29 0 42 -3.5t19 -8.5t9.5 -12t3.5 -21v-913zM944 1485q0 -12 -13 -17t-48 -5q-31 0 -47 5.5t-31 22.5l-160 181l-160 -181q-15 -17 -31 -22.5t-47 -5.5q-35 0 -48 5t-13 17q0 8 6 18t25 31l180 217q12 14 21 24t19 16t21.5 9t26.5 3t26.5 -3t21 -9 t19 -16t21.5 -24l180 -217q19 -21 25 -31t6 -18z" />
<glyph unicode="&#xdc;" horiz-adv-x="1286" d="M1133 422q0 -98 -26 -181t-84.5 -143t-152 -93.5t-227.5 -33.5t-227.5 33.5t-151.5 93.5t-84 143t-26 181v913q0 14 2 21t8 12t19.5 8.5t41.5 3.5q29 0 42.5 -3.5t19.5 -8.5t9 -12t3 -21v-915q0 -154 84.5 -235t259.5 -81t259.5 81t84.5 235v915q0 14 2 21t8 12 q7 5 20.5 8.5t41.5 3.5q29 0 42 -3.5t19 -8.5t9.5 -12t3.5 -21v-913zM594 1569q0 -40 -26 -67t-68 -27q-19 0 -36 7t-29.5 20t-19.5 30t-7 37q0 42 27 69t65 27q40 0 67 -27t27 -69zM872 1569q0 -40 -26 -67t-68 -27q-19 0 -36 7t-29.5 20t-19.5 30t-7 37q0 42 27 69t65 27 q41 0 67.5 -27t26.5 -69z" />
<glyph unicode="&#xdd;" horiz-adv-x="1059" d="M1049 1356q0 -5 -1.5 -11.5t-11.5 -21.5l-438 -733v-553q0 -14 -3 -21t-9 -12t-19.5 -8.5t-42.5 -3.5q-28 0 -41.5 3.5t-19.5 8.5q-10 7 -10 33v553l-420 719q-11 17 -17 26t-6 19q0 11 10 18q7 3 20 5.5t42 2.5q35 0 51 -5.5t27 -22.5l372 -631l373 631q11 17 26 22.5 t50 5.5q25 0 38.5 -2.5t18.5 -5.5q7 -3 9 -8t2 -8zM817 1774q0 -11 -10.5 -26.5t-30.5 -43.5l-148 -200q-6 -8 -13 -16.5t-15 -14.5q-8 -5 -19.5 -7.5t-36.5 -2.5q-32 0 -42.5 5.5t-10.5 16.5q0 8 5.5 19.5t13.5 25.5l135 234q14 25 40 32t64 7t53 -7.5t15 -21.5z" />
<glyph unicode="&#xde;" horiz-adv-x="1096" d="M874 745q0 125 -83.5 186.5t-241.5 61.5h-244v-524q47 -3 107 -4.5t129 -1.5q83 0 145.5 19.5t104 56t62.5 89t21 117.5zM1030 748q0 -85 -26.5 -159.5t-84.5 -130t-149 -88t-221 -32.5q-68 0 -129.5 2t-114.5 4v-307q0 -14 -3 -21t-9 -12t-18.5 -8.5t-41.5 -3.5 q-27 0 -40 3.5t-19 8.5q-10 7 -10 33v1298q0 14 2 21t8 12t19 8.5t40 3.5q29 0 41.5 -3.5t18.5 -8.5t9 -12t3 -21v-217h252q230 0 351.5 -93t121.5 -277z" />
<glyph unicode="&#xdf;" horiz-adv-x="1092" d="M1008 289q0 -62 -18.5 -118t-58 -98.5t-102.5 -67.5t-153 -25q-28 0 -57.5 4t-58 10.5t-54 15.5t-43.5 19q-28 14 -49 30t-21 31q0 12 3 21t10 20q8 14 18 25.5t22 11.5q14 0 32.5 -11t43.5 -22q28 -12 67 -25.5t77 -13.5q52 0 90.5 15t63.5 40.5t37.5 57.5t12.5 67 q0 48 -20.5 82.5t-52 61t-70.5 45.5t-76 35q-41 18 -77.5 36t-63.5 41t-43 54t-16 74q0 40 12.5 71.5t32.5 63.5q8 12 15 23t15 24q17 25 33.5 50.5t29.5 52.5t21 56.5t8 61.5q0 42 -12.5 72.5t-34.5 50.5t-50.5 29.5t-59.5 9.5q-56 0 -94 -15.5t-61 -45.5t-32.5 -73.5 t-9.5 -99.5v-1005q0 -17 -6 -25t-16 -11t-22 -3h-25h-25q-11 0 -20 3t-14 11t-5 23v1022q0 74 18.5 135t58 104t100.5 66.5t147 23.5q84 0 142 -24.5t94 -61.5t52.5 -81t16.5 -83q0 -60 -16.5 -112t-47.5 -103q-9 -14 -16.5 -25t-15.5 -22q-14 -21 -27 -37.5t-23 -31.5 q-11 -16 -17.5 -34t-6.5 -38q0 -32 24 -54.5t52 -37.5q29 -16 64.5 -32t70.5 -36q37 -20 74.5 -43t68.5 -55q28 -29 46 -71.5t18 -108.5z" />
<glyph unicode="&#xe0;" horiz-adv-x="891" d="M633 461l-227 -23q-106 -11 -158.5 -53.5t-52.5 -130.5q0 -44 12.5 -75.5t34 -51.5t50.5 -29.5t62 -9.5q34 0 81.5 10t91.5 40.5t75 86t31 146.5v90zM795 31q0 -13 -13.5 -21.5t-25.5 -13.5q-13 -5 -25.5 -7.5t-28.5 -2.5q-11 0 -17.5 4.5t-12.5 13.5q-6 11 -11 22.5 t-10 26.5q-5 16 -8 26t-6 25q-60 -66 -131.5 -95t-165.5 -29q-55 0 -106 15t-90 47t-62 82.5t-23 121.5q0 73 21.5 125.5t62.5 88.5t101 56t137 27l252 22v31q0 47 -12.5 85t-39.5 65t-68.5 42t-98.5 15q-76 0 -132.5 -19t-101.5 -45q-11 -6 -17.5 -9t-19.5 -3 q-11 0 -20.5 11t-16.5 28q-8 15 -10 24t-2 17q0 9 9 18.5t34 22.5q29 15 58.5 27t63.5 20.5t73.5 13t89.5 4.5q179 0 264 -92q40 -42 60 -104t20 -158v-389q0 -40 7.5 -68t12.5 -41q4 -8 6.5 -16t2.5 -14zM532 1034q0 -11 -10.5 -16.5t-42.5 -5.5q-25 0 -36.5 2.5t-19.5 7.5 q-8 6 -15 14.5t-13 16.5l-148 200q-20 28 -30.5 43.5t-10.5 26.5q0 14 15 21.5t53 7.5t64 -7t40 -32l135 -234q8 -14 13.5 -25.5t5.5 -19.5z" />
<glyph unicode="&#xe1;" horiz-adv-x="891" d="M633 461l-227 -23q-106 -11 -158.5 -53.5t-52.5 -130.5q0 -44 12.5 -75.5t34 -51.5t50.5 -29.5t62 -9.5q34 0 81.5 10t91.5 40.5t75 86t31 146.5v90zM795 31q0 -13 -13.5 -21.5t-25.5 -13.5q-13 -5 -25.5 -7.5t-28.5 -2.5q-11 0 -17.5 4.5t-12.5 13.5q-6 11 -11 22.5 t-10 26.5q-5 16 -8 26t-6 25q-60 -66 -131.5 -95t-165.5 -29q-55 0 -106 15t-90 47t-62 82.5t-23 121.5q0 73 21.5 125.5t62.5 88.5t101 56t137 27l252 22v31q0 47 -12.5 85t-39.5 65t-68.5 42t-98.5 15q-76 0 -132.5 -19t-101.5 -45q-11 -6 -17.5 -9t-19.5 -3 q-11 0 -20.5 11t-16.5 28q-8 15 -10 24t-2 17q0 9 9 18.5t34 22.5q29 15 58.5 27t63.5 20.5t73.5 13t89.5 4.5q179 0 264 -92q40 -42 60 -104t20 -158v-389q0 -40 7.5 -68t12.5 -41q4 -8 6.5 -16t2.5 -14zM690 1323q0 -11 -10.5 -26.5t-30.5 -43.5l-148 -200 q-6 -8 -13 -16.5t-15 -14.5q-8 -5 -19.5 -7.5t-36.5 -2.5q-32 0 -42.5 5.5t-10.5 16.5q0 8 5.5 19.5t13.5 25.5l135 234q14 25 40 32t64 7t53 -7.5t15 -21.5z" />
<glyph unicode="&#xe2;" horiz-adv-x="891" d="M633 461l-227 -23q-106 -11 -158.5 -53.5t-52.5 -130.5q0 -44 12.5 -75.5t34 -51.5t50.5 -29.5t62 -9.5q34 0 81.5 10t91.5 40.5t75 86t31 146.5v90zM795 31q0 -13 -13.5 -21.5t-25.5 -13.5q-13 -5 -25.5 -7.5t-28.5 -2.5q-11 0 -17.5 4.5t-12.5 13.5q-6 11 -11 22.5 t-10 26.5q-5 16 -8 26t-6 25q-60 -66 -131.5 -95t-165.5 -29q-55 0 -106 15t-90 47t-62 82.5t-23 121.5q0 73 21.5 125.5t62.5 88.5t101 56t137 27l252 22v31q0 47 -12.5 85t-39.5 65t-68.5 42t-98.5 15q-76 0 -132.5 -19t-101.5 -45q-11 -6 -17.5 -9t-19.5 -3 q-11 0 -20.5 11t-16.5 28q-8 15 -10 24t-2 17q0 9 9 18.5t34 22.5q29 15 58.5 27t63.5 20.5t73.5 13t89.5 4.5q179 0 264 -92q40 -42 60 -104t20 -158v-389q0 -40 7.5 -68t12.5 -41q4 -8 6.5 -16t2.5 -14zM744 1034q0 -12 -13 -17t-48 -5q-31 0 -47 5.5t-31 22.5l-160 181 l-160 -181q-15 -17 -31 -22.5t-47 -5.5q-35 0 -48 5t-13 17q0 8 6 18t25 31l180 217q12 14 21 24t19 16t21.5 9t26.5 3t26.5 -3t21 -9t19 -16t21.5 -24l180 -217q19 -21 25 -31t6 -18z" />
<glyph unicode="&#xe3;" horiz-adv-x="891" d="M633 461l-227 -23q-106 -11 -158.5 -53.5t-52.5 -130.5q0 -44 12.5 -75.5t34 -51.5t50.5 -29.5t62 -9.5q34 0 81.5 10t91.5 40.5t75 86t31 146.5v90zM795 31q0 -13 -13.5 -21.5t-25.5 -13.5q-13 -5 -25.5 -7.5t-28.5 -2.5q-11 0 -17.5 4.5t-12.5 13.5q-6 11 -11 22.5 t-10 26.5q-5 16 -8 26t-6 25q-60 -66 -131.5 -95t-165.5 -29q-55 0 -106 15t-90 47t-62 82.5t-23 121.5q0 73 21.5 125.5t62.5 88.5t101 56t137 27l252 22v31q0 47 -12.5 85t-39.5 65t-68.5 42t-98.5 15q-76 0 -132.5 -19t-101.5 -45q-11 -6 -17.5 -9t-19.5 -3 q-11 0 -20.5 11t-16.5 28q-8 15 -10 24t-2 17q0 9 9 18.5t34 22.5q29 15 58.5 27t63.5 20.5t73.5 13t89.5 4.5q179 0 264 -92q40 -42 60 -104t20 -158v-389q0 -40 7.5 -68t12.5 -41q4 -8 6.5 -16t2.5 -14zM730 1192q-20 -81 -61.5 -122.5t-110.5 -41.5q-35 0 -65 12t-58 27 q-26 14 -53.5 28.5t-59.5 14.5q-18 0 -31.5 -9t-21.5 -20q-6 -9 -11 -19.5t-12 -21.5q-5 -8 -10 -10t-16 -2h-49q-6 0 -11 1t-8 5t-3.5 13t3.5 24q20 81 61.5 122.5t110.5 41.5q38 0 67.5 -12.5t55.5 -26.5t54 -28.5t59 -14.5q18 0 31.5 8t21.5 21q6 9 11 19.5t12 21.5 q5 8 10 10t16 2h49q6 0 11 -1t8 -5t3.5 -13t-3.5 -24z" />
<glyph unicode="&#xe4;" horiz-adv-x="891" d="M633 461l-227 -23q-106 -11 -158.5 -53.5t-52.5 -130.5q0 -44 12.5 -75.5t34 -51.5t50.5 -29.5t62 -9.5q34 0 81.5 10t91.5 40.5t75 86t31 146.5v90zM795 31q0 -13 -13.5 -21.5t-25.5 -13.5q-13 -5 -25.5 -7.5t-28.5 -2.5q-11 0 -17.5 4.5t-12.5 13.5q-6 11 -11 22.5 t-10 26.5q-5 16 -8 26t-6 25q-60 -66 -131.5 -95t-165.5 -29q-55 0 -106 15t-90 47t-62 82.5t-23 121.5q0 73 21.5 125.5t62.5 88.5t101 56t137 27l252 22v31q0 47 -12.5 85t-39.5 65t-68.5 42t-98.5 15q-76 0 -132.5 -19t-101.5 -45q-11 -6 -17.5 -9t-19.5 -3 q-11 0 -20.5 11t-16.5 28q-8 15 -10 24t-2 17q0 9 9 18.5t34 22.5q29 15 58.5 27t63.5 20.5t73.5 13t89.5 4.5q179 0 264 -92q40 -42 60 -104t20 -158v-389q0 -40 7.5 -68t12.5 -41q4 -8 6.5 -16t2.5 -14zM396 1118q0 -40 -26 -67t-68 -27q-19 0 -36 7t-29.5 20t-19.5 30 t-7 37q0 42 27 69t65 27q40 0 67 -27t27 -69zM674 1118q0 -40 -26 -67t-68 -27q-19 0 -36 7t-29.5 20t-19.5 30t-7 37q0 42 27 69t65 27q41 0 67.5 -27t26.5 -69z" />
<glyph unicode="&#xe5;" horiz-adv-x="891" d="M633 461l-227 -23q-106 -11 -158.5 -53.5t-52.5 -130.5q0 -44 12.5 -75.5t34 -51.5t50.5 -29.5t62 -9.5q34 0 81.5 10t91.5 40.5t75 86t31 146.5v90zM795 31q0 -13 -13.5 -21.5t-25.5 -13.5q-13 -5 -25.5 -7.5t-28.5 -2.5q-11 0 -17.5 4.5t-12.5 13.5q-6 11 -11 22.5 t-10 26.5q-5 16 -8 26t-6 25q-60 -66 -131.5 -95t-165.5 -29q-55 0 -106 15t-90 47t-62 82.5t-23 121.5q0 73 21.5 125.5t62.5 88.5t101 56t137 27l252 22v31q0 47 -12.5 85t-39.5 65t-68.5 42t-98.5 15q-76 0 -132.5 -19t-101.5 -45q-11 -6 -17.5 -9t-19.5 -3 q-11 0 -20.5 11t-16.5 28q-8 15 -10 24t-2 17q0 9 9 18.5t34 22.5q29 15 58.5 27t63.5 20.5t73.5 13t89.5 4.5q179 0 264 -92q40 -42 60 -104t20 -158v-389q0 -40 7.5 -68t12.5 -41q4 -8 6.5 -16t2.5 -14zM545 1200q0 19 -8 37t-21.5 31.5t-31.5 21.5t-37 8t-37 -8 t-31.5 -21.5t-21.5 -31.5t-8 -37t8 -37t21.5 -31.5t31.5 -21.5t37 -8t37 8t31.5 21.5t21.5 31.5t8 37zM635 1200q0 -39 -15 -73.5t-40.5 -60t-59.5 -40t-73 -14.5t-73.5 14.5t-60 40t-40 60t-14.5 73.5t14.5 73.5t40 60t60 40.5t73.5 15t73 -15t59.5 -40.5t40.5 -60 t15 -73.5z" />
<glyph unicode="&#xe6;" horiz-adv-x="1475" d="M633 461l-227 -23q-106 -11 -158.5 -53.5t-52.5 -130.5q0 -44 13 -75.5t35.5 -51.5t52.5 -29.5t64 -9.5q22 0 51 4t59.5 15.5t59.5 31.5t52 51.5t37 76t14 104.5v90zM1251 522q-2 66 -19.5 118.5t-48 89t-73 56t-94.5 19.5q-107 0 -169 -74.5t-81 -208.5h485zM1397 469 q0 -55 -70 -55h-561q4 -70 26.5 -126.5t58.5 -96t85 -61t106 -21.5q27 0 48 1.5t39 4.5t34.5 7t34.5 9q26 9 51.5 22t40.5 13q13 0 22 -9.5t17 -25.5q8 -15 13.5 -26.5t5.5 -20.5q0 -11 -7.5 -21.5t-37.5 -25.5q-44 -22 -109 -39.5t-156 -17.5q-109 0 -197 47.5t-139 132.5 q-54 -87 -146 -133.5t-198 -46.5q-61 0 -115.5 15t-95 47t-64.5 82.5t-24 121.5q0 73 21.5 125.5t62.5 88.5t101 56t137 27l252 22v31q0 47 -12.5 85t-39.5 65t-68.5 42t-98.5 15q-76 0 -132.5 -19t-101.5 -45q-11 -6 -17.5 -9t-19.5 -3q-11 0 -20.5 11t-16.5 28 q-8 15 -10 24t-2 17q0 9 9 18.5t34 22.5q29 15 58.5 27t63.5 20.5t73.5 13t89.5 4.5q45 0 90 -7t85.5 -24.5t73.5 -47t54 -74.5q53 77 127.5 115t167.5 38q89 0 159 -30.5t118.5 -88t74 -140t25.5 -185.5z" />
<glyph unicode="&#xe7;" horiz-adv-x="786" d="M752 86q0 -11 -9.5 -20.5t-40.5 -26.5q-41 -23 -95 -41t-130 -18q-81 0 -152.5 27.5t-125 85t-84.5 145.5t-31 208q0 102 29 188t81.5 148t127 96.5t165.5 34.5q34 0 60.5 -3t48.5 -7.5t40 -10.5t36 -13q23 -9 37 -17t21.5 -15t10 -12.5t2.5 -11.5q0 -9 -4.5 -22 t-9.5 -27q-8 -15 -16.5 -27t-24.5 -12q-12 0 -25.5 6.5t-31.5 16.5q-15 7 -30.5 13t-32.5 11t-38 8t-47 3q-59 0 -107 -27t-82.5 -73.5t-53.5 -110t-19 -136.5q0 -75 18 -138t51 -108t81 -70.5t108 -25.5q50 0 82 9.5t60 23.5q21 11 37.5 21t31.5 10q16 0 24.5 -11.5 t16.5 -25.5q8 -11 14.5 -22.5t6.5 -22.5zM542 -90q0 -14 -4.5 -28t-10.5 -29l-90 -224q-5 -12 -9.5 -19t-12 -10.5t-19.5 -4.5t-31 -1q-27 0 -35 8t-8 17q0 8 3 19t6 26l55 232q6 24 23.5 33.5t60.5 9.5q42 0 57 -8.5t15 -20.5z" />
<glyph unicode="&#xe8;" horiz-adv-x="930" d="M707 522q-3 66 -20.5 118.5t-48 89t-73 56t-94.5 19.5q-106 0 -168.5 -74.5t-81.5 -208.5h486zM852 469q0 -55 -70 -55h-561q4 -70 26.5 -126.5t59 -96t85 -61t106.5 -21.5q53 0 86.5 5.5t68.5 16.5q26 9 51.5 22t40.5 13q13 0 22 -9.5t17 -25.5q8 -15 13.5 -26.5 t5.5 -20.5q0 -11 -7 -20.5t-38 -26.5q-44 -22 -108.5 -39.5t-155.5 -17.5q-92 0 -167.5 33t-129.5 94t-83.5 147.5t-29.5 194.5q0 106 29 192t80.5 146.5t123.5 93t158 32.5q89 0 159 -30.5t118.5 -88t74 -140t25.5 -185.5zM624 1034q0 -11 -10.5 -16.5t-42.5 -5.5 q-25 0 -36.5 2.5t-19.5 7.5q-8 6 -15 14.5t-13 16.5l-148 200q-20 28 -30.5 43.5t-10.5 26.5q0 14 15 21.5t53 7.5t64 -7t40 -32l135 -234q8 -14 13.5 -25.5t5.5 -19.5z" />
<glyph unicode="&#xe9;" horiz-adv-x="930" d="M707 522q-3 66 -20.5 118.5t-48 89t-73 56t-94.5 19.5q-106 0 -168.5 -74.5t-81.5 -208.5h486zM852 469q0 -55 -70 -55h-561q4 -70 26.5 -126.5t59 -96t85 -61t106.5 -21.5q53 0 86.5 5.5t68.5 16.5q26 9 51.5 22t40.5 13q13 0 22 -9.5t17 -25.5q8 -15 13.5 -26.5 t5.5 -20.5q0 -11 -7 -20.5t-38 -26.5q-44 -22 -108.5 -39.5t-155.5 -17.5q-92 0 -167.5 33t-129.5 94t-83.5 147.5t-29.5 194.5q0 106 29 192t80.5 146.5t123.5 93t158 32.5q89 0 159 -30.5t118.5 -88t74 -140t25.5 -185.5zM735 1323q0 -11 -10.5 -26.5t-30.5 -43.5 l-148 -200q-6 -8 -13 -16.5t-15 -14.5q-8 -5 -19.5 -7.5t-36.5 -2.5q-32 0 -42.5 5.5t-10.5 16.5q0 8 5.5 19.5t13.5 25.5l135 234q14 25 40 32t64 7t53 -7.5t15 -21.5z" />
<glyph unicode="&#xea;" horiz-adv-x="930" d="M707 522q-3 66 -20.5 118.5t-48 89t-73 56t-94.5 19.5q-106 0 -168.5 -74.5t-81.5 -208.5h486zM852 469q0 -55 -70 -55h-561q4 -70 26.5 -126.5t59 -96t85 -61t106.5 -21.5q53 0 86.5 5.5t68.5 16.5q26 9 51.5 22t40.5 13q13 0 22 -9.5t17 -25.5q8 -15 13.5 -26.5 t5.5 -20.5q0 -11 -7 -20.5t-38 -26.5q-44 -22 -108.5 -39.5t-155.5 -17.5q-92 0 -167.5 33t-129.5 94t-83.5 147.5t-29.5 194.5q0 106 29 192t80.5 146.5t123.5 93t158 32.5q89 0 159 -30.5t118.5 -88t74 -140t25.5 -185.5zM792 1034q0 -12 -13 -17t-48 -5q-31 0 -47 5.5 t-31 22.5l-160 181l-160 -181q-15 -17 -31 -22.5t-47 -5.5q-35 0 -48 5t-13 17q0 8 6 18t25 31l180 217q12 14 21 24t19 16t21.5 9t26.5 3t26.5 -3t21 -9t19 -16t21.5 -24l180 -217q19 -21 25 -31t6 -18z" />
<glyph unicode="&#xeb;" horiz-adv-x="930" d="M707 522q-3 66 -20.5 118.5t-48 89t-73 56t-94.5 19.5q-106 0 -168.5 -74.5t-81.5 -208.5h486zM852 469q0 -55 -70 -55h-561q4 -70 26.5 -126.5t59 -96t85 -61t106.5 -21.5q53 0 86.5 5.5t68.5 16.5q26 9 51.5 22t40.5 13q13 0 22 -9.5t17 -25.5q8 -15 13.5 -26.5 t5.5 -20.5q0 -11 -7 -20.5t-38 -26.5q-44 -22 -108.5 -39.5t-155.5 -17.5q-92 0 -167.5 33t-129.5 94t-83.5 147.5t-29.5 194.5q0 106 29 192t80.5 146.5t123.5 93t158 32.5q89 0 159 -30.5t118.5 -88t74 -140t25.5 -185.5zM458 1118q0 -40 -26 -67t-68 -27q-19 0 -36 7 t-29.5 20t-19.5 30t-7 37q0 42 27 69t65 27q40 0 67 -27t27 -69zM736 1118q0 -40 -26 -67t-68 -27q-19 0 -36 7t-29.5 20t-19.5 30t-7 37q0 42 27 69t65 27q41 0 67.5 -27t26.5 -69z" />
<glyph unicode="&#xec;" horiz-adv-x="395" d="M264 37q0 -14 -2.5 -21t-7.5 -12q-6 -5 -18 -8.5t-39 -3.5q-28 0 -38.5 3.5t-17.5 8.5q-5 5 -7.5 12t-2.5 21v805q0 15 3 24.5t9 16.5q5 5 16.5 8t26.5 8q16 3 26 4.5t19 1.5q19 0 25 -6q5 -5 6.5 -10.5t1.5 -18.5v-833zM276 1034q0 -11 -10.5 -16.5t-42.5 -5.5 q-25 0 -36.5 2.5t-19.5 7.5q-8 6 -15 14.5t-13 16.5l-148 200q-20 28 -30.5 43.5t-10.5 26.5q0 14 15 21.5t53 7.5t64 -7t40 -32l135 -234q8 -14 13.5 -25.5t5.5 -19.5z" />
<glyph unicode="&#xed;" horiz-adv-x="395" d="M264 37q0 -14 -2.5 -21t-7.5 -12q-6 -5 -18 -8.5t-39 -3.5q-28 0 -38.5 3.5t-17.5 8.5q-5 5 -7.5 12t-2.5 21v805q0 15 3 24.5t9 16.5q5 5 16.5 8t26.5 8q16 3 26 4.5t19 1.5q19 0 25 -6q5 -5 6.5 -10.5t1.5 -18.5v-833zM448 1323q0 -11 -10.5 -26.5t-30.5 -43.5 l-148 -200q-6 -8 -13 -16.5t-15 -14.5q-8 -5 -19.5 -7.5t-36.5 -2.5q-32 0 -42.5 5.5t-10.5 16.5q0 8 5.5 19.5t13.5 25.5l135 234q14 25 40 32t64 7t53 -7.5t15 -21.5z" />
<glyph unicode="&#xee;" horiz-adv-x="395" d="M264 37q0 -14 -2.5 -21t-7.5 -12q-6 -5 -18 -8.5t-39 -3.5q-28 0 -38.5 3.5t-17.5 8.5q-5 5 -7.5 12t-2.5 21v805q0 15 3 24.5t9 16.5q5 5 16.5 8t26.5 8q16 3 26 4.5t19 1.5q19 0 25 -6q5 -5 6.5 -10.5t1.5 -18.5v-833zM499 1034q0 -12 -13 -17t-48 -5q-31 0 -47 5.5 t-31 22.5l-160 181l-160 -181q-15 -17 -31 -22.5t-47 -5.5q-35 0 -48 5t-13 17q0 8 6 18t25 31l180 217q12 14 21 24t19 16t21.5 9t26.5 3t26.5 -3t21 -9t19 -16t21.5 -24l180 -217q19 -21 25 -31t6 -18z" />
<glyph unicode="&#xef;" horiz-adv-x="395" d="M264 37q0 -14 -2.5 -21t-7.5 -12q-6 -5 -18 -8.5t-39 -3.5q-28 0 -38.5 3.5t-17.5 8.5q-5 5 -7.5 12t-2.5 21v805q0 15 3 24.5t9 16.5q5 5 16.5 8t26.5 8q16 3 26 4.5t19 1.5q19 0 25 -6q5 -5 6.5 -10.5t1.5 -18.5v-833zM153 1118q0 -40 -26 -67t-68 -27q-19 0 -36 7 t-29.5 20t-19.5 30t-7 37q0 42 27 69t65 27q40 0 67 -27t27 -69zM431 1118q0 -40 -26 -67t-68 -27q-19 0 -36 7t-29.5 20t-19.5 30t-7 37q0 42 27 69t65 27q41 0 67.5 -27t26.5 -69z" />
<glyph unicode="&#xf0;" horiz-adv-x="983" d="M768 434q0 70 -18.5 133t-53.5 111t-86.5 76t-117.5 28t-117.5 -28t-87 -76t-54 -111t-18.5 -133q0 -71 18.5 -133.5t53.5 -109t87 -74t118 -27.5q65 0 116.5 27.5t87 74t54 109t18.5 133.5zM905 524q0 -137 -32.5 -239t-88.5 -169.5t-131 -101.5t-161 -34t-161.5 32.5 t-131.5 92.5t-88.5 145t-32.5 190q0 112 31.5 197t85 142t124 85.5t148.5 28.5q37 0 74.5 -6.5t71.5 -19t63.5 -30.5t50.5 -42q-17 68 -43.5 142t-71.5 146l-153 -63q-13 -5 -21.5 -7.5t-17.5 -2.5q-8 0 -16.5 7t-16.5 25q-8 23 -8 33q0 16 22 25l154 63q-23 28 -48 53 t-56 50q-22 18 -28.5 27t-6.5 20q0 13 16 37q16 20 23.5 25t19.5 5q11 0 25.5 -7.5t31.5 -18.5q36 -22 73.5 -57.5t74.5 -82.5l133 56q12 5 21 7.5t18 2.5q8 0 16.5 -7t16.5 -26q5 -12 6.5 -20t1.5 -13q0 -9 -6 -14t-17 -10l-135 -55q19 -29 35.5 -61t32.5 -66 q26 -59 45 -120.5t32 -123.5t19 -123t6 -117z" />
<glyph unicode="&#xf1;" horiz-adv-x="999" d="M874 37q0 -14 -2.5 -21t-7.5 -12q-6 -5 -17.5 -8.5t-39.5 -3.5t-38.5 3.5t-16.5 8.5q-5 5 -8 12t-3 21v522q0 122 -53.5 181t-163.5 59q-54 0 -101 -22.5t-82.5 -60t-56 -87t-20.5 -103.5v-489q0 -14 -2.5 -21t-7.5 -12q-6 -5 -18 -8.5t-39 -3.5q-28 0 -38.5 3.5 t-17.5 8.5q-5 5 -7.5 12t-2.5 21v805q0 15 3 24.5t9 16.5q5 5 16.5 8t26.5 8q16 3 26 4.5t19 1.5q19 0 25 -6q5 -5 6.5 -10.5t1.5 -18.5v-102q42 63 118 104t175 41q82 0 142 -24.5t99 -68.5t57.5 -104.5t18.5 -133.5v-545zM821 1192q-20 -81 -61.5 -122.5t-110.5 -41.5 q-35 0 -65 12t-58 27q-26 14 -53.5 28.5t-59.5 14.5q-18 0 -31.5 -9t-21.5 -20q-6 -9 -11 -19.5t-12 -21.5q-5 -8 -10 -10t-16 -2h-49q-6 0 -11 1t-8 5t-3.5 13t3.5 24q20 81 61.5 122.5t110.5 41.5q38 0 67.5 -12.5t55.5 -26.5t54 -28.5t59 -14.5q18 0 31.5 8t21.5 21 q6 9 11 19.5t12 21.5q5 8 10 10t16 2h49q6 0 11 -1t8 -5t3.5 -13t-3.5 -24z" />
<glyph unicode="&#xf2;" horiz-adv-x="997" d="M776 446q0 72 -18 136t-53 112t-87 76.5t-120 28.5t-119.5 -28.5t-86.5 -76.5t-53 -112t-18 -136q0 -71 18 -135t53 -112t86.5 -76.5t119.5 -28.5t120 28.5t87 76.5t53 112t18 135zM913 446q0 -106 -31 -192t-86.5 -147t-131.5 -94t-166 -33q-89 0 -165 33t-131.5 94 t-86.5 147t-31 192t31 192.5t86.5 147.5t131.5 94t165 33q90 0 166 -33t131.5 -94t86.5 -147.5t31 -192.5zM634 1034q0 -11 -10.5 -16.5t-42.5 -5.5q-25 0 -36.5 2.5t-19.5 7.5q-8 6 -15 14.5t-13 16.5l-148 200q-20 28 -30.5 43.5t-10.5 26.5q0 14 15 21.5t53 7.5t64 -7 t40 -32l135 -234q8 -14 13.5 -25.5t5.5 -19.5z" />
<glyph unicode="&#xf3;" horiz-adv-x="997" d="M776 446q0 72 -18 136t-53 112t-87 76.5t-120 28.5t-119.5 -28.5t-86.5 -76.5t-53 -112t-18 -136q0 -71 18 -135t53 -112t86.5 -76.5t119.5 -28.5t120 28.5t87 76.5t53 112t18 135zM913 446q0 -106 -31 -192t-86.5 -147t-131.5 -94t-166 -33q-89 0 -165 33t-131.5 94 t-86.5 147t-31 192t31 192.5t86.5 147.5t131.5 94t165 33q90 0 166 -33t131.5 -94t86.5 -147.5t31 -192.5zM735 1323q0 -11 -10.5 -26.5t-30.5 -43.5l-148 -200q-6 -8 -13 -16.5t-15 -14.5q-8 -5 -19.5 -7.5t-36.5 -2.5q-32 0 -42.5 5.5t-10.5 16.5q0 8 5.5 19.5t13.5 25.5 l135 234q14 25 40 32t64 7t53 -7.5t15 -21.5z" />
<glyph unicode="&#xf4;" horiz-adv-x="997" d="M776 446q0 72 -18 136t-53 112t-87 76.5t-120 28.5t-119.5 -28.5t-86.5 -76.5t-53 -112t-18 -136q0 -71 18 -135t53 -112t86.5 -76.5t119.5 -28.5t120 28.5t87 76.5t53 112t18 135zM913 446q0 -106 -31 -192t-86.5 -147t-131.5 -94t-166 -33q-89 0 -165 33t-131.5 94 t-86.5 147t-31 192t31 192.5t86.5 147.5t131.5 94t165 33q90 0 166 -33t131.5 -94t86.5 -147.5t31 -192.5zM802 1034q0 -12 -13 -17t-48 -5q-31 0 -47 5.5t-31 22.5l-160 181l-160 -181q-15 -17 -31 -22.5t-47 -5.5q-35 0 -48 5t-13 17q0 8 6 18t25 31l180 217q12 14 21 24 t19 16t21.5 9t26.5 3t26.5 -3t21 -9t19 -16t21.5 -24l180 -217q19 -21 25 -31t6 -18z" />
<glyph unicode="&#xf5;" horiz-adv-x="997" d="M776 446q0 72 -18 136t-53 112t-87 76.5t-120 28.5t-119.5 -28.5t-86.5 -76.5t-53 -112t-18 -136q0 -71 18 -135t53 -112t86.5 -76.5t119.5 -28.5t120 28.5t87 76.5t53 112t18 135zM913 446q0 -106 -31 -192t-86.5 -147t-131.5 -94t-166 -33q-89 0 -165 33t-131.5 94 t-86.5 147t-31 192t31 192.5t86.5 147.5t131.5 94t165 33q90 0 166 -33t131.5 -94t86.5 -147.5t31 -192.5zM803 1192q-20 -81 -61.5 -122.5t-110.5 -41.5q-35 0 -65 12t-58 27q-26 14 -53.5 28.5t-59.5 14.5q-18 0 -31.5 -9t-21.5 -20q-6 -9 -11 -19.5t-12 -21.5 q-5 -8 -10 -10t-16 -2h-49q-6 0 -11 1t-8 5t-3.5 13t3.5 24q20 81 61.5 122.5t110.5 41.5q38 0 67.5 -12.5t55.5 -26.5t54 -28.5t59 -14.5q18 0 31.5 8t21.5 21q6 9 11 19.5t12 21.5q5 8 10 10t16 2h49q6 0 11 -1t8 -5t3.5 -13t-3.5 -24z" />
<glyph unicode="&#xf6;" horiz-adv-x="997" d="M776 446q0 72 -18 136t-53 112t-87 76.5t-120 28.5t-119.5 -28.5t-86.5 -76.5t-53 -112t-18 -136q0 -71 18 -135t53 -112t86.5 -76.5t119.5 -28.5t120 28.5t87 76.5t53 112t18 135zM913 446q0 -106 -31 -192t-86.5 -147t-131.5 -94t-166 -33q-89 0 -165 33t-131.5 94 t-86.5 147t-31 192t31 192.5t86.5 147.5t131.5 94t165 33q90 0 166 -33t131.5 -94t86.5 -147.5t31 -192.5zM462 1118q0 -40 -26 -67t-68 -27q-19 0 -36 7t-29.5 20t-19.5 30t-7 37q0 42 27 69t65 27q40 0 67 -27t27 -69zM740 1118q0 -40 -26 -67t-68 -27q-19 0 -36 7 t-29.5 20t-19.5 30t-7 37q0 42 27 69t65 27q41 0 67.5 -27t26.5 -69z" />
<glyph unicode="&#xf7;" d="M586 301q0 -21 -9 -39.5t-23.5 -33t-34 -23t-40.5 -8.5q-20 0 -38.5 8.5t-32.5 23t-22.5 33t-8.5 39.5t8 41t22 35t32.5 24t39.5 9q20 0 39 -9t34 -24t24.5 -35t9.5 -41zM899 633q0 -28 -3.5 -37t-8.5 -14t-12 -8t-21 -3h-743q-14 0 -21 3t-12 8t-8.5 14t-3.5 37t3.5 38 t8.5 15t12 7.5t21 2.5h743q14 0 21 -2.5t12 -7.5t8.5 -15t3.5 -38zM586 965q0 -22 -9 -41.5t-23.5 -34t-34 -23t-40.5 -8.5q-20 0 -38.5 8.5t-32.5 23t-22.5 34t-8.5 41.5q0 21 8 40t22 33.5t32.5 23.5t39.5 9q20 0 39 -9t34 -23.5t24.5 -33.5t9.5 -40z" />
<glyph unicode="&#xf8;" horiz-adv-x="997" d="M776 446q0 60 -12 114t-37 99l-408 -493q35 -34 79 -53t100 -19q68 0 120 28.5t87 76.5t53 112t18 135zM668 735q-32 31 -75 47.5t-95 16.5q-68 0 -119.5 -28.5t-86.5 -76.5t-53 -112t-18 -136q0 -112 43 -200zM913 446q0 -106 -31 -192t-86.5 -147t-131.5 -94t-166 -33 q-75 0 -139.5 23t-116.5 67l-39 -47q-6 -6 -11 -10.5t-11.5 -7.5t-16.5 -4t-25 -1q-28 0 -38.5 6.5t-10.5 16.5q0 8 3.5 14.5t17.5 21.5l65 80q-45 59 -68.5 136t-23.5 171q0 106 31 192.5t86.5 147.5t131.5 94t165 33q71 0 133.5 -20.5t113.5 -61.5l50 60q10 12 21.5 17 t43.5 5q28 0 37.5 -6.5t9.5 -15.5q0 -8 -3 -15t-15 -22l-76 -90q48 -59 74 -138.5t26 -179.5z" />
<glyph unicode="&#xf9;" horiz-adv-x="999" d="M868 37q0 -14 -2.5 -21t-7.5 -12t-13 -8.5t-36 -3.5t-38 3.5t-15 8.5t-8 12t-3 21v98q-54 -77 -130.5 -116t-172.5 -39q-82 0 -142 24.5t-99 68.5t-57.5 104.5t-18.5 133.5v545q0 14 2.5 21t7.5 12q6 5 18 8.5t40 3.5q27 0 38 -3.5t17 -8.5q5 -5 7.5 -12t2.5 -21v-522 q0 -122 54 -181t163 -59q54 0 101 22.5t82.5 60t56 87t20.5 103.5v489q0 14 2.5 21t7.5 12q7 5 18.5 8.5t39.5 3.5t38.5 -3.5t16.5 -8.5q5 -5 7.5 -12t2.5 -21v-819zM614 1034q0 -11 -10.5 -16.5t-42.5 -5.5q-25 0 -36.5 2.5t-19.5 7.5q-8 6 -15 14.5t-13 16.5l-148 200 q-20 28 -30.5 43.5t-10.5 26.5q0 14 15 21.5t53 7.5t64 -7t40 -32l135 -234q8 -14 13.5 -25.5t5.5 -19.5z" />
<glyph unicode="&#xfa;" horiz-adv-x="999" d="M868 37q0 -14 -2.5 -21t-7.5 -12t-13 -8.5t-36 -3.5t-38 3.5t-15 8.5t-8 12t-3 21v98q-54 -77 -130.5 -116t-172.5 -39q-82 0 -142 24.5t-99 68.5t-57.5 104.5t-18.5 133.5v545q0 14 2.5 21t7.5 12q6 5 18 8.5t40 3.5q27 0 38 -3.5t17 -8.5q5 -5 7.5 -12t2.5 -21v-522 q0 -122 54 -181t163 -59q54 0 101 22.5t82.5 60t56 87t20.5 103.5v489q0 14 2.5 21t7.5 12q7 5 18.5 8.5t39.5 3.5t38.5 -3.5t16.5 -8.5q5 -5 7.5 -12t2.5 -21v-819zM764 1323q0 -11 -10.5 -26.5t-30.5 -43.5l-148 -200q-6 -8 -13 -16.5t-15 -14.5q-8 -5 -19.5 -7.5 t-36.5 -2.5q-32 0 -42.5 5.5t-10.5 16.5q0 8 5.5 19.5t13.5 25.5l135 234q14 25 40 32t64 7t53 -7.5t15 -21.5z" />
<glyph unicode="&#xfb;" horiz-adv-x="999" d="M868 37q0 -14 -2.5 -21t-7.5 -12t-13 -8.5t-36 -3.5t-38 3.5t-15 8.5t-8 12t-3 21v98q-54 -77 -130.5 -116t-172.5 -39q-82 0 -142 24.5t-99 68.5t-57.5 104.5t-18.5 133.5v545q0 14 2.5 21t7.5 12q6 5 18 8.5t40 3.5q27 0 38 -3.5t17 -8.5q5 -5 7.5 -12t2.5 -21v-522 q0 -122 54 -181t163 -59q54 0 101 22.5t82.5 60t56 87t20.5 103.5v489q0 14 2.5 21t7.5 12q7 5 18.5 8.5t39.5 3.5t38.5 -3.5t16.5 -8.5q5 -5 7.5 -12t2.5 -21v-819zM800 1034q0 -12 -13 -17t-48 -5q-31 0 -47 5.5t-31 22.5l-160 181l-160 -181q-15 -17 -31 -22.5t-47 -5.5 q-35 0 -48 5t-13 17q0 8 6 18t25 31l180 217q12 14 21 24t19 16t21.5 9t26.5 3t26.5 -3t21 -9t19 -16t21.5 -24l180 -217q19 -21 25 -31t6 -18z" />
<glyph unicode="&#xfc;" horiz-adv-x="999" d="M868 37q0 -14 -2.5 -21t-7.5 -12t-13 -8.5t-36 -3.5t-38 3.5t-15 8.5t-8 12t-3 21v98q-54 -77 -130.5 -116t-172.5 -39q-82 0 -142 24.5t-99 68.5t-57.5 104.5t-18.5 133.5v545q0 14 2.5 21t7.5 12q6 5 18 8.5t40 3.5q27 0 38 -3.5t17 -8.5q5 -5 7.5 -12t2.5 -21v-522 q0 -122 54 -181t163 -59q54 0 101 22.5t82.5 60t56 87t20.5 103.5v489q0 14 2.5 21t7.5 12q7 5 18.5 8.5t39.5 3.5t38.5 -3.5t16.5 -8.5q5 -5 7.5 -12t2.5 -21v-819zM448 1118q0 -40 -26 -67t-68 -27q-19 0 -36 7t-29.5 20t-19.5 30t-7 37q0 42 27 69t65 27q40 0 67 -27 t27 -69zM726 1118q0 -40 -26 -67t-68 -27q-19 0 -36 7t-29.5 20t-19.5 30t-7 37q0 42 27 69t65 27q41 0 67.5 -27t26.5 -69z" />
<glyph unicode="&#xfd;" horiz-adv-x="879" d="M867.5 851.5q-4.5 -12.5 -7.5 -22.5l-530 -1200q-5 -11 -10 -17.5t-13 -10.5t-20.5 -5.5t-32.5 -1.5q-35 0 -48 6.5t-13 20.5q0 6 3.5 15t8.5 20l184 414l-364 759l-10 20t-5 21q0 14 17 22.5t55 8.5q35 0 49 -5t21 -19l303 -654l280 641q10 20 26 28.5t56 8.5 q55 0 55 -31q0 -6 -4.5 -18.5zM756 1323q0 -11 -10.5 -26.5t-30.5 -43.5l-148 -200q-6 -8 -13 -16.5t-15 -14.5q-8 -5 -19.5 -7.5t-36.5 -2.5q-32 0 -42.5 5.5t-10.5 16.5q0 8 5.5 19.5t13.5 25.5l135 234q14 25 40 32t64 7t53 -7.5t15 -21.5z" />
<glyph unicode="&#xfe;" horiz-adv-x="1004" d="M793 455q0 67 -15 129t-47.5 109.5t-84 75.5t-124.5 28q-70 0 -120.5 -31t-83.5 -80t-48.5 -110t-15.5 -121q0 -72 15.5 -137.5t48.5 -114.5t83 -78t119 -29q72 0 123.5 29t84.5 78.5t49 114.5t16 137zM934 461q0 -111 -28 -200t-79 -151.5t-122 -96t-158 -33.5 q-55 0 -97.5 9.5t-76.5 26.5t-60.5 41.5t-48.5 53.5v-459q0 -14 -2.5 -21t-7.5 -12q-6 -5 -18 -8.5t-39 -3.5q-28 0 -38.5 3.5t-17.5 8.5q-5 5 -7.5 12t-2.5 21v1665q0 29 12 41q5 5 16.5 8t26.5 8q16 3 26 4.5t19 1.5q19 0 25 -6q5 -5 6.5 -10.5t1.5 -17.5v-572 q47 69 121.5 104t167.5 35t164 -33t119.5 -93t73 -143t24.5 -183z" />
<glyph unicode="&#xff;" horiz-adv-x="879" d="M867.5 851.5q-4.5 -12.5 -7.5 -22.5l-530 -1200q-5 -11 -10 -17.5t-13 -10.5t-20.5 -5.5t-32.5 -1.5q-35 0 -48 6.5t-13 20.5q0 6 3.5 15t8.5 20l184 414l-364 759l-10 20t-5 21q0 14 17 22.5t55 8.5q35 0 49 -5t21 -19l303 -654l280 641q10 20 26 28.5t56 8.5 q55 0 55 -31q0 -6 -4.5 -18.5zM386 1118q0 -40 -26 -67t-68 -27q-19 0 -36 7t-29.5 20t-19.5 30t-7 37q0 42 27 69t65 27q40 0 67 -27t27 -69zM664 1118q0 -40 -26 -67t-68 -27q-19 0 -36 7t-29.5 20t-19.5 30t-7 37q0 42 27 69t65 27q41 0 67.5 -27t26.5 -69z" />
<glyph unicode="&#x131;" horiz-adv-x="395" d="M264 37q0 -14 -2.5 -21t-7.5 -12q-6 -5 -18 -8.5t-39 -3.5q-28 0 -38.5 3.5t-17.5 8.5q-5 5 -7.5 12t-2.5 21v805q0 15 3 24.5t9 16.5q5 5 16.5 8t26.5 8q16 3 26 4.5t19 1.5q19 0 25 -6q5 -5 6.5 -10.5t1.5 -18.5v-833z" />
<glyph unicode="&#x152;" horiz-adv-x="1937" d="M1083 684q0 136 -27 245t-79.5 185t-129 117t-175.5 41q-100 0 -177 -41t-129.5 -117t-80 -185t-27.5 -245t27.5 -244t80 -183.5t129.5 -116t177 -40.5q99 0 175.5 40.5t129 116t79.5 183.5t27 244zM1903 94q0 -15 -2.5 -31t-4.5 -24q-5 -26 -16 -33q-9 -6 -29 -6h-696 q-29 0 -41 4t-18 10q-13 13 -13 43v127q-40 -54 -83 -94.5t-93 -66.5t-108 -39t-127 -13q-126 0 -231.5 47t-181.5 137.5t-118.5 223.5t-42.5 305t42.5 305.5t118.5 225t181.5 139t231.5 47.5q52 0 107 -9t108 -33t103 -67t93 -110v133q0 31 13 43q6 6 18 10t41 4h707 q11 0 16 -2.5t8 -5.5q3 -5 4.5 -10t1.5 -19q0 -15 -2 -31t-4 -24q-6 -26 -16 -33q-9 -6 -29 -6h-612v-428h540q11 0 16.5 -2.5t8.5 -5.5q3 -5 4.5 -10t1.5 -19q0 -15 -2 -31t-4 -24q-5 -26 -16 -33q-9 -6 -29 -6h-520v-551h643q11 0 16 -2.5t8 -5.5q4 -5 5.5 -10t1.5 -19z " />
<glyph unicode="&#x153;" horiz-adv-x="1618" d="M776 446q0 72 -18 136t-53 112t-87 76.5t-120 28.5t-119.5 -28.5t-86.5 -76.5t-53 -112t-18 -136q0 -71 18 -135t53 -112t86.5 -76.5t119.5 -28.5t120 28.5t87 76.5t53 112t18 135zM1395 522q-2 66 -19.5 118.5t-48.5 89t-73.5 56t-94.5 19.5q-106 0 -168.5 -74.5 t-81.5 -208.5h486zM1540 469q0 -55 -70 -55h-561q5 -70 27 -126.5t58.5 -96t85 -61t106.5 -21.5q53 0 86.5 5.5t68.5 16.5q26 9 51.5 22t41.5 13q12 0 21.5 -9.5t17.5 -25.5q8 -15 13 -26.5t5 -20.5q0 -11 -7 -20.5t-38 -26.5q-43 -22 -108 -39.5t-156 -17.5 q-113 0 -199.5 50t-140.5 152q-57 -100 -146 -151t-198 -51q-89 0 -165 33t-131.5 94t-86.5 147t-31 192t31 192.5t86.5 147.5t131.5 94t165 33q109 0 197.5 -50t144.5 -150q51 100 134 150t189 50q89 0 159 -30.5t118.5 -88t74 -140t25.5 -185.5z" />
<glyph unicode="&#x178;" horiz-adv-x="1059" d="M1049 1356q0 -5 -1.5 -11.5t-11.5 -21.5l-438 -733v-553q0 -14 -3 -21t-9 -12t-19.5 -8.5t-42.5 -3.5q-28 0 -41.5 3.5t-19.5 8.5q-10 7 -10 33v553l-420 719q-11 17 -17 26t-6 19q0 11 10 18q7 3 20 5.5t42 2.5q35 0 51 -5.5t27 -22.5l372 -631l373 631q11 17 26 22.5 t50 5.5q25 0 38.5 -2.5t18.5 -5.5q7 -3 9 -8t2 -8zM487 1569q0 -40 -26 -67t-68 -27q-19 0 -36 7t-29.5 20t-19.5 30t-7 37q0 42 27 69t65 27q40 0 67 -27t27 -69zM765 1569q0 -40 -26 -67t-68 -27q-19 0 -36 7t-29.5 20t-19.5 30t-7 37q0 42 27 69t65 27q41 0 67.5 -27 t26.5 -69z" />
<glyph unicode="&#x2c6;" horiz-adv-x="1024" d="M811 1034q0 -12 -13 -17t-48 -5q-31 0 -47 5.5t-31 22.5l-160 181l-160 -181q-15 -17 -31 -22.5t-47 -5.5q-35 0 -48 5t-13 17q0 8 6 18t25 31l180 217q12 14 21 24t19 16t21.5 9t26.5 3t26.5 -3t21 -9t19 -16t21.5 -24l180 -217q19 -21 25 -31t6 -18z" />
<glyph unicode="&#x2da;" horiz-adv-x="1024" d="M610 1200q0 19 -8 37t-21.5 31.5t-31.5 21.5t-37 8t-37 -8t-31.5 -21.5t-21.5 -31.5t-8 -37t8 -37t21.5 -31.5t31.5 -21.5t37 -8t37 8t31.5 21.5t21.5 31.5t8 37zM700 1200q0 -39 -15 -73.5t-40.5 -60t-59.5 -40t-73 -14.5t-73.5 14.5t-60 40t-40 60t-14.5 73.5 t14.5 73.5t40 60t60 40.5t73.5 15t73 -15t59.5 -40.5t40.5 -60t15 -73.5z" />
<glyph unicode="&#x2dc;" horiz-adv-x="1024" d="M801 1192q-20 -81 -61.5 -122.5t-110.5 -41.5q-35 0 -65 12t-58 27q-26 14 -53.5 28.5t-59.5 14.5q-18 0 -31.5 -9t-21.5 -20q-6 -9 -11 -19.5t-12 -21.5q-5 -8 -10 -10t-16 -2h-49q-6 0 -11 1t-8 5t-3.5 13t3.5 24q20 81 61.5 122.5t110.5 41.5q38 0 67.5 -12.5 t55.5 -26.5t54 -28.5t59 -14.5q18 0 31.5 8t21.5 21q6 9 11 19.5t12 21.5q5 8 10 10t16 2h49q6 0 11 -1t8 -5t3.5 -13t-3.5 -24z" />
<glyph unicode="&#x2000;" horiz-adv-x="920" />
<glyph unicode="&#x2001;" horiz-adv-x="1840" />
<glyph unicode="&#x2002;" horiz-adv-x="920" />
<glyph unicode="&#x2003;" horiz-adv-x="1840" />
<glyph unicode="&#x2004;" horiz-adv-x="613" />
<glyph unicode="&#x2005;" horiz-adv-x="460" />
<glyph unicode="&#x2006;" horiz-adv-x="306" />
<glyph unicode="&#x2007;" horiz-adv-x="306" />
<glyph unicode="&#x2008;" horiz-adv-x="230" />
<glyph unicode="&#x2009;" horiz-adv-x="368" />
<glyph unicode="&#x200a;" horiz-adv-x="102" />
<glyph unicode="&#x2010;" horiz-adv-x="715" d="M622.5 427q-4.5 -25 -12.5 -38q-6 -14 -16.5 -18t-30.5 -4h-434q-14 0 -21 1t-10 3q-6 5 -8 12.5t-2 24.5q0 24 4 49.5t12 38.5q7 14 17.5 18t30.5 4h434q14 0 20.5 -1t9.5 -3q7 -5 9 -12.5t2 -24.5q0 -25 -4.5 -50z" />
<glyph unicode="&#x2011;" horiz-adv-x="715" d="M622.5 427q-4.5 -25 -12.5 -38q-6 -14 -16.5 -18t-30.5 -4h-434q-14 0 -21 1t-10 3q-6 5 -8 12.5t-2 24.5q0 24 4 49.5t12 38.5q7 14 17.5 18t30.5 4h434q14 0 20.5 -1t9.5 -3q7 -5 9 -12.5t2 -24.5q0 -25 -4.5 -50z" />
<glyph unicode="&#x2012;" horiz-adv-x="715" d="M622.5 427q-4.5 -25 -12.5 -38q-6 -14 -16.5 -18t-30.5 -4h-434q-14 0 -21 1t-10 3q-6 5 -8 12.5t-2 24.5q0 24 4 49.5t12 38.5q7 14 17.5 18t30.5 4h434q14 0 20.5 -1t9.5 -3q7 -5 9 -12.5t2 -24.5q0 -25 -4.5 -50z" />
<glyph unicode="&#x2013;" horiz-adv-x="1024" d="M1006 471q0 -8 -1.5 -21.5t-5.5 -25.5q-3 -9 -7 -19.5t-9 -13.5t-9.5 -4.5t-15.5 -1.5h-913q-16 0 -22 6q-7 6 -7 23q0 8 1.5 21t5.5 26q3 9 7 19t9 14q5 3 9 4.5t15 1.5h914q16 0 22 -6q7 -7 7 -23z" />
<glyph unicode="&#x2014;" horiz-adv-x="2048" d="M2030 471q0 -8 -1.5 -21.5t-5.5 -25.5q-3 -9 -7 -19.5t-9 -13.5t-9.5 -4.5t-15.5 -1.5h-1937q-16 0 -22 6q-7 6 -7 23q0 8 1.5 21t5.5 26q3 9 7 19t9 14q5 3 9 4.5t15 1.5h1938q16 0 22 -6q7 -7 7 -23z" />
<glyph unicode="&#x2018;" horiz-adv-x="381" d="M330 1356q0 -8 -2.5 -19t-5.5 -26l-72 -320q-6 -25 -23.5 -34t-60.5 -9q-42 0 -57 8.5t-15 20.5q0 14 5 27t10 30l98 312q4 12 9 19t14 10t21.5 4t31.5 1q27 0 37 -7.5t10 -16.5z" />
<glyph unicode="&#x2019;" horiz-adv-x="381" d="M287 1352q0 -14 -5 -27.5t-10 -30.5l-98 -311q-4 -12 -9.5 -19t-14 -10.5t-21.5 -4.5t-31 -1q-28 0 -37.5 8t-9.5 17q0 8 2.5 18.5t5.5 26.5l72 319q6 25 23.5 34t60.5 9q42 0 57 -8t15 -20z" />
<glyph unicode="&#x201a;" horiz-adv-x="381" d="M287 199q0 -14 -5 -27.5t-10 -30.5l-98 -311q-4 -12 -9.5 -19t-14 -10.5t-21.5 -4.5t-31 -1q-28 0 -37.5 7.5t-9.5 17.5q0 8 2.5 18.5t5.5 26.5l72 319q6 25 23.5 34t60.5 9q42 0 57 -8t15 -20z" />
<glyph unicode="&#x201c;" horiz-adv-x="696" d="M330 1356q0 -8 -2.5 -19t-5.5 -26l-72 -320q-6 -25 -23.5 -34t-60.5 -9q-42 0 -57 8.5t-15 20.5q0 14 5 27t10 30l98 312q4 12 9 19t14 10t21.5 4t31.5 1q27 0 37 -7.5t10 -16.5zM645 1356q0 -8 -2.5 -19t-5.5 -26l-72 -320q-6 -25 -23 -34t-61 -9q-42 0 -56.5 8.5 t-14.5 20.5q0 14 4.5 27t9.5 30l98 312q8 24 23.5 29t52.5 5q28 0 37.5 -7.5t9.5 -16.5z" />
<glyph unicode="&#x201d;" horiz-adv-x="696" d="M287 1352q0 -14 -5 -27.5t-10 -30.5l-98 -311q-4 -12 -9.5 -19t-14 -10.5t-21.5 -4.5t-31 -1q-28 0 -37.5 8t-9.5 17q0 8 2.5 18.5t5.5 26.5l72 319q6 25 23.5 34t60.5 9q42 0 57 -8t15 -20zM602 1352q0 -14 -4.5 -27.5t-9.5 -30.5l-99 -311q-4 -12 -9 -19t-13.5 -10.5 t-21.5 -4.5t-31 -1q-28 0 -37.5 8t-9.5 17q0 8 2.5 18.5t5.5 26.5l71 319q7 25 24 34t60 9q42 0 57 -8t15 -20z" />
<glyph unicode="&#x201e;" horiz-adv-x="696" d="M287 199q0 -14 -5 -27.5t-10 -30.5l-98 -311q-4 -12 -9.5 -19t-14 -10.5t-21.5 -4.5t-31 -1q-28 0 -37.5 7.5t-9.5 17.5q0 8 2.5 18.5t5.5 26.5l72 319q6 25 23.5 34t60.5 9q42 0 57 -8t15 -20zM602 199q0 -14 -4.5 -27.5t-9.5 -30.5l-99 -311q-4 -12 -9 -19t-13.5 -10.5 t-21.5 -4.5t-31 -1q-28 0 -37.5 7.5t-9.5 17.5q0 8 2.5 18.5t5.5 26.5l71 319q7 25 24 34t60 9q42 0 57 -8t15 -20z" />
<glyph unicode="&#x2022;" horiz-adv-x="991" d="M817 659q0 -67 -25 -125.5t-68.5 -102t-102 -68.5t-125.5 -25t-126 25t-102.5 68.5t-68.5 102t-25 125.5t25 126t68.5 102.5t102.5 68.5t126 25t125.5 -25t102 -68.5t68.5 -102.5t25 -126z" />
<glyph unicode="&#x2026;" horiz-adv-x="1180" d="M299 86q0 -43 -29.5 -72.5t-72.5 -29.5q-44 0 -73.5 29.5t-29.5 72.5t29.5 72.5t73.5 29.5q43 0 72.5 -29.5t29.5 -72.5zM692 86q0 -43 -29.5 -72.5t-72.5 -29.5q-44 0 -73.5 29.5t-29.5 72.5t29.5 72.5t73.5 29.5q43 0 72.5 -29.5t29.5 -72.5zM1085 86 q0 -43 -29.5 -72.5t-72.5 -29.5t-72.5 29.5t-29.5 72.5t29.5 72.5t72.5 29.5t72.5 -29.5t29.5 -72.5z" />
<glyph unicode="&#x202f;" horiz-adv-x="368" />
<glyph unicode="&#x2039;" horiz-adv-x="651" d="M465 201q0 -20 -2 -32t-5.5 -18t-9 -8t-12.5 -2q-11 0 -20 8.5t-25 26.5l-219 283q-14 18 -20.5 32t-6.5 37t6.5 37t20.5 33l219 283q16 18 25 26t20 8q7 0 12.5 -2t9 -8t5.5 -17.5t2 -31.5q0 -19 -0.5 -33t-3 -25t-7 -20.5t-12.5 -19.5l-161 -230l161 -229 q8 -11 12.5 -20.5t7 -20.5t3 -24.5t0.5 -32.5z" />
<glyph unicode="&#x203a;" horiz-adv-x="651" d="M508 528q0 -23 -6.5 -37t-20.5 -32l-219 -283q-15 -18 -24.5 -26.5t-20.5 -8.5q-7 0 -12.5 2t-9 8t-5.5 18t-2 32q0 19 0.5 32.5t3 24.5t7 20.5t12.5 20.5l162 229l-162 230q-8 10 -12.5 19.5t-7 20.5t-3 25t-0.5 33q0 20 2 31.5t5.5 17.5t9 8t12.5 2q11 0 20.5 -8 t24.5 -26l219 -283q14 -19 20.5 -33t6.5 -37z" />
<glyph unicode="&#x2044;" horiz-adv-x="1591" d="M1120 1378q0 -6 -4 -16t-10 -23l-692 -1331q-10 -18 -23 -23t-47 -5q-32 0 -45.5 5.5t-13.5 16.5q0 6 4 16.5t10 22.5l692 1331q10 19 23 24t47 5q32 0 45.5 -6t13.5 -17z" />
<glyph unicode="&#x205f;" horiz-adv-x="460" />
<glyph unicode="&#x2074;" horiz-adv-x="623" d="M385 1214l-229 -313h229v313zM606 881q0 -14 -3.5 -30t-8.5 -24q-5 -12 -14 -15t-21 -3h-61v-176q0 -15 -9 -23q-5 -3 -19 -5.5t-30 -2.5q-15 0 -28.5 2.5t-18.5 5.5q-6 5 -7 10t-1 13v176h-336q-17 0 -25 6.5t-8 26.5q0 11 2 23t9 22l366 487q11 14 27.5 20.5t25.5 6.5 q26 0 39 -9t13 -32v-459h84q12 0 18 -4t6 -16z" />
<glyph unicode="&#x20ac;" horiz-adv-x="1130" d="M1106 88q0 -8 -6 -15t-25 -18q-16 -9 -45 -22t-70 -24.5t-95.5 -20t-121.5 -8.5q-89 0 -170 30.5t-147.5 88.5t-115.5 143t-74 194h-138q-14 0 -19.5 1.5t-8.5 6.5q-5 9 -2 27q3 16 8.5 32.5t13.5 28.5q8 11 19.5 15t29.5 4h80q-2 18 -3 38.5t-1 43.5q0 32 1.5 64t6.5 63 h-125q-14 0 -19.5 1.5t-8.5 6.5q-5 7 -2 27q3 15 8.5 32t13.5 29q8 11 19.5 14.5t29.5 3.5h109q25 94 71.5 170.5t111.5 131t146.5 84.5t176.5 30q64 0 116 -8t91 -18.5t65.5 -21.5t38.5 -17q15 -8 21 -15.5t6 -15.5t-1.5 -17.5t-11.5 -29.5q-11 -22 -19 -32.5t-18 -10.5 q-11 0 -24.5 5t-32.5 13q-12 5 -31 13t-47 16q-26 8 -65.5 13t-85.5 5q-76 0 -135.5 -23.5t-104 -63.5t-75 -93.5t-48.5 -114.5h565q14 0 20 -1.5t9 -6.5q5 -8 2 -26q-3 -16 -8.5 -32.5t-13.5 -29.5q-8 -11 -19.5 -14.5t-29.5 -3.5h-551q-5 -32 -7 -64t-2 -63q0 -20 1 -41 t3 -41h531q14 0 20 -1.5t9 -6.5q5 -8 2 -27q-3 -15 -9 -32t-14 -29q-8 -11 -19 -15t-30 -4h-471q21 -83 59 -145.5t87 -104.5t107.5 -63t121.5 -21q68 0 111.5 10t74.5 21q32 11 47 17.5t25 11.5q20 10 30 10q8 0 19.5 -7t23.5 -30q11 -18 15 -28t4 -19z" />
<glyph unicode="&#x2122;" horiz-adv-x="1772" d="M702 1370q0 -17 -4 -35t-10 -30q-6 -11 -15 -14t-26 -3h-194v-612q0 -13 -3 -18.5t-10 -8.5q-9 -5 -16.5 -7.5t-32.5 -2.5t-35.5 2.5t-15.5 7.5q-6 6 -8 10t-2 17v612h-209q-13 0 -19.5 1.5t-11.5 4.5q-8 4 -8 25q0 17 4 35t10 30q6 11 15 14t26 3h527q12 0 18.5 -1.5 t11.5 -4.5q8 -4 8 -25zM1516 674q0 -11 -3.5 -16.5t-9.5 -8.5q-9 -5 -16.5 -7.5t-32.5 -2.5t-36.5 2.5t-16.5 7.5q-6 6 -8 10t-2 15v545l-150 -293q-5 -7 -9 -12t-10.5 -8t-18 -4t-29.5 -1q-19 0 -30 1t-18 4t-10.5 8t-7.5 12l-150 262v-514q0 -11 -3 -16.5t-9 -8.5 q-9 -5 -18.5 -7.5t-34.5 -2.5t-34.5 2.5t-14.5 7.5q-6 6 -8 10t-2 15v635l-19 37q-6 9 -11 17.5t-5 16.5q0 10 8 15q10 10 72 10q37 0 53 -5t22 -16l220 -364l196 352q3 5 8 11.5t8 9.5q7 5 19.5 8.5t38.5 3.5q29 0 43.5 -2.5t19.5 -7.5q3 -3 6 -7t3 -18v-696z" />
<glyph unicode="&#x25fc;" horiz-adv-x="900" d="M0 900h900v-900h-900v900z" />
<glyph unicode="&#xfb01;" horiz-adv-x="989" d="M858 37q0 -14 -2.5 -21t-7.5 -12q-6 -5 -18 -8.5t-39 -3.5q-28 0 -39 3.5t-17 8.5q-5 5 -7.5 12t-2.5 21v741h-412v-741q0 -14 -2.5 -21t-7.5 -12q-6 -5 -17.5 -8.5t-39.5 -3.5t-38.5 3.5t-17.5 8.5q-5 5 -7.5 12t-2.5 21v741h-131q-16 0 -22 6q-7 7 -7 23q0 8 2 22t5 25 q3 9 7 19.5t9 13.5t9.5 4.5t15.5 1.5h112v143q0 77 22.5 140.5t65.5 108.5t106 70t144 25q80 0 136.5 -15.5t101.5 -35.5q24 -12 33.5 -22t9.5 -19q0 -19 -11 -39q-8 -15 -16 -28t-22 -13q-5 0 -10 0.5t-13 3.5q-22 11 -42.5 20.5t-43 16.5t-50 11t-63.5 4q-60 0 -101 -20 t-66.5 -54t-36.5 -79.5t-11 -96.5v-121h478q24 0 36 -3.5t17 -6.5q6 -5 10 -12.5t4 -22.5v-811z" />
<glyph unicode="&#xfb02;" horiz-adv-x="1030" d="M899 37q0 -14 -2.5 -21t-7.5 -12q-6 -5 -18 -8.5t-40 -3.5q-27 0 -38 3t-17 9q-5 5 -7.5 12t-2.5 21v1128q0 38 -43 60q-25 12 -71.5 25.5t-108.5 13.5q-67 0 -111 -19t-70.5 -51.5t-37.5 -74.5t-11 -87v-139h250q17 0 23 -6t6 -23q0 -8 -1.5 -22t-4.5 -25t-7.5 -20.5 t-9.5 -12.5t-9 -4.5t-15 -1.5h-232v-741q0 -14 -2.5 -21t-7.5 -12q-6 -5 -17.5 -8.5t-39.5 -3.5t-38.5 3.5t-17.5 8.5q-5 5 -7.5 12t-2.5 21v741h-131q-16 0 -22 6q-7 7 -7 23q0 8 2 22t5 25q3 9 7 19.5t9 13.5t9.5 4.5t15.5 1.5h112v143q0 77 21 140.5t66 108.5t115.5 70 t168.5 25q53 0 101 -8.5t88.5 -20.5t72 -26t49.5 -25q13 -8 20.5 -14.5t11 -14t4.5 -17t1 -21.5v-1196z" />
</font>
</defs>
</svg>
